<svg width="240" height="260" viewBox="0 0 240 260" fill="none" xmlns="http://www.w3.org/2000/svg">
<g clip-path="url(#clip0_134_915)">
<path fill-rule="evenodd" clip-rule="evenodd" d="M32.4014 153.946H75.3325V191.255H32.4014V153.946Z" fill="#F2F3F3"/>
<mask id="mask0_134_915" style="mask-type:luminance" maskUnits="userSpaceOnUse" x="32" y="153" width="44" height="39">
<path d="M32.4014 153.946H75.3325V191.255H32.4014V153.946Z" fill="white"/>
</mask>
<g mask="url(#mask0_134_915)">
<path d="M2.03882 171.093H111.465M2.03882 177.736H111.465M2.03882 164.451H111.465M2.03882 157.808H111.465M2.03882 151.158H111.465M2.03882 144.515H111.465M2.03882 137.873H111.465M2.03882 191.029H111.465M2.03882 184.378H111.465M41.0997 207.226V134.524M27.8146 207.226V134.524M54.3925 207.226V134.524M80.9626 207.226V134.524M67.6775 207.226V134.524M94.2554 207.226V134.524M107.54 207.226V134.524M14.5218 207.226V134.524" stroke="#989793" stroke-width="0.225" stroke-linecap="round" stroke-linejoin="round"/>
</g>
<path d="M32.4014 153.946H75.3325V191.255H32.4014V153.946Z" stroke="#1D1D1B" stroke-width="0.24" stroke-miterlimit="10" stroke-linecap="round" stroke-linejoin="round"/>
<path fill-rule="evenodd" clip-rule="evenodd" d="M88.6019 191.278V151.742H20.1442V138.496H17.4966V116.419H20.1442V69.1816L209.99 69.2984L221.219 101.257L209.997 133.255L221.188 165.269L211.975 191.255L88.6019 191.278Z" fill="#E5E3DA"/>
<mask id="mask1_134_915" style="mask-type:luminance" maskUnits="userSpaceOnUse" x="17" y="69" width="205" height="123">
<path d="M88.6019 191.278V151.742H20.1442V138.496H17.4966V116.419H20.1442V69.1816L209.99 69.2984L221.219 101.257L209.997 133.255L221.188 165.269L211.975 191.255L88.6019 191.278Z" fill="white"/>
</mask>
<g mask="url(#mask1_134_915)">
<path d="M203.394 439.566V-56.1853M206.353 439.566V-56.1853M197.46 439.566V-56.1853M224.147 439.566V-56.1853M200.427 439.566V-56.1853M188.567 439.566V-56.1853M215.254 439.566V-56.1853M191.534 439.566V-56.1853M218.221 439.566V-56.1853M182.633 439.566V-56.1853M209.32 439.566V-56.1853M185.6 439.566V-56.1853M212.287 439.566V-56.1853M194.493 439.566V-56.1853M221.18 439.566V-56.1853M150.02 439.566V-56.1853M176.707 439.566V-56.1853M152.987 439.566V-56.1853M179.674 439.566V-56.1853M144.086 439.566V-56.1853M170.773 439.566V-56.1853M147.053 439.566V-56.1853M173.74 439.566V-56.1853M135.193 439.566V-56.1853M161.88 439.566V-56.1853M138.16 439.566V-56.1853M164.847 439.566V-56.1853M129.267 439.566V-56.1853M155.954 439.566V-56.1853M132.226 439.566V-56.1853M158.913 439.566V-56.1853M141.127 439.566V-56.1853M167.814 439.566V-56.1853M96.6461 439.566V-56.1853M123.333 439.566V-56.1853M99.6131 439.566V-56.1853M126.3 439.566V-56.1853M90.7123 439.566V-56.1853M117.399 439.566V-56.1853M93.6792 439.566V-56.1853M120.366 439.566V-56.1853M81.8192 439.566V-56.1853M108.506 439.566V-56.1853M84.7862 439.566V-56.1853M111.473 439.566V-56.1853M75.8931 439.566V-56.1853M102.58 439.566V-56.1853M78.8523 439.566V-56.1853M105.539 439.566V-56.1853M87.7531 439.566V-56.1853M114.44 439.566V-56.1853M43.2723 439.566V-56.1853M69.9592 439.566V-56.1853M46.2393 439.566V-56.1853M72.9262 439.566V-56.1853M37.3462 439.566V-56.1853M64.0331 439.566V-56.1853M40.3132 439.566V-56.1853M67.0001 439.566V-56.1853M28.4454 439.566V-56.1853M55.1323 439.566V-56.1853M31.4124 439.566V-56.1853M58.0993 439.566V-56.1853M22.5193 439.566V-56.1853M49.2062 439.566V-56.1853M25.4863 439.566V-56.1853M52.1732 439.566V-56.1853M34.3793 439.566V-56.1853M61.0662 439.566V-56.1853M16.5854 439.566V-56.1853M19.5524 439.566V-56.1853" stroke="#989793" stroke-width="0.225" stroke-linecap="round" stroke-linejoin="round"/>
<path d="M185.6 68.5042H182.633M212.287 68.5042H209.32M197.46 74.4302H194.493M224.147 74.4302H221.18" stroke="#989793" stroke-width="0.225" stroke-linecap="round" stroke-linejoin="round"/>
<path d="M185.6 127.804H182.633M212.287 127.804H209.32M197.46 133.738H194.493M224.147 133.738H221.18M191.534 98.158H188.567M218.221 98.158H215.254M200.427 107.051H197.46M227.114 107.051H224.147M188.567 115.944H185.6M215.254 115.944H212.287M206.353 118.911H203.394M206.353 83.3311H209.32M203.394 89.2571H200.427M194.493 86.298H191.534M221.18 86.298H218.221M185.6 187.112H182.633M212.287 187.112H209.32M197.46 193.038H194.493M224.147 193.038H221.18M191.534 157.458H188.567M218.221 157.458H215.254M200.427 166.351H197.46M227.114 166.351H224.147M188.567 175.252H185.6M215.254 175.252H212.287M206.353 178.219H203.394M206.353 142.631H209.32M203.394 148.565H200.427M194.493 145.598H191.534M221.18 145.598H218.221" stroke="#989793" stroke-width="0.225" stroke-linecap="round" stroke-linejoin="round"/>
<path d="M132.226 68.5042H129.267M158.913 68.5042H155.954M144.086 74.4302H141.127M170.773 74.4302H167.814" stroke="#989793" stroke-width="0.225" stroke-linecap="round" stroke-linejoin="round"/>
<path d="M132.226 127.804H129.267M158.913 127.804H155.954M144.086 133.738H141.127M170.773 133.738H167.814M138.16 98.158H135.193M164.847 98.158H161.88M147.053 107.051H144.086M173.74 107.051H170.773M135.193 115.944H132.226M161.88 115.944H158.913M152.987 118.911H150.02M179.674 118.911H176.707M179.674 83.3311H182.641M152.987 83.3311H155.954M150.02 89.2571H147.053M176.707 89.2571H173.74M141.127 86.298H138.16M167.814 86.298H164.847M132.226 187.112H129.267M158.913 187.112H155.954M144.086 193.038H141.127M170.773 193.038H167.814M138.16 157.458H135.193M164.847 157.458H161.88M147.053 166.351H144.086M173.74 166.351H170.773M135.193 175.252H132.226M161.88 175.252H158.913M152.987 178.219H150.02M179.674 178.219H176.707M179.674 142.631H182.641M152.987 142.631H155.954M150.02 148.565H147.053M176.707 148.565H173.74M141.127 145.598H138.16M167.814 145.598H164.847" stroke="#989793" stroke-width="0.225" stroke-linecap="round" stroke-linejoin="round"/>
<path d="M78.8522 68.5042H75.8931M105.539 68.5042H102.58M90.7122 74.4302H87.753M117.399 74.4302H114.44" stroke="#989793" stroke-width="0.225" stroke-linecap="round" stroke-linejoin="round"/>
<path d="M78.8522 127.804H75.8931M105.539 127.804H102.58M90.7122 133.738H87.753M117.399 133.738H114.44M84.7861 98.158H81.8192M111.473 98.158H108.506M93.6791 107.051H90.7122M120.366 107.051H117.399M81.8192 115.944H78.8522M108.506 115.944H105.539M99.613 118.911H96.6461M126.3 118.911H123.333M126.3 83.3311H129.267M99.613 83.3311H102.58M96.6461 89.2571H93.6791M123.333 89.2571H120.366M87.753 86.298H84.7861M114.44 86.298H111.473M78.8522 187.112H75.8931M105.539 187.112H102.58M90.7122 193.038H87.753M117.399 193.038H114.44M84.7861 157.458H81.8192M111.473 157.458H108.506M93.6791 166.351H90.7122M120.366 166.351H117.399M81.8192 175.252H78.8522M108.506 175.252H105.539M99.613 178.219H96.6461M126.3 178.219H123.333M126.3 142.631H129.267M99.613 142.631H102.58M96.6461 148.565H93.6791M123.333 148.565H120.366M87.753 145.598H84.7861M114.44 145.598H111.473" stroke="#989793" stroke-width="0.225" stroke-linecap="round" stroke-linejoin="round"/>
<path d="M25.4862 68.5042H22.5193M52.1731 68.5042H49.2062M37.3462 74.4302H34.3793M64.0331 74.4302H61.0662" stroke="#989793" stroke-width="0.225" stroke-linecap="round" stroke-linejoin="round"/>
<path d="M25.4862 127.804H22.5193M52.1731 127.804H49.2062M37.3462 133.738H34.3793M64.0331 133.738H61.0662M31.4123 98.158H28.4454M58.0992 98.158H55.1323M40.3131 107.051H37.3462M67 107.051H64.0331M28.4454 115.944H25.4862M55.1323 115.944H52.1731M46.2392 118.911H43.2723M72.9261 118.911H69.9592M72.9261 83.3311H75.8931M46.2392 83.3311H49.2062M43.2723 89.2571H40.3131M69.9592 89.2571H67M34.3793 86.298H31.4123M61.0662 86.298H58.0992M25.4862 187.112H22.5193M52.1731 187.112H49.2062M37.3462 193.038H34.3793M64.0331 193.038H61.0662M31.4123 157.458H28.4454M58.0992 157.458H55.1323M40.3131 166.351H37.3462M67 166.351H64.0331M28.4454 175.252H25.4862M55.1323 175.252H52.1731M46.2392 178.219H43.2723M72.9261 178.219H69.9592M72.9261 142.631H75.8931M46.2392 142.631H49.2062M43.2723 148.565H40.3131M69.9592 148.565H67M34.3793 145.598H31.4123M61.0662 145.598H58.0992" stroke="#989793" stroke-width="0.225" stroke-linecap="round" stroke-linejoin="round"/>
<path d="M19.5524 118.911H16.5854" stroke="#989793" stroke-width="0.225" stroke-linecap="round" stroke-linejoin="round"/>
<path d="M19.5523 83.3311H22.5193M16.5854 89.2571H13.6262" stroke="#989793" stroke-width="0.225" stroke-linecap="round" stroke-linejoin="round"/>
<path d="M19.5524 178.219H16.5854" stroke="#989793" stroke-width="0.225" stroke-linecap="round" stroke-linejoin="round"/>
<path d="M19.5523 142.631H22.5193M16.5854 148.565H13.6262" stroke="#989793" stroke-width="0.225" stroke-linecap="round" stroke-linejoin="round"/>
</g>
<path d="M88.6019 191.278V151.742H20.1442V138.496H17.4966V116.419H20.1442V69.1816L209.99 69.2984L221.219 101.257L209.997 133.255L221.188 165.268L211.975 191.255L88.6019 191.278Z" stroke="#1D1D1B" stroke-width="0.24" stroke-miterlimit="10" stroke-linecap="round" stroke-linejoin="round"/>
<path fill-rule="evenodd" clip-rule="evenodd" d="M119.206 122.516V78.9857C119.206 77.7319 120.234 76.7118 121.48 76.7118H176.465C177.719 76.7118 178.739 77.7397 178.739 78.9857V122.524C178.739 123.778 177.711 124.798 176.465 124.798H121.48C120.234 124.798 119.206 123.77 119.206 122.516Z" fill="#F3F4F4" stroke="#1D1D1B" stroke-width="0.48" stroke-miterlimit="10" stroke-linecap="round" stroke-linejoin="round"/>
<path fill-rule="evenodd" clip-rule="evenodd" d="M40.6792 99.6453H58.3407V101.849H40.6792V99.6453ZM82.6135 99.6453H100.275V101.849H82.6135V99.6453Z" fill="#E5E3DA" stroke="#1D1D1B" stroke-width="0.216" stroke-miterlimit="22.926"/>
<path fill-rule="evenodd" clip-rule="evenodd" d="M58.3329 99.6453H60.5367V69.1816H20.1443V99.6453H40.6714V101.849H20.1443V116.419H14.187V63.2244H212.1L209.974 69.1816H104.69V101.849H100.275V99.6453H102.479V69.1816H62.7483V99.6453H82.6135V101.849H62.7483V106.264H60.5445V101.849H58.3407V99.6453H58.3329ZM32.4014 191.255H75.3325V153.946H59.4387V151.742H101.832V153.946H88.5786V191.255H211.983L210.083 196.776H25.2293V157.707H14.187V138.496H20.1443V151.742H41.785V153.946H32.4014V191.255ZM77.5363 191.255H86.367V164.544H77.5363V191.255ZM86.367 162.34V153.954H77.5363V162.34H86.367ZM62.7483 129.447H211.337L210.472 131.651H60.5445V126.13H62.7483V129.447Z" fill="#C1C1BA" stroke="#1D1D1B" stroke-width="0.48" stroke-miterlimit="22.926"/>
<path fill-rule="evenodd" clip-rule="evenodd" d="M61.2144 125.032H62.764V126.13H61.2144V125.032Z" fill="#E5E3DA" stroke="#1D1D1B" stroke-width="0.567" stroke-miterlimit="10" stroke-linecap="round" stroke-linejoin="round"/>
<path d="M78.8291 124.175C78.3541 114.792 70.6058 107.425 61.2144 107.417" stroke="#1D1D1B" stroke-width="0.567" stroke-miterlimit="10" stroke-linecap="round" stroke-linejoin="round"/>
<path fill-rule="evenodd" clip-rule="evenodd" d="M61.2143 124.175H78.8369V125.032H61.2143V124.175ZM61.2143 106.303H62.764V107.425H61.2143V106.303ZM15.9548 137.398H17.5045V138.496H15.9548V137.398Z" fill="#E5E3DA" stroke="#1D1D1B" stroke-width="0.567" stroke-miterlimit="10" stroke-linecap="round" stroke-linejoin="round"/>
<path d="M35.789 136.432C35.2516 125.865 26.5377 117.572 15.9548 117.564" stroke="#1D1D1B" stroke-width="0.567" stroke-miterlimit="10" stroke-linecap="round" stroke-linejoin="round"/>
<path fill-rule="evenodd" clip-rule="evenodd" d="M15.9548 136.432H35.789V137.398H15.9548V136.432ZM15.9548 116.474H17.5045V117.595H15.9548V116.474ZM41.8241 151.742H42.9221V153.292H41.8241V151.742Z" fill="#E5E3DA" stroke="#1D1D1B" stroke-width="0.567" stroke-miterlimit="10" stroke-linecap="round" stroke-linejoin="round"/>
<path d="M43.7554 135.669C51.8697 136.144 58.2474 143.892 58.2552 153.292" stroke="#1D1D1B" stroke-width="0.567" stroke-miterlimit="10" stroke-linecap="round" stroke-linejoin="round"/>
<path fill-rule="evenodd" clip-rule="evenodd" d="M42.9221 135.669H43.7554V153.292H42.9221V135.669ZM58.2552 151.742H59.4389V153.292H58.2552V151.742Z" fill="#E5E3DA" stroke="#1D1D1B" stroke-width="0.567" stroke-miterlimit="10" stroke-linecap="round" stroke-linejoin="round"/>
<path d="M40.6794 99.6453H58.3331" stroke="#1D1D1B" stroke-width="0.567" stroke-miterlimit="10" stroke-linecap="round" stroke-linejoin="round"/>
<path fill-rule="evenodd" clip-rule="evenodd" d="M49.5024 101.172H58.3331V101.849H49.5024V101.172ZM49.5024 101.172H58.3331V101.849H49.5024V101.172ZM40.6794 101.172H49.5102V101.849H40.6794V101.172ZM40.6794 101.172H49.5102V101.849H40.6794V101.172Z" fill="#E5E3DA" stroke="#1D1D1B" stroke-width="0.567" stroke-miterlimit="10" stroke-linecap="round" stroke-linejoin="round"/>
<path d="M82.6138 99.6453H100.275" stroke="#1D1D1B" stroke-width="0.567" stroke-miterlimit="10" stroke-linecap="round" stroke-linejoin="round"/>
<path fill-rule="evenodd" clip-rule="evenodd" d="M91.4445 101.172H100.275V101.849H91.4445V101.172ZM91.4445 101.172H100.275V101.849H91.4445V101.172ZM82.6138 101.172H91.4445V101.849H82.6138V101.172ZM82.6138 101.172H91.4445V101.849H82.6138V101.172Z" fill="#E5E3DA"/>
<path d="M91.4445 101.172H100.275V101.849H91.4445M91.4445 101.172V101.849M91.4445 101.172H82.6138V101.849H91.4445" stroke="#1D1D1B" stroke-width="0.567" stroke-miterlimit="10" stroke-linecap="round" stroke-linejoin="round"/>
<path fill-rule="evenodd" clip-rule="evenodd" d="M70.917 153.946H75.3324V174.582H70.917V153.946ZM77.5362 153.946H86.3669V162.333H77.5362V153.946ZM77.5362 164.544H86.3669V191.255H77.5362V164.544Z" fill="#C1C1BA" stroke="#1D1D1B" stroke-width="0.48" stroke-miterlimit="22.926"/>
<path fill-rule="evenodd" clip-rule="evenodd" d="M70.9248 168.625V160.682H63.3867L63.0207 160.697L62.6469 160.744C60.7391 161.048 59.2673 162.52 59.1115 164.311L59.0959 164.653L59.1115 165.004C59.2828 166.795 60.7313 168.243 62.6469 168.57L63.0129 168.617L63.3867 168.633H70.9248V168.625Z" fill="#F5F7F7" stroke="#1D1D1B" stroke-width="0.48" stroke-miterlimit="10" stroke-linecap="round" stroke-linejoin="round"/>
<path d="M69.3205 167.675V161.64H63.3087L63.0284 161.655L62.7403 161.694C61.2918 161.928 60.1783 163.041 60.0537 164.404L60.0381 164.661L60.0537 164.926C60.1783 166.289 61.284 167.387 62.7403 167.636L63.0206 167.675L63.3009 167.69H69.3205V167.675Z" stroke="#1D1D1B" stroke-width="0.48" stroke-miterlimit="10" stroke-linecap="round" stroke-linejoin="round"/>
<path fill-rule="evenodd" clip-rule="evenodd" d="M32.9465 69.1349H60.5368V82.381H32.9465V69.1349Z" fill="#F5F7F7" stroke="#1D1D1B" stroke-width="0.48" stroke-miterlimit="10" stroke-linecap="round" stroke-linejoin="round"/>
<path d="M60.5445 75.754H32.9465" stroke="#1D1D1B" stroke-width="0.48" stroke-miterlimit="10" stroke-linecap="round" stroke-linejoin="round" stroke-dasharray="2.88 4.32"/>
<path fill-rule="evenodd" clip-rule="evenodd" d="M75.9944 69.1816H102.471V82.4277H75.9944V69.1816Z" fill="#F5F7F7" stroke="#1D1D1B" stroke-width="0.48" stroke-miterlimit="10" stroke-linecap="round" stroke-linejoin="round"/>
<path d="M102.471 75.8086H75.9944" stroke="#1D1D1B" stroke-width="0.48" stroke-miterlimit="10" stroke-linecap="round" stroke-linejoin="round" stroke-dasharray="2.88 4.32"/>
<path fill-rule="evenodd" clip-rule="evenodd" d="M62.6782 69.166H75.9243V99.6453H62.6782V69.166Z" fill="#F5F7F7" stroke="#1D1D1B" stroke-width="0.48" stroke-miterlimit="10" stroke-linecap="round" stroke-linejoin="round"/>
<path d="M69.3052 69.166V99.6453" stroke="#1D1D1B" stroke-width="0.48" stroke-miterlimit="10" stroke-linecap="round" stroke-linejoin="round" stroke-dasharray="2.88 4.32"/>
<path fill-rule="evenodd" clip-rule="evenodd" d="M20.1443 69.166H33.3904V99.6453H20.1443V69.166Z" fill="#F5F7F7" stroke="#1D1D1B" stroke-width="0.48" stroke-miterlimit="10" stroke-linecap="round" stroke-linejoin="round"/>
<path d="M26.7634 69.166V99.6453" stroke="#1D1D1B" stroke-width="0.48" stroke-miterlimit="10" stroke-linecap="round" stroke-linejoin="round" stroke-dasharray="2.88 4.32"/>
<path fill-rule="evenodd" clip-rule="evenodd" d="M144.289 81.9059L139.803 81.9993L135.349 81.9059L135.115 81.8903L130.863 81.5944L130.661 78.8221L130.583 76.0577L130.661 73.2387L130.863 70.4664L136.821 70.2406H142.778L148.743 70.4664L148.938 74.1732V77.8799L148.743 81.5944L144.491 81.8903L144.289 81.9059ZM166.856 115.391H131.097L130.739 115.344L130.381 115.165L130.069 114.9L129.828 114.589L129.672 114.137L129.625 113.732V89.7321H168.328V113.732L168.289 114.137L168.133 114.589L167.892 114.9L167.611 115.165L167.253 115.344L166.856 115.391ZM129.189 89.7321H129.111V81.9059H135.115V81.8903L135.349 81.9059L139.803 81.9993L144.289 81.9059L144.491 81.8903V81.9059H153.509V81.8903L153.703 81.9059L158.158 81.9993L162.643 81.9059L162.846 81.8903V81.9059H168.842V89.7321H129.314H129.189ZM162.643 81.9059L158.158 81.9993L153.703 81.9059L153.509 81.8903L149.218 81.5944L149.023 77.8799V74.1732L149.218 70.4664L155.175 70.2406H161.14L167.098 70.4664L167.339 73.2387L167.417 76.0577L167.339 78.8221L167.098 81.5944L162.846 81.8903L162.643 81.9059ZM130.225 81.9059H130.108V70.1549H167.853V81.9059H162.846V81.8903L167.098 81.5944L167.339 78.8221L167.417 76.0577L167.339 73.2387L167.098 70.4664L161.14 70.2406H155.175L149.218 70.4664L149.023 74.1732V77.8799L149.218 81.5944L153.509 81.8903V81.9059H144.491V81.8903L148.743 81.5944L148.938 77.8799V74.1732L148.743 70.4664L142.778 70.2406H136.821L130.863 70.4664L130.661 73.2387L130.583 76.0577L130.661 78.8221L130.863 81.5944L135.115 81.8903V81.9059H130.622H130.225ZM130.108 69.0336H167.853V70.1549H130.108V69.0336Z" fill="#F5F7F7"/>
<path d="M135.115 81.8903L135.349 81.9059L139.803 81.9993L144.289 81.9059L144.491 81.8903M135.115 81.8903L130.863 81.5944L130.661 78.8221L130.583 76.0577L130.661 73.2387L130.863 70.4664L136.821 70.2406H142.778L148.743 70.4664L148.938 74.1732V77.8799L148.743 81.5944L144.491 81.8903M135.115 81.8903V81.9059M144.491 81.8903V81.9059H153.509V81.8903M135.115 81.9059H129.111V89.7321H129.189H129.314H168.842V81.9059H162.846M135.115 81.9059H130.622H130.225H130.108V70.1549M153.509 81.8903L153.703 81.9059L158.158 81.9993L162.643 81.9059L162.846 81.8903M153.509 81.8903L149.218 81.5944L149.023 77.8799V74.1732L149.218 70.4664L155.175 70.2406H161.14L167.098 70.4664L167.339 73.2387L167.417 76.0577L167.339 78.8221L167.098 81.5944L162.846 81.8903M162.846 81.8903V81.9059M162.846 81.9059H167.853V70.1549M130.108 70.1549H167.853M130.108 70.1549V69.0336H167.853V70.1549M166.856 115.391H131.097L130.739 115.344L130.381 115.165L130.069 114.9L129.828 114.589L129.672 114.137L129.625 113.732V89.7321H168.328V113.732L168.289 114.137L168.133 114.589L167.892 114.9L167.611 115.165L167.253 115.344L166.856 115.391Z" stroke="#1D1D1B" stroke-width="0.48" stroke-miterlimit="10" stroke-linecap="round" stroke-linejoin="round"/>
<path fill-rule="evenodd" clip-rule="evenodd" d="M112.509 69.205H125.802V78.0435H112.509V69.205ZM115.811 78.0435H122.554V78.5886H115.811V78.0435Z" fill="#F5F7F7" stroke="#1D1D1B" stroke-width="0.48" stroke-miterlimit="10" stroke-linecap="round" stroke-linejoin="round"/>
<path d="M119.159 76.9065C120.987 76.9065 122.469 75.4248 122.469 73.5969C122.469 71.7691 120.987 70.2874 119.159 70.2874C117.331 70.2874 115.85 71.7691 115.85 73.5969C115.85 75.4248 117.331 76.9065 119.159 76.9065Z" fill="#F5F7F7" stroke="#1D1D1B" stroke-width="0.48" stroke-miterlimit="10" stroke-linecap="round" stroke-linejoin="round"/>
<path d="M119.159 75.2556C120.075 75.2556 120.818 74.513 120.818 73.5969C120.818 72.6809 120.075 71.9382 119.159 71.9382C118.243 71.9382 117.5 72.6809 117.5 73.5969C117.5 74.513 118.243 75.2556 119.159 75.2556Z" fill="#F5F7F7" stroke="#1D1D1B" stroke-width="0.48" stroke-miterlimit="10" stroke-linecap="round" stroke-linejoin="round"/>
<path d="M117.5 73.5969H120.81M119.159 71.946V75.2556" stroke="#1D1D1B" stroke-width="0.48" stroke-miterlimit="10" stroke-linecap="round" stroke-linejoin="round"/>
<path fill-rule="evenodd" clip-rule="evenodd" d="M171.84 69.205H185.133V78.0435H171.84V69.205ZM175.142 78.0435H181.885V78.5886H175.142V78.0435Z" fill="#F5F7F7" stroke="#1D1D1B" stroke-width="0.48" stroke-miterlimit="10" stroke-linecap="round" stroke-linejoin="round"/>
<path d="M178.49 76.9065C180.318 76.9065 181.8 75.4248 181.8 73.5969C181.8 71.7691 180.318 70.2874 178.49 70.2874C176.662 70.2874 175.181 71.7691 175.181 73.5969C175.181 75.4248 176.662 76.9065 178.49 76.9065Z" fill="#F5F7F7" stroke="#1D1D1B" stroke-width="0.48" stroke-miterlimit="10" stroke-linecap="round" stroke-linejoin="round"/>
<path d="M178.49 75.2556C179.406 75.2556 180.149 74.513 180.149 73.5969C180.149 72.6809 179.406 71.9382 178.49 71.9382C177.574 71.9382 176.832 72.6809 176.832 73.5969C176.832 74.513 177.574 75.2556 178.49 75.2556Z" fill="#F5F7F7" stroke="#1D1D1B" stroke-width="0.48" stroke-miterlimit="10" stroke-linecap="round" stroke-linejoin="round"/>
<path d="M176.832 73.5969H180.141M178.49 71.946V75.2556" stroke="#1D1D1B" stroke-width="0.48" stroke-miterlimit="10" stroke-linecap="round" stroke-linejoin="round"/>
<path d="M24.6452 86.2045L26.7633 84.6081H26.81L28.9282 86.2045C28.9593 86.2279 28.9437 86.2902 28.9048 86.2902H24.6685C24.6296 86.2902 24.614 86.2279 24.6452 86.2045ZM29.3798 86.0176L27.0047 84.211V83.9384C27.0047 83.8995 27.0281 83.8684 27.067 83.8528C27.2539 83.7905 27.4174 83.6737 27.5265 83.5179C27.6433 83.3544 27.7056 83.1597 27.7056 82.9573C27.7056 82.7158 27.6043 82.49 27.433 82.3187C27.2617 82.1474 27.0359 82.0539 26.7945 82.0461C26.5453 82.0461 26.3117 82.1396 26.1325 82.3109C25.9534 82.4822 25.86 82.7236 25.86 82.9728C25.86 83.0974 25.9612 83.1987 26.0858 83.1987C26.2104 83.1987 26.3039 83.0974 26.3039 82.9728C26.3039 82.8404 26.3584 82.7236 26.444 82.6302C26.5375 82.5367 26.6621 82.49 26.7867 82.49C27.0437 82.49 27.2539 82.7081 27.2617 82.965C27.2617 83.1753 27.1293 83.3622 26.9268 83.4323C26.7088 83.5024 26.5531 83.7048 26.5531 83.9384V84.211L24.1779 86.0176C24.0534 86.1111 23.9988 86.2902 24.0378 86.4537C24.0767 86.6173 24.2091 86.7341 24.3571 86.7341H29.1851C29.3331 86.7341 29.4655 86.625 29.5044 86.4537C29.5667 86.2902 29.5122 86.1111 29.3798 86.0176Z" stroke="#F5F7F7" stroke-width="2.64" stroke-linecap="round" stroke-linejoin="round"/>
<path fill-rule="evenodd" clip-rule="evenodd" d="M26.7867 84.6081L26.8101 84.6159L28.9282 86.2123C28.9593 86.2357 28.9438 86.298 28.9048 86.298H26.7867V86.7419H29.2007C29.3487 86.7419 29.4811 86.6328 29.52 86.4615C29.559 86.298 29.5045 86.1189 29.3799 86.0254L27.0047 84.2188V83.9462C27.0047 83.9073 27.0281 83.8761 27.067 83.8606C27.2539 83.7983 27.4175 83.6815 27.5265 83.5257C27.6433 83.3622 27.7056 83.1675 27.7056 82.965C27.7056 82.7236 27.6044 82.4978 27.433 82.3265C27.2617 82.1552 27.0359 82.0617 26.7945 82.0539H26.7789V82.4978H26.7867C27.0437 82.4978 27.2539 82.7158 27.2617 82.9728C27.2617 83.1831 27.1293 83.37 26.9269 83.4401L26.7789 83.5179V84.6081H26.7867ZM24.6452 86.2045L26.7633 84.6081L26.7867 84.6004V83.5024C26.6465 83.6036 26.5609 83.7593 26.5609 83.9307V84.2032L24.1858 86.0099C24.0612 86.1033 24.0067 86.2824 24.0456 86.4459C24.0845 86.6095 24.2169 86.7263 24.3649 86.7263H26.7789V86.2824H24.6686C24.6296 86.2902 24.6141 86.2279 24.6452 86.2045ZM26.7867 82.0461V82.49C26.6621 82.49 26.5375 82.5367 26.4518 82.6302C26.3584 82.7236 26.3117 82.8404 26.3117 82.9728C26.3117 83.0974 26.2104 83.1987 26.0936 83.1987C25.969 83.1987 25.8678 83.0974 25.8678 82.9728C25.8678 82.7236 25.969 82.49 26.1404 82.3109C26.3117 82.1396 26.5453 82.0461 26.7867 82.0461Z" fill="#1D1D1B"/>
<path d="M67.1869 86.2045L69.3051 84.6081H69.3518L71.4699 86.2045C71.5011 86.2279 71.4855 86.2902 71.4466 86.2902H67.2025C67.1714 86.2902 67.1558 86.2279 67.1869 86.2045ZM71.9216 86.0176L69.5465 84.211V83.9384C69.5465 83.8995 69.5698 83.8684 69.6088 83.8528C69.7957 83.7905 69.9592 83.6737 70.0682 83.5179C70.185 83.3544 70.2473 83.1597 70.2473 82.9573C70.2473 82.7158 70.1461 82.49 69.9748 82.3187C69.8034 82.1474 69.5776 82.0539 69.3362 82.0461C69.087 82.0461 68.8534 82.1396 68.6743 82.3109C68.4952 82.4822 68.4017 82.7236 68.4017 82.9728C68.4017 83.0974 68.503 83.1987 68.6276 83.1987C68.7522 83.1987 68.8456 83.0974 68.8456 82.9728C68.8456 82.8404 68.9001 82.7236 68.9858 82.6302C69.0792 82.5367 69.2038 82.49 69.3284 82.49C69.5854 82.49 69.7957 82.7081 69.8035 82.965C69.8035 83.1753 69.6711 83.3622 69.4686 83.4323C69.2506 83.5024 69.0948 83.7048 69.0948 83.9384V84.211L66.7197 86.0176C66.5951 86.1111 66.5406 86.2902 66.5795 86.4537C66.6185 86.6173 66.7508 86.7341 66.8988 86.7341H71.7269C71.8749 86.7341 72.0072 86.625 72.0462 86.4537C72.1007 86.2902 72.0462 86.1111 71.9216 86.0176Z" stroke="#F5F7F7" stroke-width="2.64" stroke-linecap="round" stroke-linejoin="round"/>
<path fill-rule="evenodd" clip-rule="evenodd" d="M69.3285 84.6081L69.3518 84.6159L71.4699 86.2123C71.5011 86.2357 71.4855 86.298 71.4466 86.298H69.3285V86.7419H71.7425C71.8905 86.7419 72.0228 86.6328 72.0618 86.4615C72.1007 86.298 72.0462 86.1189 71.9216 86.0254L69.5465 84.2188V83.9462C69.5465 83.9073 69.5699 83.8761 69.6088 83.8606C69.7957 83.7983 69.9592 83.6815 70.0682 83.5257C70.185 83.3622 70.2473 83.1675 70.2473 82.965C70.2473 82.7236 70.1461 82.4978 69.9748 82.3265C69.8035 82.1552 69.5776 82.0617 69.3362 82.0539H69.3207V82.4978H69.3285C69.5854 82.4978 69.7957 82.7158 69.8035 82.9728C69.8035 83.1831 69.6711 83.37 69.4686 83.4401L69.3207 83.5179V84.6081H69.3285ZM67.187 86.2045L69.3051 84.6081L69.3285 84.6004V83.5024C69.1883 83.6036 69.1026 83.7593 69.1026 83.9307V84.2032L66.7275 86.0099C66.6029 86.1033 66.5484 86.2824 66.5873 86.4459C66.6263 86.6095 66.7587 86.7263 66.9066 86.7263H69.3207V86.2824H67.2025C67.1714 86.2902 67.1558 86.2279 67.187 86.2045ZM69.3285 82.0461V82.49C69.2039 82.49 69.0793 82.5367 68.9936 82.6302C68.9002 82.7236 68.8534 82.8404 68.8534 82.9728C68.8534 83.0974 68.7522 83.1987 68.6354 83.1987C68.5186 83.1987 68.4096 83.0974 68.4096 82.9728C68.4096 82.7236 68.5108 82.49 68.6821 82.3109C68.8534 82.1396 69.0793 82.0461 69.3285 82.0461Z" fill="#1D1D1B"/>
<path fill-rule="evenodd" clip-rule="evenodd" d="M70.9949 174.59H75.3012V191.153H70.9949V174.59Z" fill="#F5F7F7" stroke="#1D1D1B" stroke-width="0.48" stroke-miterlimit="10" stroke-linecap="round" stroke-linejoin="round"/>
<path fill-rule="evenodd" clip-rule="evenodd" d="M88.5786 178.032H154.794V191.278H88.5786V178.032Z" fill="#F5F7F7" stroke="#1D1D1B" stroke-width="0.48" stroke-miterlimit="10" stroke-linecap="round" stroke-linejoin="round"/>
<path d="M88.6252 167.215H101.871V191.278H88.6252V167.215Z" stroke="#1D1D1B" stroke-width="0.48" stroke-miterlimit="10" stroke-linecap="round" stroke-linejoin="round"/>
<path fill-rule="evenodd" clip-rule="evenodd" d="M128.987 179.504H141.423V189.269C141.423 189.487 141.329 189.58 141.111 189.58H129.298C129.08 189.58 128.987 189.487 128.987 189.269V179.504Z" fill="#F5F7F7" stroke="#1D1D1B" stroke-width="0.48" stroke-miterlimit="10" stroke-linecap="round" stroke-linejoin="round"/>
<path d="M138.105 183.592C137.607 183.53 137.405 183.319 137.373 182.813M139.04 182.821C139.009 183.319 138.806 183.537 138.308 183.6M137.373 182.72C137.405 182.221 137.607 182.003 138.105 181.941M138.308 181.941C138.806 182.003 139.009 182.214 139.04 182.72M138.105 188.21C137.319 188.147 137 187.813 136.969 187.026M139.445 187.026C139.414 187.813 139.094 188.147 138.308 188.21M138.308 185.733C139.094 185.796 139.414 186.13 139.445 186.925M132.304 183.592C132.802 183.53 133.005 183.319 133.036 182.813M131.377 182.821C131.408 183.319 131.611 183.537 132.109 183.6M133.036 182.72C133.005 182.221 132.802 182.003 132.304 181.941M132.109 181.941C131.611 182.003 131.408 182.214 131.377 182.72M132.304 188.21C133.09 188.147 133.41 187.813 133.441 187.026M130.965 187.026C130.996 187.813 131.315 188.147 132.101 188.21M133.449 186.925C133.418 186.138 133.098 185.803 132.304 185.741M132.109 185.733C131.323 185.796 130.996 186.13 130.972 186.925M132.187 179.504V179.932H138.222V179.504M128.987 180.718H141.423M136.969 186.925C137 186.138 137.319 185.803 138.105 185.741" stroke="#1D1D1B" stroke-width="0.48" stroke-miterlimit="10" stroke-linecap="round" stroke-linejoin="round"/>
<path fill-rule="evenodd" clip-rule="evenodd" d="M88.5786 167.262H101.794V178.086H88.5786V167.262Z" fill="#F5F7F7" stroke="#1D1D1B" stroke-width="0.48" stroke-miterlimit="10" stroke-linecap="round" stroke-linejoin="round"/>
<path d="M90.9304 172.417V167.262H101.794V178.078H90.9304V172.923" stroke="#1D1D1B" stroke-width="0.48" stroke-miterlimit="10" stroke-linecap="round" stroke-linejoin="round"/>
<path d="M91.6545 172.44V168.508C91.6545 168.313 91.7246 168.189 91.8881 168.134C91.966 168.103 92.075 168.087 92.2074 168.087H99.9012C100.088 168.087 100.22 168.119 100.314 168.181C100.407 168.251 100.454 168.352 100.454 168.508V176.832C100.454 176.988 100.407 177.089 100.314 177.16C100.22 177.222 100.088 177.253 99.9012 177.253H92.2074C92.075 177.253 91.9738 177.237 91.8881 177.206C91.7246 177.152 91.6545 177.027 91.6545 176.832V172.9M93.0562 172.417C93.1263 172.168 93.3054 171.965 93.5312 171.856C93.648 171.802 93.7804 171.763 93.9206 171.763M93.9284 171.763C94.1776 171.763 94.3956 171.856 94.5514 172.012C94.8629 172.308 94.9485 172.814 94.6526 173.211L94.5514 173.328C94.271 173.601 93.8583 173.64 93.539 173.484C93.321 173.383 93.1419 173.188 93.064 172.923M94.1542 172.923H90.4864C90.2294 173.375 89.5364 173.188 89.5364 172.666C89.5364 172.145 90.2294 171.958 90.4864 172.409H94.1542" stroke="#1D1D1B" stroke-width="0.48" stroke-miterlimit="10" stroke-linecap="round" stroke-linejoin="round"/>
<path fill-rule="evenodd" clip-rule="evenodd" d="M94.1543 172.417H94.2945V172.923H94.1543V172.417Z" fill="#F5F7F7" stroke="#1D1D1B" stroke-width="0.48" stroke-miterlimit="10" stroke-linecap="round" stroke-linejoin="round"/>
<path fill-rule="evenodd" clip-rule="evenodd" d="M129.5 148.246V136.643H128.083C127.748 136.643 127.476 136.915 127.476 137.25V147.638C127.476 147.973 127.748 148.246 128.083 148.246H129.5ZM125.576 147.755V137.133C125.576 136.868 125.794 136.65 126.058 136.65H126.72C126.985 136.65 127.203 136.868 127.203 137.133V147.763C127.203 148.028 126.985 148.246 126.72 148.246H126.058C125.794 148.246 125.576 148.028 125.576 147.755Z" fill="#F5F7F7" stroke="#1D1D1B" stroke-width="0.48" stroke-miterlimit="10" stroke-linecap="round" stroke-linejoin="round"/>
<path d="M125.319 148.214C125.508 148.214 125.661 148.061 125.661 147.872C125.661 147.683 125.508 147.529 125.319 147.529C125.129 147.529 124.976 147.683 124.976 147.872C124.976 148.061 125.129 148.214 125.319 148.214Z" fill="#F5F7F7" stroke="#1D1D1B" stroke-width="0.48" stroke-miterlimit="10" stroke-linecap="round" stroke-linejoin="round"/>
<path d="M125.319 137.312C125.508 137.312 125.661 137.159 125.661 136.97C125.661 136.78 125.508 136.627 125.319 136.627C125.129 136.627 124.976 136.78 124.976 136.97C124.976 137.159 125.129 137.312 125.319 137.312Z" fill="#F5F7F7" stroke="#1D1D1B" stroke-width="0.48" stroke-miterlimit="10" stroke-linecap="round" stroke-linejoin="round"/>
<path fill-rule="evenodd" clip-rule="evenodd" d="M133.129 151.578H144.732V152.996C144.732 153.331 144.46 153.603 144.125 153.603H133.737C133.402 153.603 133.129 153.331 133.129 152.996V151.578ZM133.612 155.503H144.242C144.507 155.503 144.725 155.285 144.725 155.02V154.359C144.725 154.094 144.507 153.876 144.242 153.876H133.612C133.347 153.876 133.129 154.094 133.129 154.359V155.02C133.129 155.285 133.347 155.503 133.612 155.503Z" fill="#F5F7F7" stroke="#1D1D1B" stroke-width="0.48" stroke-miterlimit="10" stroke-linecap="round" stroke-linejoin="round"/>
<path d="M133.495 156.103C133.684 156.103 133.838 155.949 133.838 155.76C133.838 155.571 133.684 155.418 133.495 155.418C133.306 155.418 133.153 155.571 133.153 155.76C133.153 155.949 133.306 156.103 133.495 156.103Z" fill="#F5F7F7" stroke="#1D1D1B" stroke-width="0.48" stroke-miterlimit="10" stroke-linecap="round" stroke-linejoin="round"/>
<path d="M144.405 156.103C144.594 156.103 144.748 155.949 144.748 155.76C144.748 155.571 144.594 155.418 144.405 155.418C144.216 155.418 144.062 155.571 144.062 155.76C144.062 155.949 144.216 156.103 144.405 156.103Z" fill="#F5F7F7" stroke="#1D1D1B" stroke-width="0.48" stroke-miterlimit="10" stroke-linecap="round" stroke-linejoin="round"/>
<path fill-rule="evenodd" clip-rule="evenodd" d="M129.5 131.737H149.366V151.602H129.5V131.737Z" fill="#F5F7F7" stroke="#1D1D1B" stroke-width="0.48" stroke-miterlimit="10" stroke-linecap="round" stroke-linejoin="round"/>
<path fill-rule="evenodd" clip-rule="evenodd" d="M101.793 178.04H115.04V191.286H101.793V178.04Z" fill="#F5F7F7" stroke="#1D1D1B" stroke-width="0.48" stroke-miterlimit="10" stroke-linecap="round" stroke-linejoin="round"/>
<path d="M108.413 189.689C111.191 189.689 113.443 187.437 113.443 184.659C113.443 181.88 111.191 179.628 108.413 179.628C105.634 179.628 103.382 181.88 103.382 184.659C103.382 187.437 105.634 189.689 108.413 189.689Z" fill="#F5F7F7" stroke="#1D1D1B" stroke-width="0.48" stroke-miterlimit="10" stroke-linecap="round" stroke-linejoin="round"/>
<path d="M115.04 191.286L101.793 178.04M115.04 178.063L101.848 191.255" stroke="#1D1D1B" stroke-width="0.48" stroke-miterlimit="10" stroke-linecap="round" stroke-linejoin="round"/>
<path fill-rule="evenodd" clip-rule="evenodd" d="M32.4014 174.621H71.0339V191.177H32.4014V174.621Z" fill="#F5F7F7" stroke="#1D1D1B" stroke-width="0.48" stroke-miterlimit="10" stroke-linecap="round" stroke-linejoin="round"/>
<path d="M36.0068 183.125V189.129C36.0068 189.58 36.2327 189.767 36.7778 189.767H68.542C69.0871 189.767 69.3129 189.58 69.3129 189.129V176.669C69.3129 176.217 69.0871 176.03 68.542 176.03H36.7778C36.2327 176.03 36.0068 176.217 36.0068 176.669V182.673M36.6065 183.101V188.544C36.6065 188.957 36.8245 189.121 37.3462 189.121H67.7632C68.285 189.121 68.503 188.949 68.503 188.544V177.245C68.503 176.832 68.285 176.669 67.7632 176.669H37.3462C36.8245 176.669 36.6065 176.84 36.6065 177.245V182.688" stroke="#1D1D1B" stroke-width="0.48" stroke-miterlimit="10" stroke-linecap="round" stroke-linejoin="round"/>
<path d="M38.8882 184.347C39.7182 184.347 40.3911 183.65 40.3911 182.79C40.3911 181.929 39.7182 181.232 38.8882 181.232C38.0581 181.232 37.3853 181.929 37.3853 182.79C37.3853 183.65 38.0581 184.347 38.8882 184.347Z" stroke="#1D1D1B" stroke-width="0.48" stroke-miterlimit="22.926"/>
<path fill-rule="evenodd" clip-rule="evenodd" d="M38.8881 182.455H39.075V183.125H38.8881V182.455ZM38.8881 182.455V183.125H34.2158C33.8887 183.724 33.001 183.475 33.001 182.79C33.001 182.104 33.8809 181.855 34.2158 182.455H38.8881Z" fill="#F5F7F7"/>
<path d="M38.8881 182.455H39.075V183.125H38.8881M38.8881 182.455V183.125M38.8881 182.455H34.2158C33.8809 181.855 33.001 182.104 33.001 182.79C33.001 183.475 33.8887 183.724 34.2158 183.125H38.8881" stroke="#1D1D1B" stroke-width="0.48" stroke-miterlimit="10" stroke-linecap="round" stroke-linejoin="round"/>
<path fill-rule="evenodd" clip-rule="evenodd" d="M33.2579 185.422C33.2813 185.5 33.2891 185.585 33.2891 185.663C33.2891 185.741 33.2813 185.827 33.2579 185.897H32.8842C32.9153 185.827 32.9309 185.741 32.9309 185.663L32.9153 185.546L32.8842 185.414H33.2579V185.422ZM33.2579 185.422C33.2813 185.5 33.2891 185.585 33.2891 185.663C33.2891 185.741 33.2813 185.827 33.2579 185.897H32.8842C32.9153 185.827 32.9309 185.741 32.9309 185.663L32.9153 185.546L32.8842 185.414H33.2579V185.422ZM32.9231 185.554L32.9387 185.671C32.9387 185.749 32.9231 185.834 32.8919 185.905H32.4013V185.422H32.8919L32.9231 185.554ZM33.2579 185.422C33.1645 185.009 32.8219 184.698 32.3936 184.666V186.652C32.8219 186.621 33.1645 186.31 33.2579 185.897V185.422ZM34.792 185.905H32.9387L32.962 185.671L32.9387 185.43H34.792V185.905ZM33.2579 179.893C33.2813 179.971 33.2891 180.056 33.2891 180.134C33.2891 180.212 33.2813 180.298 33.2579 180.368H32.8842C32.9153 180.298 32.9309 180.212 32.9309 180.134L32.9153 180.017L32.8842 179.885H33.2579V179.893ZM33.2579 179.893C33.2813 179.971 33.2891 180.056 33.2891 180.134C33.2891 180.212 33.2813 180.298 33.2579 180.368H32.8842C32.9153 180.298 32.9309 180.212 32.9309 180.134L32.9153 180.017L32.8842 179.885H33.2579V179.893ZM32.9231 180.017L32.9387 180.134C32.9387 180.212 32.9231 180.298 32.8919 180.368H32.4013V179.885H32.8919L32.9231 180.017ZM33.2579 179.893C33.1645 179.48 32.8219 179.169 32.3936 179.137V181.123C32.8219 181.092 33.1645 180.781 33.2579 180.368V179.893ZM34.792 180.368H32.9387L32.962 180.134L32.9387 179.893H34.792V180.368Z" fill="#F5F7F7"/>
<path d="M33.2579 185.422C33.2813 185.5 33.2891 185.585 33.2891 185.663C33.2891 185.741 33.2813 185.827 33.2579 185.897M33.2579 185.422V185.414H32.8842L32.9153 185.546L32.9309 185.663C32.9309 185.741 32.9153 185.827 32.8842 185.897H33.2579M33.2579 185.422C33.1645 185.009 32.8219 184.698 32.3936 184.666V186.652C32.8219 186.621 33.1645 186.31 33.2579 185.897M33.2579 185.422V185.897M33.2579 179.893C33.2813 179.971 33.2891 180.056 33.2891 180.134C33.2891 180.212 33.2813 180.298 33.2579 180.368M33.2579 179.893V179.885H32.8842L32.9153 180.017L32.9309 180.134C32.9309 180.212 32.9153 180.298 32.8842 180.368H33.2579M33.2579 179.893C33.1645 179.48 32.8219 179.169 32.3936 179.137V181.123C32.8219 181.092 33.1645 180.781 33.2579 180.368M33.2579 179.893V180.368M32.9231 185.554L32.9387 185.671C32.9387 185.749 32.9231 185.834 32.8919 185.905H32.4013V185.422H32.8919L32.9231 185.554ZM34.792 185.905H32.9387L32.962 185.671L32.9387 185.43H34.792V185.905ZM32.9231 180.017L32.9387 180.134C32.9387 180.212 32.9231 180.298 32.8919 180.368H32.4013V179.885H32.8919L32.9231 180.017ZM34.792 180.368H32.9387L32.962 180.134L32.9387 179.893H34.792V180.368Z" stroke="#1D1D1B" stroke-width="0.48" stroke-miterlimit="10" stroke-linecap="round" stroke-linejoin="round"/>
<path fill-rule="evenodd" clip-rule="evenodd" d="M32.4014 157.917H42.6883V171.163H32.4014V157.917Z" fill="#F5F7F7" stroke="#1D1D1B" stroke-width="0.48" stroke-miterlimit="10" stroke-linecap="round" stroke-linejoin="round"/>
<path fill-rule="evenodd" clip-rule="evenodd" d="M33.6784 168.376V167.005L33.803 167.021L33.9276 167.005V168.376H33.6784ZM33.6784 168.376V167.005L33.803 167.021L33.9276 167.005V168.376H33.6784ZM33.9198 167.005L33.7952 167.021L33.6784 167.005V166.81L33.7952 166.834L33.8575 166.826L33.9198 166.81V167.005ZM33.9198 167.005L33.7952 167.021L33.6784 167.005V166.81L33.7952 166.834L33.8575 166.826L33.9198 166.81V167.005ZM33.8575 166.826L33.7952 166.834L33.6706 166.81V166.514H33.9198V166.81L33.8575 166.826ZM33.9198 162.574H33.6706V162.278L33.7874 162.255L33.8497 162.263L33.912 162.286V162.574H33.9198ZM33.9198 162.574H33.6706V162.278L33.7874 162.255L33.8497 162.263L33.912 162.286V162.574H33.9198ZM33.9198 162.076V162.278L33.8575 162.255L33.7952 162.247L33.6784 162.27V162.076L33.7952 162.06L33.9198 162.076ZM33.9198 161.811V162.076L33.7952 162.06L33.6784 162.076V160.705H33.9276V161.811H33.9198ZM33.9198 161.811V162.076L33.7952 162.06L33.6784 162.076V160.705H33.9276V161.811H33.9198ZM33.9198 167.005C34.1457 166.95 34.3092 166.756 34.3092 166.507C34.3092 166.226 34.0834 165.993 33.7952 165.993C33.5149 165.993 33.2891 166.218 33.2891 166.507C33.2891 166.748 33.4526 166.95 33.6784 167.005H33.9198Z" fill="#F5F7F7"/>
<path d="M33.6784 167.005V168.376H33.9276V167.005L33.803 167.021L33.6784 167.005ZM33.6784 167.005L33.7952 167.021L33.9198 167.005M33.6784 167.005V166.81L33.7952 166.834M33.6784 167.005C33.4526 166.95 33.2891 166.748 33.2891 166.507C33.2891 166.218 33.5149 165.993 33.7952 165.993C34.0834 165.993 34.3092 166.226 34.3092 166.507C34.3092 166.756 34.1457 166.95 33.9198 167.005M33.6784 167.005H33.9198M33.9198 167.005V166.81M33.7952 166.834L33.8575 166.826L33.9198 166.81M33.7952 166.834L33.6706 166.81V166.514H33.9198V166.81M33.9198 162.076V162.278L33.8575 162.255L33.7952 162.247L33.6784 162.27V162.076M33.9198 162.076L33.7952 162.06L33.6784 162.076M33.9198 162.076V161.811H33.9276V160.705H33.6784V162.076M33.9198 162.574H33.6706V162.278L33.7874 162.255L33.8497 162.263L33.912 162.286V162.574H33.9198Z" stroke="#1D1D1B" stroke-width="0.24" stroke-miterlimit="10" stroke-linecap="round" stroke-linejoin="round"/>
<path fill-rule="evenodd" clip-rule="evenodd" d="M35.9133 164.817C36.0457 165.12 36.3728 165.292 36.6998 165.222C37.0269 165.152 37.2605 164.863 37.2683 164.529C37.2683 164.202 37.0269 163.913 36.7076 163.843C36.3806 163.781 36.0535 163.945 35.9211 164.248V164.817H35.9133Z" fill="#F5F7F7" stroke="#1D1D1B" stroke-width="0.48" stroke-miterlimit="10" stroke-linecap="round" stroke-linejoin="round"/>
<path fill-rule="evenodd" clip-rule="evenodd" d="M34.0444 164.739C33.8497 164.972 33.476 164.832 33.476 164.529C33.476 164.225 33.8497 164.092 34.0444 164.326V164.739ZM34.2703 164.739C34.169 164.957 33.9354 165.081 33.694 165.035C33.4604 164.988 33.2891 164.778 33.2891 164.529C33.2891 164.287 33.4526 164.077 33.694 164.03C33.9276 163.983 34.169 164.1 34.2703 164.326V164.739ZM34.0444 164.739H33.5694V164.334H36.7855V164.739H34.2703H34.0444Z" fill="#F5F7F7"/>
<path d="M34.0444 164.739C33.8497 164.972 33.476 164.832 33.476 164.529C33.476 164.225 33.8497 164.092 34.0444 164.326V164.739ZM34.0444 164.739H33.5694V164.334H36.7855V164.739H34.2703M34.0444 164.739H34.2703M34.2703 164.739C34.169 164.957 33.9354 165.081 33.694 165.035C33.4604 164.988 33.2891 164.778 33.2891 164.529C33.2891 164.287 33.4526 164.077 33.694 164.03C33.9276 163.983 34.169 164.1 34.2703 164.326V164.739Z" stroke="#1D1D1B" stroke-width="0.24" stroke-miterlimit="10" stroke-linecap="round" stroke-linejoin="round"/>
<path d="M34.9011 164.334V160.557C34.9011 160.285 35.0179 160.176 35.2827 160.176H41.1932C41.4658 160.176 41.5748 160.292 41.5748 160.557V168.516C41.5748 168.788 41.458 168.897 41.1932 168.897H35.2827C35.0101 168.897 34.9011 168.788 34.9011 168.516V164.739" stroke="#1D1D1B" stroke-width="0.48" stroke-miterlimit="10" stroke-linecap="round" stroke-linejoin="round"/>
<path fill-rule="evenodd" clip-rule="evenodd" d="M33.6784 167.005V168.376H33.9198V166.507H33.6784V166.81V167.005ZM33.6784 167.005V168.376H33.9198V166.507H33.6784V166.81V167.005ZM33.9198 162.076C34.1457 162.13 34.3092 162.325 34.3092 162.574C34.3092 162.854 34.0834 163.088 33.7952 163.088C33.5149 163.088 33.2891 162.862 33.2891 162.574C33.2891 162.333 33.4526 162.13 33.6784 162.076H33.9198ZM33.6784 162.076V160.705H33.9198V162.574H33.6784V162.278V162.076ZM33.6784 162.076V160.705H33.9198V162.574H33.6784V162.278V162.076ZM34.0444 164.739H33.5694V164.334H36.7855V164.739H34.2703H34.0444Z" fill="#F5F7F7"/>
<path d="M33.6784 162.076C33.4526 162.13 33.2891 162.333 33.2891 162.574C33.2891 162.862 33.5149 163.088 33.7952 163.088C34.0834 163.088 34.3092 162.854 34.3092 162.574C34.3092 162.325 34.1457 162.13 33.9198 162.076H33.6784ZM33.6784 162.076V160.705H33.9198V162.574H33.6784V162.278V162.076ZM33.6784 167.005V168.376H33.9198V166.507H33.6784V166.81V167.005ZM34.0444 164.739H33.5694V164.334H36.7855V164.739H34.2703H34.0444Z" stroke="#1D1D1B" stroke-width="0.24" stroke-miterlimit="10" stroke-linecap="round" stroke-linejoin="round"/>
<path fill-rule="evenodd" clip-rule="evenodd" d="M88.6021 153.969H101.848V167.215H88.6021V153.969ZM100.462 153.969H101.708V167.215H100.462V153.969ZM101.708 166.67V162.154C101.973 162.154 102.152 162.231 102.152 162.387V166.437C102.152 166.592 101.973 166.67 101.708 166.67Z" fill="#F5F7F7" stroke="#1D1D1B" stroke-width="0.48" stroke-miterlimit="10" stroke-linecap="round" stroke-linejoin="round"/>
<path d="M96.4049 157.769H94.4114M96.109 158.47L94.7073 157.061M94.7073 158.47L96.109 157.061M95.377 158.782V156.695M96.4049 160.534H94.4114M96.109 161.242L94.7073 159.833M94.7073 161.242L96.109 159.833M95.377 161.554V159.459M96.4049 163.361H94.4114M96.109 164.061L94.7073 162.652M94.7073 164.061L96.109 162.652M95.377 164.373V162.286" stroke="#1D1D1B" stroke-width="0.274" stroke-miterlimit="22.926" stroke-linecap="round" stroke-linejoin="round"/>
<path d="M124.968 177.86V177.611C124.961 177.572 124.929 177.541 124.89 177.533H115.117C115.078 177.541 115.047 177.572 115.04 177.611V177.821" stroke="#1D1D1B" stroke-width="0.48" stroke-miterlimit="10" stroke-linecap="round" stroke-linejoin="round"/>
<path fill-rule="evenodd" clip-rule="evenodd" d="M115.04 178.04H124.976V191.286H115.04V178.04Z" fill="#F5F7F7" stroke="#1D1D1B" stroke-width="0.48" stroke-miterlimit="10" stroke-linecap="round" stroke-linejoin="round"/>
<path d="M119.642 185.198V185.188" stroke="#1D1D1B" stroke-width="0.216" stroke-miterlimit="22.926"/>
<path d="M122.453 189.253C122.881 188.661 122.912 187.867 122.539 187.244C122.157 186.621 121.441 186.278 120.716 186.38C120.304 186.442 119.938 186.637 119.657 186.925M123.154 189.253C123.551 188.443 123.465 187.478 122.936 186.753C122.406 186.029 121.511 185.655 120.623 185.788C120.093 185.866 119.618 186.115 119.26 186.473" stroke="#1D1D1B" stroke-width="0.368" stroke-miterlimit="22.926" stroke-linejoin="bevel"/>
<path d="M118.357 186.411L118.365 184.83H117.352H119.385M117.313 189.269H119.432C119.439 189.16 119.455 189.035 119.478 188.91C119.548 188.342 119.642 187.602 119.509 187.267L119.478 187.197L119.463 187.174L119.439 187.135L119.315 186.971L119.159 186.831L119.136 186.816C119.034 186.746 118.925 186.699 118.809 186.66C118.684 186.621 118.559 186.598 118.427 186.598H118.334C118.201 186.605 118.077 186.621 117.952 186.66C117.835 186.699 117.726 186.746 117.633 186.808L117.625 186.816L117.602 186.831L117.446 186.971L117.321 187.135L117.298 187.174H117.29L117.274 187.197L117.243 187.267C117.111 187.61 117.204 188.35 117.274 188.918L117.313 189.269Z" stroke="#1D1D1B" stroke-width="0.48" stroke-miterlimit="22.926" stroke-linecap="round" stroke-linejoin="round"/>
<path fill-rule="evenodd" clip-rule="evenodd" d="M121.581 183.319L122.274 181.941L122.967 183.319C123.13 183.646 123.045 184.043 122.764 184.269C122.476 184.495 122.071 184.495 121.791 184.269C121.503 184.043 121.417 183.646 121.581 183.319Z" fill="#F5F7F7" stroke="#1D1D1B" stroke-width="0.48" stroke-miterlimit="10" stroke-linecap="round" stroke-linejoin="round"/>
<path d="M119.463 187.166C119.79 186.683 120.343 186.364 120.974 186.364C121.986 186.364 122.804 187.182 122.804 188.194C122.804 188.599 122.671 188.973 122.453 189.277M119.058 186.738C119.494 186.162 120.187 185.788 120.974 185.788C122.297 185.788 123.38 186.862 123.38 188.194C123.38 188.583 123.286 188.942 123.131 189.269M124.057 189.277H116.052" stroke="#1D1D1B" stroke-width="0.48" stroke-miterlimit="22.926" stroke-linecap="round" stroke-linejoin="round"/>
<path fill-rule="evenodd" clip-rule="evenodd" d="M154.801 182.05H207.023V191.254H154.801V182.05Z" fill="#F5F7F7" stroke="#1D1D1B" stroke-width="0.48" stroke-miterlimit="10" stroke-linecap="round" stroke-linejoin="round"/>
<path fill-rule="evenodd" clip-rule="evenodd" d="M170.205 188.194V189.502L177.431 190.811H191.877L198.846 189.502H199.103V188.194H170.205Z" fill="#F5F7F7"/>
<path d="M199.103 189.502V188.194H170.205V189.502M199.103 189.502L191.877 190.811H177.431L170.205 189.502M199.103 189.502H170.205M197.18 188.716H195.248V189.043H197.18V188.716ZM194.773 188.716H192.842V189.043H194.773V188.716ZM192.359 188.716H191.401V189.043H192.359V188.716Z" stroke="#1D1D1B" stroke-width="0.48" stroke-miterlimit="10" stroke-linecap="round" stroke-linejoin="round"/>
<path fill-rule="evenodd" clip-rule="evenodd" d="M166.326 134.33V153.806H162.581V131.737H166.326V134.33ZM202.981 134.33H166.326V131.737H202.981V134.33ZM206.727 153.806H202.981V131.737H206.727V153.806ZM202.981 134.33H184.65V136.043H202.981V135.365V134.33ZM166.326 136.043H184.658V138.644H166.326V136.043ZM166.326 138.644H184.658V153.806H166.326V138.644ZM184.65 138.644H202.981V153.806H184.65V138.644ZM202.981 136.043H184.65V138.644H202.981V137.616V136.043ZM184.58 134.33H166.256V136.043H184.58V135.365V134.33Z" fill="#F5F7F7"/>
<path d="M166.326 134.33V153.806M166.326 134.33V131.737M166.326 134.33H202.981M166.326 153.806H162.581V131.737H166.326M166.326 153.806H184.658V138.644M166.326 153.806V138.644M166.326 131.737H202.981M202.981 134.33V131.737M202.981 134.33H184.65V136.043M202.981 134.33V135.365V136.043M202.981 131.737V153.806M202.981 131.737H206.727V153.806H202.981M202.981 153.806V138.644M202.981 153.806H184.65V138.644M184.65 136.043H202.981M184.65 136.043V138.644M202.981 136.043V137.616V138.644M184.658 138.644V136.043H166.326V138.644M184.658 138.644H166.326M184.65 138.644H202.981M184.58 134.33H166.256V136.043H184.58V135.365V134.33Z" stroke="#1D1D1B" stroke-width="0.48" stroke-miterlimit="10" stroke-linecap="round" stroke-linejoin="round"/>
<path d="M184.385 174.761C189.262 174.761 193.216 170.807 193.216 165.93C193.216 161.053 189.262 157.1 184.385 157.1C179.508 157.1 175.554 161.053 175.554 165.93C175.554 170.807 179.508 174.761 184.385 174.761Z" fill="#F5F7F7" stroke="#1D1D1B" stroke-width="0.48" stroke-miterlimit="10" stroke-linecap="round" stroke-linejoin="round"/>
<path fill-rule="evenodd" clip-rule="evenodd" d="M211.469 129.447L220.689 102.682L219.739 102.363L207.661 98.1658L196.892 129.447H211.469ZM201.813 115.228L205.761 103.609L204.64 102.737C204.375 102.534 203.994 102.581 203.791 102.846L197.421 111.046C197.219 111.311 197.265 111.692 197.53 111.895L201.813 115.228ZM195.848 109.979L202.366 101.584C202.529 101.374 202.833 101.335 203.051 101.499L203.573 101.904C203.783 102.067 203.822 102.371 203.659 102.589L197.141 110.984C196.977 111.194 196.673 111.233 196.455 111.069L195.934 110.664C195.723 110.493 195.685 110.189 195.848 109.979Z" fill="#F5F7F7" stroke="#1D1D1B" stroke-width="0.48" stroke-miterlimit="10" stroke-linecap="round" stroke-linejoin="round"/>
<path d="M195.786 110.055C195.902 109.906 195.874 109.691 195.725 109.575C195.575 109.459 195.36 109.486 195.244 109.635C195.128 109.785 195.155 110 195.305 110.116C195.454 110.232 195.67 110.205 195.786 110.055Z" fill="#F5F7F7" stroke="#1D1D1B" stroke-width="0.48" stroke-miterlimit="10" stroke-linecap="round" stroke-linejoin="round"/>
<path d="M202.476 101.452C202.592 101.302 202.565 101.087 202.415 100.971C202.266 100.855 202.05 100.882 201.934 101.032C201.818 101.181 201.846 101.397 201.995 101.513C202.145 101.629 202.36 101.601 202.476 101.452Z" fill="#F5F7F7" stroke="#1D1D1B" stroke-width="0.48" stroke-miterlimit="10" stroke-linecap="round" stroke-linejoin="round"/>
<path d="M216.679 63.2244L214.561 69.2517M214.561 69.2517L225.813 101.257M214.561 69.2517L209.99 69.2439M225.813 101.257L214.561 133.263M225.813 101.257H221.226M214.561 133.263L225.805 165.268M214.561 133.263H210.013M225.805 165.268L214.74 196.768M225.805 165.268H221.188M209.99 69.2439L212.1 63.2244M209.99 69.2439L221.234 101.257L210.013 133.263M210.013 133.263L221.226 165.268L210.192 196.776M215.853 63.2244L213.735 69.2517L224.98 101.257L213.735 133.263L224.972 165.268L213.906 196.768M215.409 63.2244L213.291 69.2439L224.536 101.249L213.291 133.255L224.528 165.261L213.463 196.76M214.522 63.2244L212.404 69.2517L223.656 101.257L212.404 133.263L223.648 165.268L212.583 196.768" stroke="#1D1D1B" stroke-width="0.48" stroke-miterlimit="22.926" stroke-linecap="round" stroke-linejoin="round"/>
<path fill-rule="evenodd" clip-rule="evenodd" d="M216.663 63.2243L214.545 69.2439H209.974V69.2361L212.084 63.2166H216.663V63.2243ZM225.798 101.257L214.545 133.263H209.997L221.219 101.257H225.798ZM225.79 165.268L214.724 196.776H210.169L221.203 165.268H225.79Z" fill="#C1C1BA" stroke="#1D1D1B" stroke-width="0.48" stroke-miterlimit="22.926" stroke-linejoin="round"/>
<path fill-rule="evenodd" clip-rule="evenodd" d="M42.2134 93.8516H45.1959V93.4077H43.0466L44.277 92.2085C44.8221 91.6711 45.1725 91.1338 45.1725 90.5887C45.1725 89.8256 44.6508 89.335 43.8254 89.335C42.9765 89.335 42.447 89.8879 42.3769 90.76H42.8831C42.9688 90.0592 43.3036 89.771 43.8254 89.771C44.3315 89.771 44.6197 90.067 44.6197 90.5653C44.6197 91.017 44.386 91.4219 43.9811 91.858L42.2134 93.7192V93.8516ZM46.0447 94.6225L46.8079 93.322L46.3095 93.0806L45.7099 94.4434L46.0447 94.6225ZM48.8949 93.9139C49.7437 93.9139 50.4212 93.3376 50.4212 92.4031C50.4212 91.492 49.8371 90.9236 49.035 90.9236C48.6145 90.9236 48.303 91.0637 48.1239 91.2273V89.8723H50.1797V89.405H47.6723V91.7879H47.8747C48.1083 91.5232 48.412 91.3596 48.926 91.3596C49.4945 91.3596 49.8605 91.7724 49.8605 92.4031C49.8605 93.0728 49.4867 93.4778 48.8793 93.4778C48.2018 93.4778 48.0071 93.1429 47.9214 92.6523H47.4075C47.4776 93.3843 47.937 93.9139 48.8949 93.9139ZM86.5462 93.8516H89.5287V93.4077H87.3794L88.6098 92.2085C89.1549 91.6711 89.5054 91.1338 89.5054 90.5887C89.5054 89.8256 88.9836 89.335 88.1582 89.335C87.3093 89.335 86.7798 89.8879 86.7097 90.76H87.2159C87.3016 90.0592 87.6364 89.771 88.1582 89.771C88.6643 89.771 88.9525 90.067 88.9525 90.5653C88.9525 91.017 88.7188 91.4219 88.3139 91.858L86.5462 93.7192V93.8516ZM90.3775 94.6225L91.1407 93.322L90.6423 93.0806L90.0427 94.4434L90.3775 94.6225ZM93.2277 93.9139C94.0765 93.9139 94.754 93.3376 94.754 92.4031C94.754 91.492 94.1699 90.9236 93.3678 90.9236C92.9473 90.9236 92.6358 91.0637 92.4567 91.2273V89.8723H94.5126V89.405H92.0051V91.7879H92.2075C92.4411 91.5232 92.7448 91.3596 93.2588 91.3596C93.8273 91.3596 94.1933 91.7724 94.1933 92.4031C94.1933 93.0728 93.8195 93.4778 93.2121 93.4778C92.5346 93.4778 92.3399 93.1429 92.2543 92.6523H91.7403C91.8104 93.3843 92.2698 93.9139 93.2277 93.9139ZM144.421 104.434H144.966V99.9801H144.46L143.424 100.728V101.234L144.421 100.517V104.434ZM147.684 104.489C148.626 104.489 149.226 103.889 149.226 103.002C149.226 102.184 148.649 101.545 147.77 101.545C147.256 101.545 146.835 101.787 146.625 102.153C146.648 100.977 147.123 100.369 147.793 100.369C148.291 100.369 148.517 100.595 148.618 101.008H149.132C149.015 100.292 148.525 99.9334 147.832 99.9334C146.812 99.9334 146.087 100.767 146.087 102.371V102.48C146.08 103.578 146.469 104.489 147.684 104.489ZM147.684 104.068C147.084 104.068 146.656 103.679 146.656 102.955C146.656 102.379 147.076 101.974 147.676 101.974C148.284 101.974 148.665 102.394 148.665 103.033C148.665 103.656 148.268 104.068 147.684 104.068ZM149.966 105.198L150.729 103.897L150.23 103.663L149.631 105.026L149.966 105.198ZM153.384 104.434H153.914V103.5H154.529V103.056H153.914V99.9801H153.189L151.149 103.329V103.5H153.376V104.434H153.384ZM151.842 103.056L153.384 100.393V103.056H151.842ZM41.3724 127.383C42.2212 127.383 42.8987 126.807 42.8987 125.873C42.8987 124.962 42.3146 124.393 41.5125 124.393C41.092 124.393 40.7805 124.533 40.6014 124.697V123.342H42.6573V122.875H40.1498V125.258H40.3522C40.5859 124.993 40.8896 124.829 41.4035 124.829C41.972 124.829 42.338 125.242 42.338 125.873C42.338 126.542 41.9642 126.947 41.3568 126.947C40.6793 126.947 40.4846 126.613 40.399 126.122H39.885C39.9473 126.854 40.4145 127.383 41.3724 127.383ZM43.5917 128.092L44.3549 126.792L43.8487 126.55L43.2491 127.913L43.5917 128.092ZM46.4886 125.328C45.8812 125.328 45.4996 124.907 45.4996 124.269C45.4996 123.638 45.8968 123.225 46.4808 123.225C47.0804 123.225 47.5087 123.63 47.5087 124.362C47.5087 124.946 47.0804 125.328 46.4886 125.328ZM46.4029 127.376C47.4698 127.376 48.0772 126.558 48.0772 125.086V124.806C48.0772 123.521 47.5321 122.812 46.473 122.812C45.5308 122.812 44.9311 123.412 44.9311 124.3C44.9311 125.141 45.5308 125.756 46.3951 125.756C46.9091 125.756 47.3374 125.522 47.5477 125.164C47.5321 126.348 47.1194 126.932 46.4107 126.932C45.8345 126.932 45.5853 126.667 45.4918 126.231H44.9701C45.0869 126.947 45.5853 127.376 46.4029 127.376ZM46.4574 167.636H49.44V167.192H47.2907L48.5211 165.993C49.0662 165.455 49.4166 164.918 49.4166 164.373C49.4166 163.61 48.8949 163.119 48.0694 163.119C47.2206 163.119 46.6911 163.672 46.621 164.544H47.1271C47.2128 163.843 47.5477 163.555 48.0694 163.555C48.5756 163.555 48.8637 163.851 48.8637 164.35C48.8637 164.801 48.6301 165.206 48.2252 165.642L46.4574 167.503V167.636ZM50.2888 168.407L51.0519 167.098L50.5458 166.865L49.9461 168.228L50.2888 168.407ZM53.2168 167.69C53.9721 167.69 54.7509 167.246 54.7509 166.359C54.7509 165.782 54.416 165.401 53.8943 165.214C54.307 165.035 54.5795 164.723 54.5795 164.272C54.5795 163.571 53.9098 163.127 53.2168 163.127C52.5315 163.127 51.8462 163.563 51.8462 164.287C51.8462 164.723 52.0954 165.058 52.5159 165.222C52.0409 165.393 51.6749 165.775 51.6749 166.374C51.6827 167.254 52.4926 167.69 53.2168 167.69ZM53.2401 165.027C52.7885 165.027 52.3991 164.762 52.3991 164.295C52.3991 163.836 52.7573 163.555 53.2246 163.555C53.684 163.555 54.0422 163.851 54.0422 164.287C54.0344 164.754 53.7152 165.027 53.2401 165.027ZM53.2168 167.254C52.7028 167.254 52.2356 166.943 52.2356 166.359C52.2356 165.767 52.7028 165.463 53.2324 165.463C53.7619 165.463 54.198 165.759 54.198 166.351C54.198 166.935 53.7697 167.254 53.2168 167.254ZM158.243 167.636H158.781V163.181H158.275L157.247 163.929V164.435L158.243 163.719V167.636ZM161.872 167.636H162.402V166.701H163.017V166.257H162.402V163.181H161.678L159.637 166.53V166.701H161.864V167.636H161.872ZM160.33 166.257L161.872 163.594V166.257H160.33ZM163.741 168.407L164.504 167.098L164.006 166.865L163.406 168.228L163.741 168.407ZM166.599 167.69C167.541 167.69 168.141 167.091 168.141 166.203C168.141 165.385 167.565 164.747 166.685 164.747C166.171 164.747 165.75 164.988 165.54 165.354C165.563 164.178 166.038 163.571 166.708 163.571C167.207 163.571 167.432 163.797 167.534 164.209H168.048C167.931 163.493 167.44 163.135 166.747 163.135C165.727 163.135 165.003 163.968 165.003 165.572V165.681C165.003 166.787 165.384 167.69 166.599 167.69ZM166.599 167.27C165.999 167.27 165.571 166.88 165.571 166.156C165.571 165.58 165.992 165.175 166.591 165.175C167.199 165.175 167.58 165.595 167.58 166.234C167.588 166.857 167.183 167.27 166.599 167.27Z" fill="#1D1D1B"/>
</g>
<defs>
<clipPath id="clip0_134_915">
<rect width="212" height="133.925" fill="white" transform="translate(14 63.0375)"/>
</clipPath>
</defs>
</svg>
