<svg width="240" height="260" viewBox="0 0 240 260" fill="none" xmlns="http://www.w3.org/2000/svg">
<g clip-path="url(#clip0_191_10257)">
<path fill-rule="evenodd" clip-rule="evenodd" d="M143.946 217.599L143.946 174.668L181.254 174.668L181.255 217.599L143.946 217.599Z" fill="#F2F3F3"/>
<mask id="mask0_191_10257" style="mask-type:luminance" maskUnits="userSpaceOnUse" x="143" y="174" width="39" height="44">
<path d="M143.946 217.599L143.946 174.668L181.254 174.668L181.255 217.599L143.946 217.599Z" fill="white"/>
</mask>
<g mask="url(#mask0_191_10257)">
<path d="M161.093 247.961L161.093 138.535M167.736 247.961L167.736 138.535M154.451 247.961L154.451 138.535M147.808 247.961L147.808 138.535M141.158 247.961L141.158 138.535M134.515 247.961L134.515 138.535M127.873 247.961L127.873 138.535M181.029 247.961L181.029 138.535M174.378 247.961L174.378 138.535M197.226 208.9L124.524 208.9M197.226 222.185L124.524 222.185M197.226 195.607L124.524 195.607M197.226 169.037L124.524 169.037M197.226 182.322L124.524 182.322M197.226 155.744L124.524 155.744M197.226 142.459L124.524 142.459M197.226 235.478L124.524 235.478" stroke="#989793" stroke-width="0.225" stroke-linecap="round" stroke-linejoin="round"/>
</g>
<path d="M143.946 217.599L143.946 174.668L181.255 174.668L181.255 217.599L143.946 217.599Z" stroke="#1D1D1B" stroke-width="0.24" stroke-miterlimit="10" stroke-linecap="round" stroke-linejoin="round"/>
<path fill-rule="evenodd" clip-rule="evenodd" d="M181.278 161.398L141.742 161.398L141.742 229.856L128.496 229.856L128.496 232.503L106.419 232.503L106.419 229.856L59.1816 229.856L59.2984 40.0105L91.2573 28.7812L123.255 40.0027L155.268 28.8124L181.255 38.0247L181.278 161.398Z" fill="#E5E3DA"/>
<mask id="mask1_191_10257" style="mask-type:luminance" maskUnits="userSpaceOnUse" x="59" y="28" width="123" height="205">
<path d="M181.278 161.398L141.742 161.398L141.742 229.856L128.496 229.856L128.496 232.503L106.419 232.503L106.419 229.856L59.1816 229.856L59.2984 40.0105L91.2573 28.7812L123.255 40.0027L155.268 28.8124L181.255 38.0247L181.278 161.398Z" fill="white"/>
</mask>
<g mask="url(#mask1_191_10257)">
<path d="M429.566 46.6063L-66.1853 46.6063M429.566 43.6471L-66.1853 43.6471M429.566 52.5402L-66.1853 52.5402M429.566 25.8533L-66.1853 25.8533M429.566 49.5732L-66.1853 49.5732M429.566 61.4332L-66.1853 61.4332M429.566 34.7463L-66.1853 34.7463M429.566 58.4663L-66.1853 58.4663M429.566 31.7794L-66.1853 31.7794M429.566 67.3671L-66.1853 67.3671M429.566 40.6802L-66.1853 40.6802M429.566 64.4001L-66.1853 64.4002M429.566 37.7132L-66.1853 37.7133M429.566 55.5071L-66.1853 55.5071M429.566 28.8202L-66.1853 28.8202M429.566 99.9801L-66.1853 99.9801M429.566 73.2932L-66.1853 73.2932M429.566 97.0131L-66.1853 97.0131M429.566 70.3262L-66.1853 70.3262M429.566 105.914L-66.1853 105.914M429.566 79.227L-66.1853 79.2271M429.566 102.947L-66.1853 102.947M429.566 76.2601L-66.1853 76.2601M429.566 114.807L-66.1853 114.807M429.566 88.1201L-66.1853 88.1201M429.566 111.84L-66.1853 111.84M429.566 85.1531L-66.1853 85.1532M429.566 120.733L-66.1853 120.733M429.566 94.0462L-66.1853 94.0462M429.566 117.774L-66.1853 117.774M429.566 91.087L-66.1853 91.0871M429.566 108.873L-66.1853 108.873M429.566 82.1862L-66.1853 82.1862M429.566 153.354L-66.1853 153.354M429.566 126.667L-66.1853 126.667M429.566 150.387L-66.1853 150.387M429.566 123.7L-66.1853 123.7M429.566 159.288L-66.1853 159.288M429.566 132.601L-66.1853 132.601M429.566 156.321L-66.1853 156.321M429.566 129.634L-66.1853 129.634M429.566 168.181L-66.1853 168.181M429.566 141.494L-66.1853 141.494M429.566 165.214L-66.1853 165.214M429.566 138.527L-66.1853 138.527M429.566 174.107L-66.1853 174.107M429.566 147.42L-66.1853 147.42M429.566 171.148L-66.1853 171.148M429.566 144.461L-66.1853 144.461M429.566 162.247L-66.1853 162.247M429.566 135.56L-66.1853 135.56M429.566 206.728L-66.1853 206.728M429.566 180.041L-66.1853 180.041M429.566 203.761L-66.1853 203.761M429.566 177.074L-66.1853 177.074M429.566 212.654L-66.1853 212.654M429.566 185.967L-66.1853 185.967M429.566 209.687L-66.1853 209.687M429.566 183L-66.1853 183M429.566 221.555L-66.1853 221.555M429.566 194.868L-66.1853 194.868M429.566 218.588L-66.1853 218.588M429.566 191.901L-66.1853 191.901M429.566 227.481L-66.1853 227.481M429.566 200.794L-66.1853 200.794M429.566 224.514L-66.1853 224.514M429.566 197.827L-66.1853 197.827M429.566 215.621L-66.1853 215.621M429.566 188.934L-66.1853 188.934M429.566 233.415L-66.1853 233.415M429.566 230.448L-66.1853 230.448" stroke="#989793" stroke-width="0.225" stroke-linecap="round" stroke-linejoin="round"/>
<path d="M58.5042 64.3998L58.5042 67.3667M58.5041 37.7129L58.5041 40.6798M64.4302 52.5398L64.4302 55.5067M64.4302 25.8529L64.4302 28.8198" stroke="#989793" stroke-width="0.225" stroke-linecap="round" stroke-linejoin="round"/>
<path d="M117.804 64.3998L117.804 67.3667M117.804 37.7129L117.804 40.6798M123.738 52.5398L123.738 55.5067M123.738 25.8529L123.738 28.8198M88.158 58.4659L88.158 61.4328M88.158 31.779L88.158 34.7459M97.051 49.5728L97.051 52.5398M97.051 22.8859L97.051 25.8529M105.944 61.4328L105.944 64.3998M105.944 34.7459L105.944 37.7129M108.911 43.6468L108.911 46.6059M73.3311 43.6468L73.3311 40.6798M79.2571 46.6059L79.2571 49.5728M76.298 55.5067L76.298 58.4659M76.298 28.8198L76.298 31.779M177.112 64.3998L177.112 67.3667M177.112 37.7129L177.112 40.6798M183.038 52.5398L183.038 55.5067M183.038 25.8529L183.038 28.8198M147.458 58.4659L147.458 61.4328M147.458 31.779L147.458 34.7459M156.351 49.5728L156.351 52.5398M156.351 22.8859L156.351 25.8529M165.252 61.4328L165.252 64.3998M165.252 34.7459L165.252 37.7129M168.219 43.6467L168.219 46.6059M132.631 43.6467L132.631 40.6798M138.565 46.6059L138.565 49.5728M135.598 55.5067L135.598 58.4659M135.598 28.8198L135.598 31.779" stroke="#989793" stroke-width="0.225" stroke-linecap="round" stroke-linejoin="round"/>
<path d="M58.5042 117.774L58.5042 120.733M58.5041 91.0869L58.5041 94.046M64.4302 105.914L64.4302 108.873M64.4302 79.2269L64.4302 82.186" stroke="#989793" stroke-width="0.225" stroke-linecap="round" stroke-linejoin="round"/>
<path d="M117.804 117.774L117.804 120.733M117.804 91.0869L117.804 94.046M123.738 105.914L123.738 108.873M123.738 79.2269L123.738 82.186M88.158 111.84L88.158 114.807M88.158 85.153L88.158 88.1199M97.051 102.947L97.051 105.914M97.051 76.2599L97.051 79.2269M105.944 114.807L105.944 117.774M105.944 88.1199L105.944 91.0869M108.911 97.013L108.911 99.9799M108.911 70.3261L108.911 73.293M73.3311 70.3261L73.3311 67.3591M73.3311 97.013L73.3311 94.046M79.2571 99.9799L79.2571 102.947M79.2571 73.293L79.2571 76.2599M76.298 108.873L76.298 111.84M76.298 82.186L76.298 85.153M177.112 117.774L177.112 120.733M177.112 91.0869L177.112 94.046M183.038 105.914L183.038 108.873M183.038 79.2269L183.038 82.186M147.458 111.84L147.458 114.807M147.458 85.153L147.458 88.1199M156.351 102.947L156.351 105.914M156.351 76.2599L156.351 79.2269M165.252 114.807L165.252 117.774M165.252 88.1199L165.252 91.0869M168.219 97.013L168.219 99.9799M168.219 70.3261L168.219 73.293M132.631 70.3261L132.631 67.3591M132.631 97.013L132.631 94.046M138.565 99.9799L138.565 102.947M138.565 73.293L138.565 76.2599M135.598 108.873L135.598 111.84M135.598 82.186L135.598 85.153" stroke="#989793" stroke-width="0.225" stroke-linecap="round" stroke-linejoin="round"/>
<path d="M58.5042 171.148L58.5042 174.107M58.5041 144.461L58.5041 147.42M64.4302 159.288L64.4302 162.247M64.4302 132.601L64.4302 135.56" stroke="#989793" stroke-width="0.225" stroke-linecap="round" stroke-linejoin="round"/>
<path d="M117.804 171.148L117.804 174.107M117.804 144.461L117.804 147.42M123.738 159.288L123.738 162.247M123.738 132.601L123.738 135.56M88.158 165.214L88.158 168.181M88.158 138.527L88.158 141.494M97.051 156.321L97.051 159.288M97.051 129.634L97.051 132.601M105.944 168.181L105.944 171.148M105.944 141.494L105.944 144.461M108.911 150.387L108.911 153.354M108.911 123.7L108.911 126.667M73.3311 123.7L73.3311 120.733M73.3311 150.387L73.3311 147.42M79.2571 153.354L79.2571 156.321M79.2571 126.667L79.2571 129.634M76.298 162.247L76.298 165.214M76.298 135.56L76.298 138.527M177.112 171.148L177.112 174.107M177.112 144.461L177.112 147.42M183.038 159.288L183.038 162.247M183.038 132.601L183.038 135.56M147.458 165.214L147.458 168.181M147.458 138.527L147.458 141.494M156.351 156.321L156.351 159.288M156.351 129.634L156.351 132.601M165.252 168.181L165.252 171.148M165.252 141.494L165.252 144.461M168.219 150.387L168.219 153.354M168.219 123.7L168.219 126.667M132.631 123.7L132.631 120.733M132.631 150.387L132.631 147.42M138.565 153.354L138.565 156.321M138.565 126.667L138.565 129.634M135.598 162.247L135.598 165.214M135.598 135.56L135.598 138.527" stroke="#989793" stroke-width="0.225" stroke-linecap="round" stroke-linejoin="round"/>
<path d="M58.5042 224.514L58.5042 227.48M58.5041 197.827L58.5041 200.794M64.4302 212.654L64.4302 215.62M64.4302 185.967L64.4302 188.934" stroke="#989793" stroke-width="0.225" stroke-linecap="round" stroke-linejoin="round"/>
<path d="M117.804 224.514L117.804 227.48M117.804 197.827L117.804 200.794M123.738 212.654L123.738 215.62M123.738 185.967L123.738 188.934M88.158 218.587L88.158 221.554M88.158 191.901L88.158 194.867M97.051 209.687L97.051 212.654M97.051 183L97.051 185.967M105.944 221.554L105.944 224.514M105.944 194.867L105.944 197.827M108.911 203.761L108.911 206.727M108.911 177.074L108.911 180.041M73.3311 177.074L73.3311 174.107M73.3311 203.761L73.3311 200.794M79.2571 206.727L79.2571 209.687M79.2571 180.041L79.2571 183M76.298 215.62L76.298 218.587M76.298 188.934L76.298 191.901M177.112 224.514L177.112 227.48M177.112 197.827L177.112 200.794M183.038 212.654L183.038 215.62M183.038 185.967L183.038 188.934M147.458 218.587L147.458 221.554M147.458 191.901L147.458 194.867M156.351 209.687L156.351 212.654M156.351 183L156.351 185.967M165.252 221.554L165.252 224.514M165.252 194.867L165.252 197.827M168.219 203.761L168.219 206.727M168.219 177.074L168.219 180.041M132.631 177.074L132.631 174.107M132.631 203.761L132.631 200.794M138.565 206.727L138.565 209.687M138.565 180.041L138.565 183M135.598 215.62L135.598 218.587M135.598 188.934L135.598 191.901" stroke="#989793" stroke-width="0.225" stroke-linecap="round" stroke-linejoin="round"/>
<path d="M108.911 230.448L108.911 233.415" stroke="#989793" stroke-width="0.225" stroke-linecap="round" stroke-linejoin="round"/>
<path d="M73.3311 230.447L73.3311 227.48M79.2571 233.414L79.2571 236.374" stroke="#989793" stroke-width="0.225" stroke-linecap="round" stroke-linejoin="round"/>
<path d="M168.219 230.448L168.219 233.415" stroke="#989793" stroke-width="0.225" stroke-linecap="round" stroke-linejoin="round"/>
<path d="M132.631 230.447L132.631 227.48M138.565 233.414L138.565 236.374" stroke="#989793" stroke-width="0.225" stroke-linecap="round" stroke-linejoin="round"/>
</g>
<path d="M181.278 161.398L141.742 161.398L141.742 229.856L128.496 229.856L128.496 232.503L106.419 232.503L106.419 229.856L59.1816 229.856L59.2984 40.0105L91.2573 28.7812L123.255 40.0027L155.268 28.8124L181.255 38.0247L181.278 161.398Z" stroke="#1D1D1B" stroke-width="0.24" stroke-miterlimit="10" stroke-linecap="round" stroke-linejoin="round"/>
<path fill-rule="evenodd" clip-rule="evenodd" d="M112.517 130.794L68.9858 130.794C67.732 130.794 66.7119 129.766 66.7119 128.52L66.7119 73.5343C66.7119 72.2806 67.7398 71.2604 68.9858 71.2604L112.524 71.2604C113.778 71.2604 114.798 72.2884 114.798 73.5343L114.798 128.52C114.798 129.766 113.77 130.794 112.517 130.794Z" fill="#F3F4F4" stroke="#1D1D1B" stroke-width="0.48" stroke-miterlimit="10" stroke-linecap="round" stroke-linejoin="round"/>
<path fill-rule="evenodd" clip-rule="evenodd" d="M89.6453 209.321L89.6453 191.659L91.8491 191.659L91.8491 209.321L89.6453 209.321ZM89.6453 167.386L89.6453 149.725L91.8491 149.725L91.8491 167.386L89.6453 167.386Z" fill="#E5E3DA" stroke="#1D1D1B" stroke-width="0.216" stroke-miterlimit="22.926"/>
<path fill-rule="evenodd" clip-rule="evenodd" d="M89.6453 191.667L89.6453 189.463L59.1816 189.463L59.1816 229.856L89.6453 229.856L89.6453 209.329L91.8491 209.329L91.8491 229.856L106.419 229.856L106.419 235.813L53.2244 235.813L53.2244 37.9001L59.1816 40.026L59.1816 145.31L91.8491 145.31L91.8491 149.725L89.6453 149.725L89.6453 147.521L59.1816 147.521L59.1816 187.252L89.6453 187.252L89.6453 167.386L91.8491 167.386L91.8491 187.252L96.2645 187.252L96.2645 189.456L91.8491 189.456L91.8491 191.659L89.6453 191.659L89.6453 191.667ZM181.255 217.599L181.254 174.668L143.946 174.668L143.946 190.561L141.742 190.561L141.742 148.168L143.946 148.168L143.946 161.421L181.254 161.421L181.254 38.0169L186.776 39.917L186.776 224.771L147.707 224.771L147.707 235.813L128.496 235.813L128.496 229.856L141.742 229.856L141.742 208.215L143.946 208.215L143.946 217.599L181.255 217.599ZM181.254 172.464L181.254 163.633L154.544 163.633L154.544 172.464L181.254 172.464ZM152.34 163.633L143.954 163.633L143.954 172.464L152.34 172.464L152.34 163.633ZM119.447 187.252L119.447 38.6633L121.651 39.5276L121.651 189.456L116.13 189.456L116.13 187.252L119.447 187.252Z" fill="#C1C1BA" stroke="#1D1D1B" stroke-width="0.48" stroke-miterlimit="22.926"/>
<path fill-rule="evenodd" clip-rule="evenodd" d="M115.032 188.786L115.032 187.236L116.13 187.236L116.13 188.786L115.032 188.786Z" fill="#E5E3DA" stroke="#1D1D1B" stroke-width="0.567" stroke-miterlimit="10" stroke-linecap="round" stroke-linejoin="round"/>
<path d="M114.175 171.171C104.792 171.646 97.4248 179.395 97.417 188.786" stroke="#1D1D1B" stroke-width="0.567" stroke-miterlimit="10" stroke-linecap="round" stroke-linejoin="round"/>
<path fill-rule="evenodd" clip-rule="evenodd" d="M114.175 188.786L114.175 171.163L115.032 171.163L115.032 188.786L114.175 188.786ZM96.3035 188.786L96.3035 187.236L97.4248 187.236L97.4248 188.786L96.3035 188.786ZM127.398 234.045L127.398 232.496L128.496 232.496L128.496 234.045L127.398 234.045Z" fill="#E5E3DA" stroke="#1D1D1B" stroke-width="0.567" stroke-miterlimit="10" stroke-linecap="round" stroke-linejoin="round"/>
<path d="M126.432 214.211C115.865 214.749 107.572 223.463 107.564 234.045" stroke="#1D1D1B" stroke-width="0.567" stroke-miterlimit="10" stroke-linecap="round" stroke-linejoin="round"/>
<path fill-rule="evenodd" clip-rule="evenodd" d="M126.432 234.045L126.432 214.211L127.398 214.211L127.398 234.045L126.432 234.045ZM106.473 234.045L106.473 232.496L107.595 232.496L107.595 234.045L106.473 234.045ZM141.742 208.176L141.742 207.078L143.291 207.078L143.291 208.176L141.742 208.176Z" fill="#E5E3DA" stroke="#1D1D1B" stroke-width="0.567" stroke-miterlimit="10" stroke-linecap="round" stroke-linejoin="round"/>
<path d="M125.669 206.245C126.144 198.131 133.892 191.753 143.291 191.745" stroke="#1D1D1B" stroke-width="0.567" stroke-miterlimit="10" stroke-linecap="round" stroke-linejoin="round"/>
<path fill-rule="evenodd" clip-rule="evenodd" d="M125.669 207.078L125.669 206.245L143.291 206.245L143.291 207.078L125.669 207.078ZM141.742 191.745L141.742 190.561L143.291 190.561L143.291 191.745L141.742 191.745Z" fill="#E5E3DA" stroke="#1D1D1B" stroke-width="0.567" stroke-miterlimit="10" stroke-linecap="round" stroke-linejoin="round"/>
<path d="M89.6453 209.321L89.6453 191.667" stroke="#1D1D1B" stroke-width="0.567" stroke-miterlimit="10" stroke-linecap="round" stroke-linejoin="round"/>
<path fill-rule="evenodd" clip-rule="evenodd" d="M91.1716 200.498L91.1716 191.667L91.8491 191.667L91.8491 200.498L91.1716 200.498ZM91.1716 200.498L91.1716 191.667L91.8491 191.667L91.8491 200.498L91.1716 200.498ZM91.1716 209.321L91.1716 200.49L91.8491 200.49L91.8491 209.321L91.1716 209.321ZM91.1716 209.321L91.1716 200.49L91.8491 200.49L91.8491 209.321L91.1716 209.321Z" fill="#E5E3DA" stroke="#1D1D1B" stroke-width="0.567" stroke-miterlimit="10" stroke-linecap="round" stroke-linejoin="round"/>
<path d="M89.6453 167.387L89.6453 149.725" stroke="#1D1D1B" stroke-width="0.567" stroke-miterlimit="10" stroke-linecap="round" stroke-linejoin="round"/>
<path fill-rule="evenodd" clip-rule="evenodd" d="M91.1716 158.556L91.1716 149.725L91.8491 149.725L91.8491 158.556L91.1716 158.556ZM91.1716 158.556L91.1716 149.725L91.8491 149.725L91.8491 158.556L91.1716 158.556ZM91.1716 167.387L91.1716 158.556L91.8491 158.556L91.8491 167.387L91.1716 167.387ZM91.1716 167.387L91.1716 158.556L91.8491 158.556L91.8491 167.387L91.1716 167.387Z" fill="#E5E3DA"/>
<path d="M91.1716 158.556L91.1716 149.725L91.8491 149.725L91.8491 158.556M91.1716 158.556L91.8491 158.556M91.1716 158.556L91.1716 167.387L91.8491 167.387L91.8491 158.556" stroke="#1D1D1B" stroke-width="0.567" stroke-miterlimit="10" stroke-linecap="round" stroke-linejoin="round"/>
<path fill-rule="evenodd" clip-rule="evenodd" d="M143.946 179.083L143.946 174.668L164.582 174.668L164.582 179.083L143.946 179.083ZM143.946 172.464L143.946 163.633L152.333 163.633L152.333 172.464L143.946 172.464ZM154.544 172.464L154.544 163.633L181.255 163.633L181.255 172.464L154.544 172.464Z" fill="#C1C1BA" stroke="#1D1D1B" stroke-width="0.48" stroke-miterlimit="22.926"/>
<path fill-rule="evenodd" clip-rule="evenodd" d="M158.625 179.075L150.682 179.075L150.682 186.613L150.697 186.979L150.744 187.353C151.048 189.261 152.519 190.732 154.311 190.888L154.653 190.904L155.004 190.888C156.795 190.717 158.243 189.268 158.57 187.353L158.617 186.987L158.632 186.613L158.632 179.075L158.625 179.075Z" fill="#F5F7F7" stroke="#1D1D1B" stroke-width="0.48" stroke-miterlimit="10" stroke-linecap="round" stroke-linejoin="round"/>
<path d="M157.675 180.679L151.639 180.679L151.639 186.691L151.655 186.971L151.694 187.259C151.928 188.708 153.041 189.821 154.404 189.946L154.661 189.961L154.926 189.946C156.288 189.821 157.386 188.715 157.636 187.259L157.675 186.979L157.69 186.699L157.69 180.679L157.675 180.679Z" stroke="#1D1D1B" stroke-width="0.48" stroke-miterlimit="10" stroke-linecap="round" stroke-linejoin="round"/>
<path fill-rule="evenodd" clip-rule="evenodd" d="M59.1348 217.054L59.1348 189.463L72.3809 189.463L72.3809 217.054L59.1348 217.054Z" fill="#F5F7F7" stroke="#1D1D1B" stroke-width="0.48" stroke-miterlimit="10" stroke-linecap="round" stroke-linejoin="round"/>
<path d="M65.7539 189.456L65.7539 217.054" stroke="#1D1D1B" stroke-width="0.48" stroke-miterlimit="10" stroke-linecap="round" stroke-linejoin="round" stroke-dasharray="2.88 4.32"/>
<path fill-rule="evenodd" clip-rule="evenodd" d="M59.1816 174.005L59.1816 147.529L72.4277 147.529L72.4277 174.005L59.1816 174.005Z" fill="#F5F7F7" stroke="#1D1D1B" stroke-width="0.48" stroke-miterlimit="10" stroke-linecap="round" stroke-linejoin="round"/>
<path d="M65.8086 147.529L65.8086 174.005" stroke="#1D1D1B" stroke-width="0.48" stroke-miterlimit="10" stroke-linecap="round" stroke-linejoin="round" stroke-dasharray="2.88 4.32"/>
<path fill-rule="evenodd" clip-rule="evenodd" d="M59.166 187.322L59.166 174.076L89.6453 174.076L89.6453 187.322L59.166 187.322Z" fill="#F5F7F7" stroke="#1D1D1B" stroke-width="0.48" stroke-miterlimit="10" stroke-linecap="round" stroke-linejoin="round"/>
<path d="M59.166 180.695L89.6453 180.695" stroke="#1D1D1B" stroke-width="0.48" stroke-miterlimit="10" stroke-linecap="round" stroke-linejoin="round" stroke-dasharray="2.88 4.32"/>
<path fill-rule="evenodd" clip-rule="evenodd" d="M59.166 229.856L59.166 216.61L89.6453 216.61L89.6453 229.856L59.166 229.856Z" fill="#F5F7F7" stroke="#1D1D1B" stroke-width="0.48" stroke-miterlimit="10" stroke-linecap="round" stroke-linejoin="round"/>
<path d="M59.166 223.237L89.6453 223.237" stroke="#1D1D1B" stroke-width="0.48" stroke-miterlimit="10" stroke-linecap="round" stroke-linejoin="round" stroke-dasharray="2.88 4.32"/>
<path fill-rule="evenodd" clip-rule="evenodd" d="M71.906 105.711L71.9995 110.197L71.906 114.651L71.8904 114.885L71.5945 119.137L68.8223 119.339L66.0578 119.417L63.2388 119.339L60.4665 119.137L60.2407 113.179L60.2407 107.222L60.4665 101.257L64.1733 101.062L67.88 101.062L71.5945 101.257L71.8904 105.509L71.906 105.711ZM105.391 83.1439L105.391 118.903L105.344 119.261L105.165 119.619L104.901 119.931L104.589 120.172L104.137 120.328L103.732 120.375L79.7322 120.375L79.7322 81.6721L103.732 81.6721L104.137 81.711L104.589 81.8668L104.901 82.1082L105.165 82.3885L105.344 82.7467L105.391 83.1439ZM79.7322 120.811L79.7322 120.889L71.906 120.889L71.906 114.885L71.8904 114.885L71.906 114.651L71.9995 110.197L71.906 105.711L71.8904 105.509L71.906 105.509L71.906 96.4912L71.8904 96.4912L71.906 96.2966L71.9995 91.8422L71.906 87.3568L71.8904 87.1543L71.906 87.1543L71.906 81.1581L79.7322 81.1581L79.7322 120.686L79.7322 120.811ZM71.906 87.3568L71.9995 91.8422L71.906 96.2966L71.8904 96.4912L71.5945 100.782L67.88 100.977L64.1733 100.977L60.4665 100.782L60.2407 94.8248L60.2407 88.8597L60.4665 82.9025L63.2388 82.6611L66.0578 82.5832L68.8223 82.6611L71.5945 82.9025L71.8904 87.1543L71.906 87.3568ZM71.906 119.775L71.906 119.892L60.1551 119.892L60.1551 82.1471L71.906 82.1471L71.906 87.1543L71.8904 87.1543L71.5945 82.9025L68.8223 82.6611L66.0578 82.5832L63.2388 82.6611L60.4665 82.9025L60.2407 88.8597L60.2407 94.8248L60.4665 100.782L64.1733 100.977L67.88 100.977L71.5945 100.782L71.8904 96.4912L71.906 96.4912L71.906 105.509L71.8904 105.509L71.5945 101.257L67.88 101.062L64.1733 101.062L60.4665 101.257L60.2407 107.222L60.2407 113.179L60.4665 119.137L63.2388 119.339L66.0578 119.417L68.8223 119.339L71.5945 119.137L71.8904 114.885L71.906 114.885L71.906 119.378L71.906 119.775ZM59.0337 119.892L59.0337 82.1471L60.1551 82.1471L60.1551 119.892L59.0337 119.892Z" fill="#F5F7F7"/>
<path d="M71.8904 114.885L71.906 114.651L71.9995 110.197L71.906 105.711L71.8904 105.509M71.8904 114.885L71.5945 119.137L68.8223 119.339L66.0578 119.417L63.2388 119.339L60.4665 119.137L60.2407 113.179L60.2407 107.222L60.4665 101.257L64.1733 101.062L67.88 101.062L71.5945 101.257L71.8904 105.509M71.8904 114.885L71.906 114.885M71.8904 105.509L71.906 105.509L71.906 96.4912L71.8904 96.4912M71.906 114.885L71.906 120.889L79.7322 120.889L79.7322 120.811L79.7322 120.686L79.7322 81.1581L71.906 81.1581L71.906 87.1543M71.906 114.885L71.906 119.378L71.906 119.775L71.906 119.892L60.1551 119.892M71.8904 96.4912L71.906 96.2966L71.9995 91.8422L71.906 87.3568L71.8904 87.1543M71.8904 96.4912L71.5945 100.782L67.88 100.977L64.1733 100.977L60.4665 100.782L60.2407 94.8248L60.2407 88.8597L60.4665 82.9025L63.2388 82.6611L66.0578 82.5832L68.8223 82.6611L71.5945 82.9025L71.8904 87.1543M71.8904 87.1543L71.906 87.1543M71.906 87.1543L71.906 82.1471L60.1551 82.1471M60.1551 119.892L60.1551 82.1471M60.1551 119.892L59.0337 119.892L59.0337 82.1471L60.1551 82.1471M105.391 83.1439L105.391 118.903L105.344 119.261L105.165 119.619L104.901 119.931L104.589 120.172L104.137 120.328L103.732 120.375L79.7322 120.375L79.7322 81.6721L103.732 81.6721L104.137 81.711L104.589 81.8668L104.901 82.1082L105.165 82.3885L105.344 82.7467L105.391 83.1439Z" stroke="#1D1D1B" stroke-width="0.48" stroke-miterlimit="10" stroke-linecap="round" stroke-linejoin="round"/>
<path fill-rule="evenodd" clip-rule="evenodd" d="M59.2048 137.491L59.2048 124.198L68.0434 124.198L68.0434 137.491L59.2048 137.491ZM68.0434 134.189L68.0434 127.446L68.5885 127.446L68.5885 134.189L68.0434 134.189Z" fill="#F5F7F7" stroke="#1D1D1B" stroke-width="0.48" stroke-miterlimit="10" stroke-linecap="round" stroke-linejoin="round"/>
<path d="M66.9065 130.841C66.9065 129.013 65.4248 127.531 63.5969 127.531C61.7691 127.531 60.2874 129.013 60.2874 130.841C60.2874 132.669 61.7691 134.15 63.5969 134.15C65.4248 134.15 66.9065 132.669 66.9065 130.841Z" fill="#F5F7F7" stroke="#1D1D1B" stroke-width="0.48" stroke-miterlimit="10" stroke-linecap="round" stroke-linejoin="round"/>
<path d="M65.2556 130.841C65.2556 129.925 64.513 129.182 63.5969 129.182C62.6809 129.182 61.9382 129.925 61.9382 130.841C61.9382 131.757 62.6809 132.5 63.5969 132.5C64.513 132.5 65.2556 131.757 65.2556 130.841Z" fill="#F5F7F7" stroke="#1D1D1B" stroke-width="0.48" stroke-miterlimit="10" stroke-linecap="round" stroke-linejoin="round"/>
<path d="M63.5969 132.5L63.5969 129.19M61.946 130.841L65.2556 130.841" stroke="#1D1D1B" stroke-width="0.48" stroke-miterlimit="10" stroke-linecap="round" stroke-linejoin="round"/>
<path fill-rule="evenodd" clip-rule="evenodd" d="M59.2048 78.1602L59.2048 64.8673L68.0434 64.8673L68.0434 78.1602L59.2048 78.1602ZM68.0434 74.8584L68.0434 68.1146L68.5885 68.1146L68.5885 74.8584L68.0434 74.8584Z" fill="#F5F7F7" stroke="#1D1D1B" stroke-width="0.48" stroke-miterlimit="10" stroke-linecap="round" stroke-linejoin="round"/>
<path d="M66.9065 71.5098C66.9065 69.6819 65.4248 68.2002 63.5969 68.2002C61.7691 68.2002 60.2874 69.6819 60.2874 71.5098C60.2874 73.3376 61.7691 74.8193 63.5969 74.8193C65.4248 74.8193 66.9065 73.3376 66.9065 71.5098Z" fill="#F5F7F7" stroke="#1D1D1B" stroke-width="0.48" stroke-miterlimit="10" stroke-linecap="round" stroke-linejoin="round"/>
<path d="M65.2556 71.5098C65.2556 70.5937 64.513 69.8511 63.5969 69.8511C62.6809 69.8511 61.9382 70.5937 61.9382 71.5098C61.9382 72.4258 62.6809 73.1685 63.5969 73.1685C64.513 73.1685 65.2556 72.4258 65.2556 71.5098Z" fill="#F5F7F7" stroke="#1D1D1B" stroke-width="0.48" stroke-miterlimit="10" stroke-linecap="round" stroke-linejoin="round"/>
<path d="M63.5969 73.1685L63.5969 69.8589M61.946 71.5098L65.2556 71.5098" stroke="#1D1D1B" stroke-width="0.48" stroke-miterlimit="10" stroke-linecap="round" stroke-linejoin="round"/>
<path d="M76.2045 225.355L74.6081 223.237L74.6081 223.19L76.2045 221.072C76.2279 221.041 76.2902 221.056 76.2902 221.095L76.2902 225.331C76.2902 225.37 76.2279 225.386 76.2045 225.355ZM76.0176 220.62L74.211 222.995L73.9384 222.995C73.8995 222.995 73.8684 222.972 73.8528 222.933C73.7905 222.746 73.6737 222.583 73.5179 222.474C73.3544 222.357 73.1597 222.294 72.9573 222.294C72.7158 222.294 72.49 222.396 72.3187 222.567C72.1474 222.738 72.0539 222.964 72.0461 223.206C72.0461 223.455 72.1396 223.688 72.3109 223.867C72.4822 224.047 72.7236 224.14 72.9728 224.14C73.0974 224.14 73.1987 224.039 73.1987 223.914C73.1987 223.79 73.0974 223.696 72.9728 223.696C72.8404 223.696 72.7236 223.642 72.6302 223.556C72.5367 223.463 72.49 223.338 72.49 223.213C72.49 222.956 72.7081 222.746 72.965 222.738C73.1753 222.738 73.3622 222.871 73.4323 223.073C73.5024 223.291 73.7048 223.447 73.9384 223.447L74.211 223.447L76.0176 225.822C76.1111 225.947 76.2902 226.001 76.4537 225.962C76.6173 225.923 76.7341 225.791 76.7341 225.643L76.7341 220.815C76.7341 220.667 76.625 220.535 76.4537 220.496C76.2902 220.433 76.1111 220.488 76.0176 220.62Z" stroke="#F5F7F7" stroke-width="2.64" stroke-linecap="round" stroke-linejoin="round"/>
<path fill-rule="evenodd" clip-rule="evenodd" d="M74.6081 223.213L74.6159 223.19L76.2123 221.072C76.2357 221.041 76.298 221.056 76.298 221.095L76.298 223.213L76.7419 223.213L76.7419 220.799C76.7419 220.651 76.6328 220.519 76.4615 220.48C76.298 220.441 76.1189 220.496 76.0254 220.62L74.2188 222.995L73.9462 222.995C73.9073 222.995 73.8761 222.972 73.8606 222.933C73.7983 222.746 73.6815 222.583 73.5257 222.474C73.3622 222.357 73.1675 222.294 72.965 222.294C72.7236 222.294 72.4978 222.396 72.3265 222.567C72.1552 222.738 72.0617 222.964 72.0539 223.206L72.0539 223.221L72.4978 223.221L72.4978 223.213C72.4978 222.956 72.7158 222.746 72.9728 222.738C73.1831 222.738 73.37 222.871 73.4401 223.073L73.5179 223.221L74.6081 223.221L74.6081 223.213ZM76.2045 225.355L74.6081 223.237L74.6004 223.213L73.5024 223.213C73.6036 223.353 73.7593 223.439 73.9307 223.439L74.2032 223.439L76.0099 225.814C76.1033 225.939 76.2824 225.993 76.4459 225.954C76.6095 225.915 76.7263 225.783 76.7263 225.635L76.7263 223.221L76.2824 223.221L76.2824 225.331C76.2902 225.37 76.2279 225.386 76.2045 225.355ZM72.0461 223.213L72.49 223.213C72.49 223.338 72.5367 223.462 72.6302 223.548C72.7236 223.642 72.8404 223.688 72.9728 223.688C73.0974 223.688 73.1987 223.79 73.1987 223.906C73.1987 224.031 73.0974 224.132 72.9728 224.132C72.7236 224.132 72.49 224.031 72.3109 223.86C72.1396 223.688 72.0461 223.455 72.0461 223.213Z" fill="#1D1D1B"/>
<path d="M76.2045 182.813L74.6081 180.695L74.6081 180.648L76.2045 178.53C76.2279 178.499 76.2902 178.514 76.2902 178.553L76.2902 182.797C76.2902 182.828 76.2279 182.844 76.2045 182.813ZM76.0176 178.078L74.211 180.453L73.9384 180.453C73.8995 180.453 73.8684 180.43 73.8528 180.391C73.7905 180.204 73.6737 180.041 73.5179 179.932C73.3544 179.815 73.1597 179.752 72.9573 179.752C72.7158 179.752 72.49 179.854 72.3187 180.025C72.1474 180.196 72.0539 180.422 72.0461 180.664C72.0461 180.913 72.1396 181.146 72.3109 181.325C72.4822 181.505 72.7236 181.598 72.9728 181.598C73.0974 181.598 73.1987 181.497 73.1987 181.372C73.1987 181.248 73.0974 181.154 72.9728 181.154C72.8404 181.154 72.7236 181.1 72.6302 181.014C72.5367 180.921 72.49 180.796 72.49 180.671C72.49 180.414 72.7081 180.204 72.965 180.196C73.1753 180.196 73.3622 180.329 73.4323 180.531C73.5024 180.749 73.7048 180.905 73.9384 180.905L74.211 180.905L76.0176 183.28C76.1111 183.405 76.2902 183.459 76.4537 183.42C76.6173 183.381 76.7341 183.249 76.7341 183.101L76.7341 178.273C76.7341 178.125 76.625 177.993 76.4537 177.954C76.2902 177.899 76.1111 177.954 76.0176 178.078Z" stroke="#F5F7F7" stroke-width="2.64" stroke-linecap="round" stroke-linejoin="round"/>
<path fill-rule="evenodd" clip-rule="evenodd" d="M74.6081 180.671L74.6159 180.648L76.2123 178.53C76.2357 178.499 76.298 178.514 76.298 178.553L76.298 180.671L76.7419 180.671L76.7419 178.257C76.7419 178.109 76.6328 177.977 76.4615 177.938C76.298 177.899 76.1189 177.954 76.0254 178.078L74.2188 180.453L73.9462 180.453C73.9073 180.453 73.8761 180.43 73.8606 180.391C73.7983 180.204 73.6815 180.041 73.5257 179.932C73.3622 179.815 73.1675 179.752 72.965 179.752C72.7236 179.752 72.4978 179.854 72.3265 180.025C72.1552 180.196 72.0617 180.422 72.0539 180.664L72.0539 180.679L72.4978 180.679L72.4978 180.671C72.4978 180.414 72.7158 180.204 72.9728 180.196C73.1831 180.196 73.37 180.329 73.4401 180.531L73.5179 180.679L74.6081 180.679L74.6081 180.671ZM76.2045 182.813L74.6081 180.695L74.6004 180.671L73.5024 180.671C73.6036 180.811 73.7593 180.897 73.9307 180.897L74.2032 180.897L76.0099 183.272C76.1033 183.397 76.2824 183.451 76.4459 183.412C76.6095 183.373 76.7263 183.241 76.7263 183.093L76.7263 180.679L76.2824 180.679L76.2824 182.797C76.2902 182.828 76.2279 182.844 76.2045 182.813ZM72.0461 180.671L72.49 180.671C72.49 180.796 72.5367 180.92 72.6302 181.006C72.7236 181.1 72.8404 181.146 72.9728 181.146C73.0974 181.146 73.1987 181.248 73.1987 181.364C73.1987 181.481 73.0974 181.59 72.9728 181.59C72.7236 181.59 72.49 181.489 72.3109 181.318C72.1396 181.146 72.0461 180.92 72.0461 180.671Z" fill="#1D1D1B"/>
<path fill-rule="evenodd" clip-rule="evenodd" d="M164.59 179.005L164.59 174.699L181.153 174.699L181.153 179.005L164.59 179.005Z" fill="#F5F7F7" stroke="#1D1D1B" stroke-width="0.48" stroke-miterlimit="10" stroke-linecap="round" stroke-linejoin="round"/>
<path fill-rule="evenodd" clip-rule="evenodd" d="M168.032 161.421L168.032 95.2064L181.278 95.2064L181.278 161.421L168.032 161.421Z" fill="#F5F7F7" stroke="#1D1D1B" stroke-width="0.48" stroke-miterlimit="10" stroke-linecap="round" stroke-linejoin="round"/>
<path d="M157.215 161.375L157.215 148.128L181.278 148.128L181.278 161.375L157.215 161.375Z" stroke="#1D1D1B" stroke-width="0.48" stroke-miterlimit="10" stroke-linecap="round" stroke-linejoin="round"/>
<path fill-rule="evenodd" clip-rule="evenodd" d="M169.503 121.013L169.503 108.577L179.269 108.577C179.487 108.577 179.58 108.67 179.58 108.888L179.58 120.702C179.58 120.92 179.487 121.013 179.269 121.013L169.503 121.013Z" fill="#F5F7F7" stroke="#1D1D1B" stroke-width="0.48" stroke-miterlimit="10" stroke-linecap="round" stroke-linejoin="round"/>
<path d="M173.592 111.894C173.529 112.393 173.319 112.595 172.813 112.626M172.821 110.96C173.319 110.991 173.537 111.193 173.6 111.692M172.72 112.626C172.221 112.595 172.003 112.393 171.941 111.894M171.941 111.692C172.003 111.193 172.213 110.991 172.72 110.96M178.21 111.894C178.147 112.681 177.812 113 177.026 113.031M177.026 110.555C177.812 110.586 178.147 110.905 178.21 111.692M175.733 111.692C175.796 110.905 176.13 110.586 176.925 110.555M173.592 117.696C173.529 117.197 173.319 116.995 172.813 116.964M172.821 118.623C173.319 118.591 173.537 118.389 173.6 117.891M172.72 116.964C172.221 116.995 172.003 117.197 171.941 117.696M171.941 117.891C172.003 118.389 172.213 118.591 172.72 118.623M178.21 117.696C178.147 116.909 177.812 116.59 177.026 116.559M177.026 119.035C177.812 119.004 178.147 118.685 178.21 117.898M176.925 116.551C176.138 116.582 175.803 116.902 175.741 117.696M175.733 117.891C175.796 118.677 176.13 119.004 176.925 119.027M169.503 117.813L169.932 117.813L169.932 111.778L169.503 111.778M170.718 121.013L170.718 108.577M176.925 113.031C176.138 113 175.803 112.681 175.741 111.894" stroke="#1D1D1B" stroke-width="0.48" stroke-miterlimit="10" stroke-linecap="round" stroke-linejoin="round"/>
<path fill-rule="evenodd" clip-rule="evenodd" d="M157.262 161.421L157.262 148.206L168.086 148.206L168.086 161.421L157.262 161.421Z" fill="#F5F7F7" stroke="#1D1D1B" stroke-width="0.48" stroke-miterlimit="10" stroke-linecap="round" stroke-linejoin="round"/>
<path d="M162.417 159.07L157.262 159.07L157.262 148.207L168.078 148.207L168.078 159.07L162.923 159.07" stroke="#1D1D1B" stroke-width="0.48" stroke-miterlimit="10" stroke-linecap="round" stroke-linejoin="round"/>
<path d="M162.44 158.345L158.508 158.345C158.313 158.345 158.189 158.275 158.134 158.112C158.103 158.034 158.087 157.925 158.087 157.792L158.087 150.099C158.087 149.912 158.119 149.779 158.181 149.686C158.251 149.592 158.352 149.546 158.508 149.546L166.832 149.546C166.988 149.546 167.089 149.592 167.16 149.686C167.222 149.779 167.253 149.912 167.253 150.099L167.253 157.792C167.253 157.925 167.237 158.026 167.206 158.112C167.152 158.275 167.027 158.345 166.832 158.345L162.9 158.345M162.417 156.944C162.168 156.873 161.965 156.694 161.856 156.469C161.802 156.352 161.763 156.219 161.763 156.079M161.763 156.071C161.763 155.822 161.856 155.604 162.012 155.448C162.308 155.137 162.814 155.051 163.211 155.347L163.328 155.448C163.601 155.729 163.64 156.141 163.484 156.461C163.383 156.679 163.188 156.858 162.923 156.936M162.923 155.846L162.923 159.513C163.375 159.77 163.188 160.463 162.666 160.463C162.145 160.463 161.958 159.77 162.409 159.513L162.409 155.846" stroke="#1D1D1B" stroke-width="0.48" stroke-miterlimit="10" stroke-linecap="round" stroke-linejoin="round"/>
<path fill-rule="evenodd" clip-rule="evenodd" d="M162.417 155.846L162.417 155.706L162.923 155.706L162.923 155.846L162.417 155.846Z" fill="#F5F7F7" stroke="#1D1D1B" stroke-width="0.48" stroke-miterlimit="10" stroke-linecap="round" stroke-linejoin="round"/>
<path fill-rule="evenodd" clip-rule="evenodd" d="M138.246 120.5L126.643 120.5L126.643 121.917C126.643 122.252 126.915 122.524 127.25 122.524L137.638 122.524C137.973 122.524 138.246 122.252 138.246 121.917L138.246 120.5ZM137.755 124.424L127.133 124.424C126.868 124.424 126.65 124.206 126.65 123.942L126.65 123.28C126.65 123.015 126.868 122.797 127.133 122.797L137.763 122.797C138.028 122.797 138.246 123.015 138.246 123.28L138.246 123.942C138.246 124.206 138.028 124.424 137.755 124.424Z" fill="#F5F7F7" stroke="#1D1D1B" stroke-width="0.48" stroke-miterlimit="10" stroke-linecap="round" stroke-linejoin="round"/>
<path d="M138.214 124.681C138.214 124.492 138.061 124.339 137.872 124.339C137.682 124.339 137.529 124.492 137.529 124.681C137.529 124.871 137.682 125.024 137.872 125.024C138.061 125.024 138.214 124.871 138.214 124.681Z" fill="#F5F7F7" stroke="#1D1D1B" stroke-width="0.48" stroke-miterlimit="10" stroke-linecap="round" stroke-linejoin="round"/>
<path d="M127.312 124.681C127.312 124.492 127.159 124.339 126.97 124.339C126.78 124.339 126.627 124.492 126.627 124.681C126.627 124.871 126.78 125.024 126.97 125.024C127.159 125.024 127.312 124.871 127.312 124.681Z" fill="#F5F7F7" stroke="#1D1D1B" stroke-width="0.48" stroke-miterlimit="10" stroke-linecap="round" stroke-linejoin="round"/>
<path fill-rule="evenodd" clip-rule="evenodd" d="M141.578 116.871L141.578 105.268L142.996 105.268C143.33 105.268 143.603 105.54 143.603 105.875L143.603 116.263C143.603 116.598 143.33 116.871 142.996 116.871L141.578 116.871ZM145.503 116.388L145.503 105.758C145.503 105.493 145.285 105.275 145.02 105.275L144.358 105.275C144.094 105.275 143.876 105.493 143.876 105.758L143.876 116.388C143.876 116.653 144.094 116.871 144.358 116.871L145.02 116.871C145.285 116.871 145.503 116.653 145.503 116.388Z" fill="#F5F7F7" stroke="#1D1D1B" stroke-width="0.48" stroke-miterlimit="10" stroke-linecap="round" stroke-linejoin="round"/>
<path d="M146.103 116.505C146.103 116.315 145.949 116.162 145.76 116.162C145.571 116.162 145.417 116.315 145.417 116.505C145.417 116.694 145.571 116.847 145.76 116.847C145.949 116.847 146.103 116.694 146.103 116.505Z" fill="#F5F7F7" stroke="#1D1D1B" stroke-width="0.48" stroke-miterlimit="10" stroke-linecap="round" stroke-linejoin="round"/>
<path d="M146.103 105.595C146.103 105.406 145.949 105.252 145.76 105.252C145.571 105.252 145.417 105.406 145.417 105.595C145.417 105.784 145.571 105.937 145.76 105.937C145.949 105.937 146.103 105.784 146.103 105.595Z" fill="#F5F7F7" stroke="#1D1D1B" stroke-width="0.48" stroke-miterlimit="10" stroke-linecap="round" stroke-linejoin="round"/>
<path fill-rule="evenodd" clip-rule="evenodd" d="M121.737 120.5L121.737 100.634L141.602 100.634L141.602 120.5L121.737 120.5Z" fill="#F5F7F7" stroke="#1D1D1B" stroke-width="0.48" stroke-miterlimit="10" stroke-linecap="round" stroke-linejoin="round"/>
<path fill-rule="evenodd" clip-rule="evenodd" d="M168.04 148.207L168.04 134.96L181.286 134.96L181.286 148.207L168.04 148.207Z" fill="#F5F7F7" stroke="#1D1D1B" stroke-width="0.48" stroke-miterlimit="10" stroke-linecap="round" stroke-linejoin="round"/>
<path d="M179.689 141.588C179.689 138.809 177.437 136.557 174.659 136.557C171.88 136.557 169.628 138.809 169.628 141.588C169.628 144.366 171.88 146.618 174.659 146.618C177.437 146.618 179.689 144.366 179.689 141.588Z" fill="#F5F7F7" stroke="#1D1D1B" stroke-width="0.48" stroke-miterlimit="10" stroke-linecap="round" stroke-linejoin="round"/>
<path d="M181.286 134.96L168.04 148.207M168.063 134.96L181.255 148.152" stroke="#1D1D1B" stroke-width="0.48" stroke-miterlimit="10" stroke-linecap="round" stroke-linejoin="round"/>
<path fill-rule="evenodd" clip-rule="evenodd" d="M164.621 217.599L164.621 178.966L181.177 178.966L181.177 217.599L164.621 217.599Z" fill="#F5F7F7" stroke="#1D1D1B" stroke-width="0.48" stroke-miterlimit="10" stroke-linecap="round" stroke-linejoin="round"/>
<path d="M173.124 213.993L179.128 213.993C179.58 213.993 179.767 213.767 179.767 213.222L179.767 181.458C179.767 180.913 179.58 180.687 179.128 180.687L166.669 180.687C166.217 180.687 166.03 180.913 166.03 181.458L166.03 213.222C166.03 213.767 166.217 213.993 166.669 213.993L172.673 213.993M173.101 213.394L178.544 213.394C178.957 213.394 179.121 213.176 179.121 212.654L179.121 182.237C179.121 181.715 178.949 181.497 178.544 181.497L167.245 181.497C166.832 181.497 166.669 181.715 166.669 182.237L166.669 212.654C166.669 213.176 166.84 213.394 167.245 213.394L172.688 213.394" stroke="#1D1D1B" stroke-width="0.48" stroke-miterlimit="10" stroke-linecap="round" stroke-linejoin="round"/>
<path d="M174.347 211.112C174.347 210.282 173.65 209.609 172.79 209.609C171.929 209.609 171.232 210.282 171.232 211.112C171.232 211.942 171.929 212.615 172.79 212.615C173.65 212.615 174.347 211.942 174.347 211.112Z" stroke="#1D1D1B" stroke-width="0.48" stroke-miterlimit="22.926"/>
<path fill-rule="evenodd" clip-rule="evenodd" d="M172.455 211.112L172.455 210.925L173.125 210.925L173.125 211.112L172.455 211.112ZM172.455 211.112L173.125 211.112L173.125 215.784C173.724 216.111 173.475 216.999 172.79 216.999C172.105 216.999 171.855 216.119 172.455 215.784L172.455 211.112Z" fill="#F5F7F7"/>
<path d="M172.455 211.112L172.455 210.925L173.125 210.925L173.125 211.112M172.455 211.112L173.125 211.112M172.455 211.112L172.455 215.784C171.855 216.119 172.105 216.999 172.79 216.999C173.475 216.999 173.724 216.111 173.125 215.784L173.125 211.112" stroke="#1D1D1B" stroke-width="0.48" stroke-miterlimit="10" stroke-linecap="round" stroke-linejoin="round"/>
<path fill-rule="evenodd" clip-rule="evenodd" d="M175.422 216.742C175.5 216.719 175.585 216.711 175.663 216.711C175.741 216.711 175.827 216.719 175.897 216.742L175.897 217.116C175.827 217.085 175.741 217.069 175.663 217.069L175.546 217.085L175.414 217.116L175.414 216.742L175.422 216.742ZM175.422 216.742C175.5 216.719 175.585 216.711 175.663 216.711C175.741 216.711 175.827 216.719 175.897 216.742L175.897 217.116C175.827 217.085 175.741 217.069 175.663 217.069L175.546 217.085L175.414 217.116L175.414 216.742L175.422 216.742ZM175.554 217.077L175.671 217.061C175.749 217.061 175.834 217.077 175.905 217.108L175.905 217.599L175.422 217.599L175.422 217.108L175.554 217.077ZM175.422 216.742C175.009 216.836 174.698 217.178 174.666 217.606L176.652 217.606C176.621 217.178 176.31 216.836 175.897 216.742L175.422 216.742ZM175.905 215.208L175.905 217.061L175.671 217.038L175.43 217.061L175.43 215.208L175.905 215.208ZM169.893 216.742C169.971 216.719 170.056 216.711 170.134 216.711C170.212 216.711 170.298 216.719 170.368 216.742L170.368 217.116C170.298 217.085 170.212 217.069 170.134 217.069L170.017 217.085L169.885 217.116L169.885 216.742L169.893 216.742ZM169.893 216.742C169.971 216.719 170.056 216.711 170.134 216.711C170.212 216.711 170.298 216.719 170.368 216.742L170.368 217.116C170.298 217.085 170.212 217.069 170.134 217.069L170.017 217.085L169.885 217.116L169.885 216.742L169.893 216.742ZM170.017 217.077L170.134 217.061C170.212 217.061 170.298 217.077 170.368 217.108L170.368 217.599L169.885 217.599L169.885 217.108L170.017 217.077ZM169.893 216.742C169.48 216.836 169.169 217.178 169.137 217.606L171.123 217.606C171.092 217.178 170.781 216.836 170.368 216.742L169.893 216.742ZM170.368 215.208L170.368 217.061L170.134 217.038L169.893 217.061L169.893 215.208L170.368 215.208Z" fill="#F5F7F7"/>
<path d="M175.422 216.742C175.5 216.719 175.585 216.711 175.663 216.711C175.741 216.711 175.827 216.719 175.897 216.742M175.422 216.742L175.414 216.742L175.414 217.116L175.546 217.085L175.663 217.069C175.741 217.069 175.827 217.085 175.897 217.116L175.897 216.742M175.422 216.742C175.009 216.836 174.698 217.178 174.666 217.606L176.652 217.606C176.621 217.178 176.31 216.836 175.897 216.742M175.422 216.742L175.897 216.742M169.893 216.742C169.971 216.719 170.056 216.711 170.134 216.711C170.212 216.711 170.298 216.719 170.368 216.742M169.893 216.742L169.885 216.742L169.885 217.116L170.017 217.085L170.134 217.069C170.212 217.069 170.298 217.085 170.368 217.116L170.368 216.742M169.893 216.742C169.48 216.836 169.169 217.178 169.137 217.606L171.123 217.606C171.092 217.178 170.781 216.836 170.368 216.742M169.893 216.742L170.368 216.742M175.554 217.077L175.671 217.061C175.749 217.061 175.834 217.077 175.905 217.108L175.905 217.599L175.422 217.599L175.422 217.108L175.554 217.077ZM175.905 215.208L175.905 217.061L175.671 217.038L175.43 217.061L175.43 215.208L175.905 215.208ZM170.017 217.077L170.134 217.061C170.212 217.061 170.298 217.077 170.368 217.108L170.368 217.599L169.885 217.599L169.885 217.108L170.017 217.077ZM170.368 215.208L170.368 217.061L170.134 217.038L169.893 217.061L169.893 215.208L170.368 215.208Z" stroke="#1D1D1B" stroke-width="0.48" stroke-miterlimit="10" stroke-linecap="round" stroke-linejoin="round"/>
<path fill-rule="evenodd" clip-rule="evenodd" d="M147.917 217.599L147.917 207.312L161.163 207.312L161.163 217.599L147.917 217.599Z" fill="#F5F7F7" stroke="#1D1D1B" stroke-width="0.48" stroke-miterlimit="10" stroke-linecap="round" stroke-linejoin="round"/>
<path fill-rule="evenodd" clip-rule="evenodd" d="M158.376 216.322L157.005 216.322L157.021 216.197L157.005 216.072L158.376 216.072L158.376 216.322ZM158.376 216.322L157.005 216.322L157.021 216.197L157.005 216.072L158.376 216.072L158.376 216.322ZM157.005 216.08L157.021 216.205L157.005 216.322L156.81 216.322L156.834 216.205L156.826 216.142L156.81 216.08L157.005 216.08ZM157.005 216.08L157.021 216.205L157.005 216.322L156.81 216.322L156.834 216.205L156.826 216.142L156.81 216.08L157.005 216.08ZM156.826 216.142L156.834 216.205L156.81 216.329L156.514 216.329L156.514 216.08L156.81 216.08L156.826 216.142ZM152.574 216.08L152.574 216.329L152.278 216.329L152.255 216.213L152.263 216.15L152.286 216.088L152.574 216.088L152.574 216.08ZM152.574 216.08L152.574 216.329L152.278 216.329L152.255 216.213L152.263 216.15L152.286 216.088L152.574 216.088L152.574 216.08ZM152.076 216.08L152.278 216.08L152.255 216.142L152.247 216.205L152.27 216.322L152.076 216.322L152.06 216.205L152.076 216.08ZM151.811 216.08L152.076 216.08L152.06 216.205L152.076 216.322L150.705 216.322L150.705 216.072L151.811 216.072L151.811 216.08ZM151.811 216.08L152.076 216.08L152.06 216.205L152.076 216.322L150.705 216.322L150.705 216.072L151.811 216.072L151.811 216.08ZM157.005 216.08C156.95 215.854 156.756 215.691 156.507 215.691C156.226 215.691 155.993 215.917 155.993 216.205C155.993 216.485 156.218 216.711 156.507 216.711C156.748 216.711 156.95 216.547 157.005 216.322L157.005 216.08Z" fill="#F5F7F7"/>
<path d="M157.005 216.322L158.376 216.322L158.376 216.072L157.005 216.072L157.021 216.197L157.005 216.322ZM157.005 216.322L157.021 216.205L157.005 216.08M157.005 216.322L156.81 216.322L156.834 216.205M157.005 216.322C156.95 216.547 156.748 216.711 156.507 216.711C156.218 216.711 155.993 216.485 155.993 216.205C155.993 215.917 156.226 215.691 156.507 215.691C156.756 215.691 156.95 215.854 157.005 216.08M157.005 216.322L157.005 216.08M157.005 216.08L156.81 216.08M156.834 216.205L156.826 216.142L156.81 216.08M156.834 216.205L156.81 216.329L156.514 216.329L156.514 216.08L156.81 216.08M152.076 216.08L152.278 216.08L152.255 216.142L152.247 216.205L152.27 216.322L152.076 216.322M152.076 216.08L152.06 216.205L152.076 216.322M152.076 216.08L151.811 216.08L151.811 216.072L150.705 216.072L150.705 216.322L152.076 216.322M152.574 216.08L152.574 216.329L152.278 216.329L152.255 216.213L152.263 216.15L152.286 216.088L152.574 216.088L152.574 216.08Z" stroke="#1D1D1B" stroke-width="0.24" stroke-miterlimit="10" stroke-linecap="round" stroke-linejoin="round"/>
<path fill-rule="evenodd" clip-rule="evenodd" d="M154.817 214.086C155.121 213.954 155.292 213.627 155.222 213.3C155.152 212.973 154.864 212.739 154.529 212.731C154.202 212.731 153.914 212.973 153.843 213.292C153.781 213.619 153.945 213.946 154.248 214.079L154.817 214.079L154.817 214.086Z" fill="#F5F7F7" stroke="#1D1D1B" stroke-width="0.48" stroke-miterlimit="10" stroke-linecap="round" stroke-linejoin="round"/>
<path fill-rule="evenodd" clip-rule="evenodd" d="M154.739 215.956C154.972 216.15 154.832 216.524 154.529 216.524C154.225 216.524 154.092 216.15 154.326 215.956L154.739 215.956ZM154.739 215.73C154.957 215.831 155.081 216.065 155.035 216.306C154.988 216.54 154.778 216.711 154.529 216.711C154.287 216.711 154.077 216.547 154.03 216.306C153.983 216.072 154.1 215.831 154.326 215.73L154.739 215.73ZM154.739 215.956L154.739 216.431L154.334 216.431L154.334 213.214L154.739 213.214L154.739 215.73L154.739 215.956Z" fill="#F5F7F7"/>
<path d="M154.739 215.956C154.972 216.15 154.832 216.524 154.529 216.524C154.225 216.524 154.092 216.15 154.326 215.956L154.739 215.956ZM154.739 215.956L154.739 216.431L154.334 216.431L154.334 213.214L154.739 213.214L154.739 215.73M154.739 215.956L154.739 215.73M154.739 215.73C154.957 215.831 155.081 216.065 155.035 216.306C154.988 216.54 154.778 216.711 154.529 216.711C154.287 216.711 154.077 216.547 154.03 216.306C153.983 216.072 154.1 215.831 154.326 215.73L154.739 215.73Z" stroke="#1D1D1B" stroke-width="0.24" stroke-miterlimit="10" stroke-linecap="round" stroke-linejoin="round"/>
<path d="M154.334 215.099L150.557 215.099C150.285 215.099 150.176 214.982 150.176 214.718L150.176 208.807C150.176 208.534 150.292 208.425 150.557 208.425L158.516 208.425C158.788 208.425 158.897 208.542 158.897 208.807L158.897 214.718C158.897 214.99 158.788 215.099 158.516 215.099L154.739 215.099" stroke="#1D1D1B" stroke-width="0.48" stroke-miterlimit="10" stroke-linecap="round" stroke-linejoin="round"/>
<path fill-rule="evenodd" clip-rule="evenodd" d="M157.005 216.322L158.376 216.322L158.376 216.08L156.507 216.08L156.507 216.322L156.81 216.322L157.005 216.322ZM157.005 216.322L158.376 216.322L158.376 216.08L156.507 216.08L156.507 216.322L156.81 216.322L157.005 216.322ZM152.076 216.08C152.13 215.854 152.325 215.691 152.574 215.691C152.854 215.691 153.088 215.917 153.088 216.205C153.088 216.485 152.862 216.711 152.574 216.711C152.333 216.711 152.13 216.547 152.076 216.322L152.076 216.08ZM152.076 216.322L150.705 216.322L150.705 216.08L152.574 216.08L152.574 216.322L152.278 216.322L152.076 216.322ZM152.076 216.322L150.705 216.322L150.705 216.08L152.574 216.08L152.574 216.322L152.278 216.322L152.076 216.322ZM154.739 215.956L154.739 216.431L154.334 216.431L154.334 213.214L154.739 213.214L154.739 215.73L154.739 215.956Z" fill="#F5F7F7"/>
<path d="M152.076 216.322C152.13 216.547 152.333 216.711 152.574 216.711C152.862 216.711 153.088 216.485 153.088 216.205C153.088 215.917 152.854 215.691 152.574 215.691C152.325 215.691 152.13 215.854 152.076 216.08L152.076 216.322ZM152.076 216.322L150.705 216.322L150.705 216.08L152.574 216.08L152.574 216.322L152.278 216.322L152.076 216.322ZM157.005 216.322L158.376 216.322L158.376 216.08L156.507 216.08L156.507 216.322L156.81 216.322L157.005 216.322ZM154.739 215.956L154.739 216.431L154.334 216.431L154.334 213.214L154.739 213.214L154.739 215.73L154.739 215.956Z" stroke="#1D1D1B" stroke-width="0.24" stroke-miterlimit="10" stroke-linecap="round" stroke-linejoin="round"/>
<path fill-rule="evenodd" clip-rule="evenodd" d="M143.969 161.398L143.969 148.152L157.215 148.152L157.215 161.398L143.969 161.398ZM143.969 149.538L143.969 148.292L157.215 148.292L157.215 149.538L143.969 149.538ZM156.67 148.292L152.154 148.292C152.154 148.027 152.232 147.848 152.387 147.848L156.437 147.848C156.592 147.848 156.67 148.027 156.67 148.292Z" fill="#F5F7F7" stroke="#1D1D1B" stroke-width="0.48" stroke-miterlimit="10" stroke-linecap="round" stroke-linejoin="round"/>
<path d="M147.769 153.595L147.769 155.589M148.47 153.891L147.061 155.293M148.47 155.293L147.061 153.891M148.782 154.623L146.695 154.623M150.534 153.595L150.534 155.589M151.243 153.891L149.833 155.293M151.243 155.293L149.833 153.891M151.554 154.623L149.459 154.623M153.361 153.595L153.361 155.589M154.062 153.891L152.652 155.293M154.062 155.293L152.652 153.891M154.373 154.623L152.286 154.623" stroke="#1D1D1B" stroke-width="0.274" stroke-miterlimit="22.926" stroke-linecap="round" stroke-linejoin="round"/>
<path d="M167.861 125.032L167.611 125.032C167.572 125.039 167.541 125.071 167.533 125.11L167.533 134.883C167.541 134.922 167.572 134.953 167.611 134.96L167.822 134.96" stroke="#1D1D1B" stroke-width="0.48" stroke-miterlimit="10" stroke-linecap="round" stroke-linejoin="round"/>
<path fill-rule="evenodd" clip-rule="evenodd" d="M168.04 134.96L168.04 125.024L181.286 125.024L181.286 134.96L168.04 134.96Z" fill="#F5F7F7" stroke="#1D1D1B" stroke-width="0.48" stroke-miterlimit="10" stroke-linecap="round" stroke-linejoin="round"/>
<path d="M175.198 130.358L175.188 130.358" stroke="#1D1D1B" stroke-width="0.216" stroke-miterlimit="22.926"/>
<path d="M179.253 127.547C178.662 127.119 177.867 127.088 177.244 127.461C176.621 127.843 176.279 128.559 176.38 129.284C176.442 129.696 176.637 130.062 176.925 130.343M179.253 126.846C178.443 126.449 177.478 126.535 176.754 127.064C176.029 127.594 175.656 128.489 175.788 129.377C175.866 129.907 176.115 130.382 176.473 130.74" stroke="#1D1D1B" stroke-width="0.368" stroke-miterlimit="22.926" stroke-linejoin="bevel"/>
<path d="M176.411 131.643L174.83 131.635L174.83 132.647L174.83 130.615M179.269 132.686L179.269 130.568C179.16 130.56 179.035 130.545 178.911 130.521C178.342 130.451 177.602 130.358 177.267 130.49L177.197 130.521L177.174 130.537L177.135 130.56L176.972 130.685L176.831 130.841L176.816 130.864C176.746 130.965 176.699 131.074 176.66 131.191C176.621 131.316 176.598 131.44 176.598 131.573L176.598 131.666C176.606 131.799 176.621 131.923 176.66 132.048C176.699 132.165 176.746 132.274 176.808 132.367L176.816 132.375L176.831 132.398L176.972 132.554L177.135 132.679L177.174 132.702L177.174 132.71L177.197 132.725L177.267 132.756C177.61 132.889 178.35 132.795 178.918 132.725L179.269 132.686Z" stroke="#1D1D1B" stroke-width="0.48" stroke-miterlimit="22.926" stroke-linecap="round" stroke-linejoin="round"/>
<path fill-rule="evenodd" clip-rule="evenodd" d="M173.319 128.419L171.941 127.726L173.319 127.033C173.646 126.87 174.043 126.955 174.269 127.236C174.495 127.524 174.495 127.929 174.269 128.209C174.043 128.497 173.646 128.583 173.319 128.419Z" fill="#F5F7F7" stroke="#1D1D1B" stroke-width="0.48" stroke-miterlimit="10" stroke-linecap="round" stroke-linejoin="round"/>
<path d="M177.166 130.537C176.683 130.21 176.364 129.657 176.364 129.027C176.364 128.014 177.182 127.197 178.194 127.197C178.599 127.197 178.973 127.329 179.277 127.547M176.738 130.942C176.162 130.506 175.788 129.813 175.788 129.027C175.788 127.703 176.862 126.62 178.194 126.62C178.583 126.62 178.942 126.714 179.269 126.87M179.277 125.943L179.277 133.948" stroke="#1D1D1B" stroke-width="0.48" stroke-miterlimit="22.926" stroke-linecap="round" stroke-linejoin="round"/>
<path fill-rule="evenodd" clip-rule="evenodd" d="M172.05 95.1987L172.05 42.9775L181.255 42.9775L181.255 95.1987L172.05 95.1987Z" fill="#F5F7F7" stroke="#1D1D1B" stroke-width="0.48" stroke-miterlimit="10" stroke-linecap="round" stroke-linejoin="round"/>
<path fill-rule="evenodd" clip-rule="evenodd" d="M178.194 79.7954L179.502 79.7954L180.811 72.5688L180.811 58.1235L179.502 51.1539L179.502 50.8969L178.194 50.8969L178.194 79.7954Z" fill="#F5F7F7"/>
<path d="M179.502 50.8969L178.194 50.8969L178.194 79.7954L179.502 79.7954M179.502 50.8969L180.811 58.1235L180.811 72.5688L179.502 79.7954M179.502 50.8969L179.502 79.7954M178.716 52.8204L178.716 54.7516L179.043 54.7516L179.043 52.8204L178.716 52.8204ZM178.716 55.2266L178.716 57.1579L179.043 57.1579L179.043 55.2266L178.716 55.2266ZM178.716 57.6407L178.716 58.5985L179.043 58.5985L179.043 57.6407L178.716 57.6407Z" stroke="#1D1D1B" stroke-width="0.48" stroke-miterlimit="10" stroke-linecap="round" stroke-linejoin="round"/>
<path fill-rule="evenodd" clip-rule="evenodd" d="M124.33 83.6738L143.806 83.6738L143.806 87.4194L121.737 87.4194L121.737 83.6738L124.33 83.6738ZM124.33 47.0192L124.33 83.6738L121.737 83.6738L121.737 47.0192L124.33 47.0192ZM143.806 43.2735L143.806 47.0192L121.737 47.0192L121.737 43.2735L143.806 43.2735ZM124.33 47.0192L124.33 65.3504L126.043 65.3504L126.043 47.0192L125.365 47.0192L124.33 47.0192ZM126.043 83.6738L126.043 65.3426L128.644 65.3426L128.644 83.6738L126.043 83.6738ZM128.644 83.6738L128.644 65.3426L143.806 65.3426L143.806 83.6738L128.644 83.6738ZM128.644 65.3504L128.644 47.0192L143.806 47.0192L143.806 65.3504L128.644 65.3504ZM126.043 47.0192L126.043 65.3504L128.644 65.3504L128.644 47.0192L127.616 47.0192L126.043 47.0192ZM124.33 65.4205L124.33 83.7439L126.043 83.7439L126.043 65.4205L125.365 65.4205L124.33 65.4205Z" fill="#F5F7F7"/>
<path d="M124.33 83.6738L143.806 83.6738M124.33 83.6738L121.737 83.6738M124.33 83.6738L124.33 47.0192M143.806 83.6738L143.806 87.4194L121.737 87.4194L121.737 83.6738M143.806 83.6738L143.806 65.3426L128.644 65.3426M143.806 83.6738L128.644 83.6738M121.737 83.6738L121.737 47.0192M124.33 47.0192L121.737 47.0192M124.33 47.0192L124.33 65.3504L126.043 65.3504M124.33 47.0192L125.365 47.0192L126.043 47.0192M121.737 47.0192L143.806 47.0192M121.737 47.0192L121.737 43.2735L143.806 43.2735L143.806 47.0192M143.806 47.0192L128.644 47.0192M143.806 47.0192L143.806 65.3504L128.644 65.3504M126.043 65.3504L126.043 47.0192M126.043 65.3504L128.644 65.3504M126.043 47.0192L127.616 47.0192L128.644 47.0192M128.644 65.3426L126.043 65.3426L126.043 83.6738L128.644 83.6738M128.644 65.3426L128.644 83.6738M128.644 65.3504L128.644 47.0192M124.33 65.4205L124.33 83.7439L126.043 83.7439L126.043 65.4205L125.365 65.4205L124.33 65.4205Z" stroke="#1D1D1B" stroke-width="0.48" stroke-miterlimit="10" stroke-linecap="round" stroke-linejoin="round"/>
<path d="M164.761 65.6151C164.761 60.738 160.807 56.7843 155.93 56.7843C151.053 56.7843 147.1 60.738 147.1 65.6151C147.1 70.4921 151.053 74.4458 155.93 74.4458C160.807 74.4458 164.761 70.4921 164.761 65.6151Z" fill="#F5F7F7" stroke="#1D1D1B" stroke-width="0.48" stroke-miterlimit="10" stroke-linecap="round" stroke-linejoin="round"/>
<path fill-rule="evenodd" clip-rule="evenodd" d="M119.447 38.531L92.6824 29.3109L92.3631 30.2609L88.1658 42.3389L119.447 53.1087L119.447 38.531ZM105.228 48.1872L93.6091 44.239L92.7369 45.3604C92.5344 45.6252 92.5811 46.0067 92.8459 46.2092L101.046 52.5792C101.311 52.7817 101.692 52.7349 101.895 52.4702L105.228 48.1872ZM99.979 54.1522L91.5844 47.6343C91.3741 47.4707 91.3352 47.167 91.4987 46.949L91.9036 46.4273C92.0672 46.217 92.3709 46.1781 92.5889 46.3416L100.984 52.8595C101.194 53.0231 101.233 53.3268 101.069 53.5448L100.664 54.0665C100.493 54.2768 100.189 54.3157 99.979 54.1522Z" fill="#F5F7F7" stroke="#1D1D1B" stroke-width="0.48" stroke-miterlimit="10" stroke-linecap="round" stroke-linejoin="round"/>
<path d="M100.055 54.2144C99.9057 54.0984 99.6904 54.1256 99.5744 54.2751C99.4584 54.4246 99.4856 54.6398 99.6351 54.7558C99.7846 54.8718 99.9998 54.8446 100.116 54.6951C100.232 54.5456 100.205 54.3304 100.055 54.2144Z" fill="#F5F7F7" stroke="#1D1D1B" stroke-width="0.48" stroke-miterlimit="10" stroke-linecap="round" stroke-linejoin="round"/>
<path d="M91.4519 47.524C91.3024 47.408 91.0872 47.4351 90.9712 47.5846C90.8552 47.7341 90.8823 47.9494 91.0318 48.0654C91.1813 48.1814 91.3965 48.1542 91.5125 48.0047C91.6285 47.8552 91.6014 47.64 91.4519 47.524Z" fill="#F5F7F7" stroke="#1D1D1B" stroke-width="0.48" stroke-miterlimit="10" stroke-linecap="round" stroke-linejoin="round"/>
<path d="M53.2244 33.321L59.2517 35.4391M59.2517 35.4391L91.2573 24.1866M59.2517 35.4391L59.2439 40.0103M91.2573 24.1866L123.263 35.4391M91.2573 24.1866L91.2573 28.7733M123.263 35.4391L155.268 24.1944M123.263 35.4391L123.263 39.9869M155.268 24.1944L186.768 35.26M155.268 24.1944L155.268 28.8122M59.2439 40.0103L53.2244 37.8999M59.2439 40.0103L91.2573 28.7655L123.263 39.9869M123.263 39.9869L155.268 28.7733L186.776 39.8078M53.2244 34.1465L59.2517 36.2646L91.2573 25.0198L123.263 36.2646L155.268 25.0276L186.768 36.0933M53.2244 34.5903L59.2439 36.7085L91.2495 25.4637L123.255 36.7085L155.261 25.4714L186.76 36.5371M53.2244 35.4781L59.2517 37.5962L91.2573 26.3436L123.263 37.5962L155.268 26.3514L186.768 37.4171" stroke="#1D1D1B" stroke-width="0.48" stroke-miterlimit="22.926" stroke-linecap="round" stroke-linejoin="round"/>
<path fill-rule="evenodd" clip-rule="evenodd" d="M53.2243 33.3366L59.2439 35.4548L59.2439 40.0259L59.2361 40.0259L53.2166 37.9155L53.2166 33.3366L53.2243 33.3366ZM91.2573 24.2022L123.263 35.4548L123.263 40.0025L91.2573 28.7811L91.2573 24.2022ZM155.268 24.21L186.776 35.2756L186.776 39.8312L155.268 28.7967L155.268 24.21Z" fill="#C1C1BA" stroke="#1D1D1B" stroke-width="0.48" stroke-miterlimit="22.926" stroke-linejoin="round"/>
<path fill-rule="evenodd" clip-rule="evenodd" d="M83.8516 207.787L83.8516 204.804L83.4077 204.804L83.4077 206.954L82.2085 205.723C81.6711 205.178 81.1338 204.828 80.5887 204.828C79.8256 204.828 79.335 205.349 79.335 206.175C79.335 207.024 79.8879 207.553 80.76 207.623L80.76 207.117C80.0592 207.031 79.771 206.697 79.771 206.175C79.771 205.669 80.067 205.381 80.5653 205.381C81.017 205.381 81.4219 205.614 81.858 206.019L83.7192 207.787L83.8516 207.787ZM84.6225 203.956L83.322 203.192L83.0806 203.691L84.4434 204.29L84.6225 203.956ZM83.9139 201.105C83.9139 200.257 83.3376 199.579 82.4031 199.579C81.492 199.579 80.9236 200.163 80.9236 200.965C80.9236 201.386 81.0637 201.697 81.2273 201.876L79.8723 201.876L79.8723 199.82L79.405 199.82L79.405 202.328L81.7879 202.328L81.7879 202.126C81.5232 201.892 81.3596 201.588 81.3596 201.074C81.3596 200.506 81.7724 200.14 82.4031 200.14C83.0728 200.14 83.4778 200.514 83.4778 201.121C83.4778 201.798 83.1429 201.993 82.6523 202.079L82.6523 202.593C83.3843 202.523 83.9139 202.063 83.9139 201.105ZM83.8516 163.454L83.8516 160.472L83.4077 160.472L83.4077 162.621L82.2085 161.39C81.6711 160.845 81.1338 160.495 80.5887 160.495C79.8256 160.495 79.335 161.017 79.335 161.842C79.335 162.691 79.8879 163.22 80.76 163.291L80.76 162.784C80.0592 162.699 79.771 162.364 79.771 161.842C79.771 161.336 80.067 161.048 80.5653 161.048C81.017 161.048 81.4219 161.281 81.858 161.686L83.7192 163.454L83.8516 163.454ZM84.6225 159.623L83.322 158.86L83.0806 159.358L84.4434 159.958L84.6225 159.623ZM83.9139 156.773C83.9139 155.924 83.3376 155.246 82.4031 155.246C81.492 155.246 80.9236 155.83 80.9236 156.632C80.9236 157.053 81.0637 157.364 81.2273 157.544L79.8723 157.544L79.8723 155.488L79.405 155.488L79.405 157.995L81.7879 157.995L81.7879 157.793C81.5232 157.559 81.3596 157.255 81.3596 156.741C81.3596 156.173 81.7724 155.807 82.4031 155.807C83.0728 155.807 83.4778 156.181 83.4778 156.788C83.4778 157.466 83.1429 157.66 82.6523 157.746L82.6523 158.26C83.3843 158.19 83.9139 157.73 83.9139 156.773ZM94.4344 105.579L94.4344 105.034L89.9801 105.034L89.9801 105.54L90.7277 106.576L91.2339 106.576L90.5174 105.579L94.4344 105.579ZM94.4889 102.316C94.4889 101.374 93.8893 100.774 93.0016 100.774C92.1839 100.774 91.5454 101.351 91.5454 102.231C91.5454 102.745 91.7868 103.165 92.1528 103.375C90.9769 103.352 90.3695 102.877 90.3695 102.207C90.3695 101.709 90.5953 101.483 91.008 101.382L91.008 100.868C90.2916 100.985 89.9334 101.475 89.9334 102.168C89.9334 103.189 90.7666 103.913 92.3708 103.913L92.4798 103.913C93.5778 103.921 94.4889 103.531 94.4889 102.316ZM94.0684 102.316C94.0684 102.916 93.6791 103.344 92.9549 103.344C92.3786 103.344 91.9737 102.924 91.9737 102.324C91.9737 101.717 92.3942 101.335 93.0327 101.335C93.6557 101.335 94.0684 101.732 94.0684 102.316ZM95.1976 100.035L93.8971 99.2716L93.6635 99.7699L95.0263 100.37L95.1976 100.035ZM94.4344 96.6161L94.4344 96.0866L93.5 96.0866L93.5 95.4714L93.0561 95.4714L93.0561 96.0866L89.9801 96.0866L89.9801 96.8108L93.3286 98.851L93.5 98.851L93.5 96.6239L94.4344 96.6239L94.4344 96.6161ZM93.0561 98.158L90.3928 96.6161L93.0561 96.6161L93.0561 98.158ZM117.383 208.628C117.383 207.779 116.807 207.102 115.873 207.102C114.962 207.102 114.393 207.686 114.393 208.488C114.393 208.908 114.533 209.22 114.697 209.399L113.342 209.399L113.342 207.343L112.875 207.343L112.875 209.85L115.258 209.85L115.258 209.648C114.993 209.414 114.829 209.111 114.829 208.597C114.829 208.028 115.242 207.662 115.873 207.662C116.542 207.662 116.947 208.036 116.947 208.643C116.947 209.321 116.613 209.516 116.122 209.601L116.122 210.115C116.854 210.053 117.383 209.586 117.383 208.628ZM118.092 206.409L116.792 205.645L116.55 206.152L117.913 206.751L118.092 206.409ZM115.328 203.512C115.328 204.119 114.907 204.501 114.269 204.501C113.638 204.501 113.225 204.103 113.225 203.519C113.225 202.92 113.63 202.492 114.362 202.492C114.946 202.492 115.328 202.92 115.328 203.512ZM117.376 203.597C117.376 202.53 116.558 201.923 115.086 201.923L114.806 201.923C113.521 201.923 112.812 202.468 112.812 203.527C112.812 204.469 113.412 205.069 114.3 205.069C115.141 205.069 115.756 204.469 115.756 203.605C115.756 203.091 115.522 202.663 115.164 202.453C116.348 202.468 116.932 202.881 116.932 203.59C116.932 204.166 116.667 204.415 116.231 204.508L116.231 205.03C116.947 204.913 117.376 204.415 117.376 203.597ZM157.636 203.543L157.636 200.56L157.192 200.56L157.192 202.71L155.993 201.479C155.455 200.934 154.918 200.584 154.373 200.584C153.61 200.584 153.119 201.105 153.119 201.931C153.119 202.78 153.672 203.309 154.544 203.379L154.544 202.873C153.843 202.787 153.555 202.453 153.555 201.931C153.555 201.425 153.851 201.137 154.35 201.137C154.801 201.137 155.206 201.37 155.642 201.775L157.503 203.543L157.636 203.543ZM158.407 199.711L157.098 198.948L156.865 199.454L158.228 200.054L158.407 199.711ZM157.69 196.783C157.69 196.028 157.246 195.249 156.359 195.249C155.782 195.249 155.401 195.584 155.214 196.106C155.035 195.693 154.723 195.421 154.272 195.421C153.571 195.421 153.127 196.09 153.127 196.783C153.127 197.469 153.563 198.154 154.287 198.154C154.723 198.154 155.058 197.905 155.222 197.484C155.393 197.959 155.775 198.325 156.374 198.325C157.254 198.318 157.69 197.508 157.69 196.783ZM155.027 196.76C155.027 197.212 154.762 197.601 154.295 197.601C153.836 197.601 153.555 197.243 153.555 196.776C153.555 196.316 153.851 195.958 154.287 195.958C154.754 195.966 155.027 196.285 155.027 196.76ZM157.254 196.783C157.254 197.297 156.943 197.765 156.359 197.765C155.767 197.765 155.463 197.297 155.463 196.768C155.463 196.238 155.759 195.802 156.351 195.802C156.935 195.802 157.254 196.231 157.254 196.783ZM157.636 91.7569L157.636 91.2195L153.181 91.2195L153.181 91.7257L153.929 92.7536L154.435 92.7536L153.719 91.7569L157.636 91.7569ZM157.636 88.128L157.636 87.5985L156.701 87.5985L156.701 86.9833L156.257 86.9833L156.257 87.5985L153.181 87.5985L153.181 88.3227L156.53 90.3629L156.701 90.3629L156.701 88.1358L157.636 88.1358L157.636 88.128ZM156.257 89.6699L153.594 88.128L156.257 88.128L156.257 89.6699ZM158.407 86.2591L157.098 85.4959L156.865 85.9943L158.228 86.5939L158.407 86.2591ZM157.69 83.4011C157.69 82.4589 157.091 81.8593 156.203 81.8593C155.385 81.8593 154.747 82.4355 154.747 83.3155C154.747 83.8294 154.988 84.2499 155.354 84.4602C154.178 84.4368 153.571 83.9618 153.571 83.2921C153.571 82.7937 153.797 82.5679 154.209 82.4667L154.209 81.9527C153.493 82.0695 153.135 82.5601 153.135 83.2532C153.135 84.2733 153.968 84.9975 155.572 84.9975L155.681 84.9975C156.787 84.9975 157.69 84.6159 157.69 83.4011ZM157.27 83.4011C157.27 84.0008 156.88 84.4291 156.156 84.4291C155.58 84.4291 155.175 84.0085 155.175 83.4089C155.175 82.8015 155.595 82.4199 156.234 82.4199C156.857 82.4122 157.27 82.8171 157.27 83.4011Z" fill="#1D1D1B"/>
</g>
<defs>
<clipPath id="clip0_191_10257">
<rect width="212" height="133.925" fill="white" transform="translate(53.0374 236) rotate(-90)"/>
</clipPath>
</defs>
</svg>
