<svg width="96" height="26" viewBox="0 0 96 26" fill="none" xmlns="http://www.w3.org/2000/svg">
<path d="M21.3525 0.630533L28.4697 12.9997L21.3525 25.3698H7.11816L0 12.9997L7.11816 0.630533H21.3525ZM13.8477 13.4323L13.7256 13.6686H13.7197L8.26758 24.1999H8.27441L8.15137 24.4362H20.8164L20.8848 24.318L26.9453 13.7868L27.1484 13.4323H13.8477ZM1.07324 12.9997L1.1416 13.1178L7.14844 23.5573L7.36523 23.9323L12.9854 13.0739L13.043 12.9655L7.36621 2.06608L1.07324 12.9997ZM12.5098 12.9655L7.34277 22.946L7.33887 22.9401L12.5039 12.9665L7.34082 3.05436L7.34473 3.04948L12.5098 12.9655ZM8.15332 1.56413L8.27734 1.80143H8.27148L13.7188 12.2614H13.7246L13.8477 12.4977H27.1084L20.8848 1.68327L20.8164 1.56413H8.15332Z" fill="#EBE9E1"/>
<path fill-rule="evenodd" clip-rule="evenodd" d="M48.6735 15.0192H40.8331V7.50432H46.0493V6.80222H40.8331V0.691522H48.6735V3.73715e-05H38.2198V15.7213H48.6735V15.0192Z" fill="#EBE9E1"/>
<path fill-rule="evenodd" clip-rule="evenodd" d="M54.2667 8.2174V0.691485H57.1973C58.2323 0.691485 59.1164 1.05886 59.8491 1.79402C60.5814 2.52877 60.948 3.41579 60.948 4.45424C60.948 5.48576 60.5814 6.37073 59.8491 7.10915C59.1164 7.84799 58.2323 8.2174 57.1973 8.2174H54.2667ZM61.3415 8.30516C62.0124 7.90309 62.5477 7.36549 62.9489 6.69237C63.3496 6.01967 63.5506 5.27349 63.5506 4.45424C63.5506 3.6354 63.3496 2.88922 62.9489 2.2161C62.5477 1.5434 62.0124 1.0058 61.3415 0.603724C60.671 0.201242 59.9272 0 59.1107 0H51.6536V15.7213H54.2667V8.90848H55.8742L60.8166 15.7213H64.0535L59.1107 8.90848C59.9272 8.90848 60.671 8.70724 61.3415 8.30516Z" fill="#EBE9E1"/>
<path fill-rule="evenodd" clip-rule="evenodd" d="M77.3658 10.5651C77.0956 11.4284 76.6965 12.1926 76.1684 12.8579C75.6395 13.5237 74.9853 14.0503 74.2054 14.4381C73.4254 14.8258 72.5255 15.0193 71.5047 15.0193H68.8691V0.691235H71.5047C72.8168 0.691235 73.9393 1.01495 74.8726 1.66235C75.8055 2.30934 76.522 3.17471 77.0212 4.25684C77.5204 5.33937 77.7702 6.53866 77.7702 7.8555C77.7702 8.79884 77.6351 9.70218 77.3658 10.5651ZM79.3232 3.91109C78.6156 2.72283 77.6701 1.77377 76.4853 1.06433C75.3006 0.354882 73.9865 0.000161943 72.5434 0.000161943H66.2559V15.7214H72.5434C73.9865 15.7214 75.3006 15.3667 76.4853 14.6573C77.6701 13.9478 78.6156 12.9992 79.3232 11.8105C80.0299 10.6218 80.3838 9.30745 80.3838 7.86611C80.3838 6.41824 80.0299 5.10016 79.3232 3.91109Z" fill="#EBE9E1"/>
<path fill-rule="evenodd" clip-rule="evenodd" d="M86.4526 3.10495L89.4706 9.61077H83.4346L86.4526 3.10495ZM83.1066 10.3019H89.7989L92.3136 15.7215H95.2002L87.8961 0.000211772H87.1308L79.8262 15.7215H80.5915L83.1066 10.3019Z" fill="#EBE9E1"/>
<path fill-rule="evenodd" clip-rule="evenodd" d="M42.4335 22.5504H39.2735V19.5212H38.2197V25.8584H39.2735V22.8292H42.4335V25.8584H43.4868V19.5212H42.4335V22.5504Z" fill="#EBE9E1"/>
<path fill-rule="evenodd" clip-rule="evenodd" d="M52.7039 23.6937C52.6201 24.0284 52.4899 24.3415 52.3138 24.6334C52.1669 24.8754 51.9854 25.0889 51.7694 25.2746C51.5533 25.4604 51.3076 25.5918 51.0309 25.6681C50.8958 25.7036 50.7579 25.7212 50.6168 25.7212C50.4788 25.7212 50.3405 25.7036 50.2026 25.6681C49.9264 25.5918 49.6802 25.4604 49.4642 25.2746C49.2481 25.0889 49.0667 24.8754 48.9198 24.6334C48.7436 24.3415 48.6138 24.0284 48.5296 23.6937C48.4458 23.359 48.4043 23.0234 48.4043 22.6875C48.4043 22.3515 48.4458 22.0164 48.5296 21.6817C48.6138 21.347 48.7436 21.0335 48.9198 20.7416C49.0667 20.5 49.2481 20.2861 49.4642 20.1007C49.6802 19.9146 49.9264 19.7836 50.2026 19.7068C50.3405 19.6717 50.4788 19.6538 50.6168 19.6538C50.7579 19.6538 50.8958 19.6717 51.0309 19.7068C51.3076 19.7836 51.5533 19.9146 51.7694 20.1007C51.9854 20.2861 52.1669 20.5 52.3138 20.7416C52.4899 21.0335 52.6201 21.347 52.7039 21.6817C52.7877 22.0164 52.8292 22.3515 52.8292 22.6875C52.8292 23.0234 52.7877 23.359 52.7039 23.6937ZM53.2832 20.7306C53.0806 20.4551 52.8418 20.2163 52.5672 20.0142C52.2922 19.8126 51.9899 19.6554 51.6591 19.5436C51.3288 19.4313 50.9813 19.3754 50.6168 19.3754C50.2526 19.3754 49.9048 19.4313 49.5744 19.5436C49.2436 19.6554 48.941 19.8126 48.6663 20.0142C48.3917 20.2163 48.1537 20.4551 47.9523 20.7306C47.7509 21.0065 47.5947 21.3102 47.4828 21.6417C47.3713 21.9736 47.3156 22.3221 47.3156 22.6875C47.3156 23.0532 47.3713 23.4018 47.4828 23.7333C47.5947 24.0651 47.7509 24.3688 47.9523 24.6448C48.1537 24.9203 48.3917 25.1599 48.6663 25.3632C48.941 25.5665 49.2436 25.7236 49.5744 25.8339C49.9048 25.9449 50.2526 26 50.6168 26C50.9813 26 51.3288 25.9449 51.6591 25.8339C51.9899 25.7236 52.2922 25.5665 52.5672 25.3632C52.8418 25.1599 53.0806 24.9203 53.2832 24.6448C53.4863 24.3688 53.6433 24.0651 53.7552 23.7333C53.8667 23.4018 53.9224 23.0532 53.9224 22.6875C53.9224 22.3221 53.8667 21.9736 53.7552 21.6417C53.6433 21.3102 53.4863 21.0065 53.2832 20.7306Z" fill="#EBE9E1"/>
<path fill-rule="evenodd" clip-rule="evenodd" d="M58.8046 19.5213H57.7513V25.8582H61.965V25.5753H58.8046V19.5213Z" fill="#EBE9E1"/>
<path fill-rule="evenodd" clip-rule="evenodd" d="M70.2716 23.78C70.163 24.1278 70.0018 24.436 69.7891 24.7041C69.5759 24.9723 69.3122 25.1846 68.9982 25.3409C68.6833 25.4973 68.3203 25.5752 67.909 25.5752H66.8468V19.7997H67.909C68.4379 19.7997 68.8904 19.9303 69.2667 20.1911C69.6426 20.452 69.9314 20.801 70.1328 21.2369C70.3338 21.6733 70.4347 22.157 70.4347 22.6877C70.4347 23.0681 70.3802 23.4322 70.2716 23.78ZM69.9168 19.9499C69.4392 19.6641 68.9094 19.5213 68.3276 19.5213H65.7934V25.8581H68.3276C68.9094 25.8581 69.4392 25.7156 69.9168 25.4295C70.3944 25.1438 70.7757 24.7609 71.0605 24.2817C71.3457 23.8028 71.4881 23.273 71.4881 22.6917C71.4881 22.108 71.3457 21.5769 71.0605 21.0977C70.7757 20.6185 70.3944 20.236 69.9168 19.9499Z" fill="#EBE9E1"/>
<path fill-rule="evenodd" clip-rule="evenodd" d="M75.3165 25.8583H76.3699V19.5211H75.3165V25.8583Z" fill="#EBE9E1"/>
<path fill-rule="evenodd" clip-rule="evenodd" d="M85.3643 24.3901L80.5074 19.5211H80.1985V25.8584H80.4809V20.9849L85.3334 25.8584H85.6418V19.5211H85.3643V24.3901Z" fill="#EBE9E1"/>
<path fill-rule="evenodd" clip-rule="evenodd" d="M92.5472 22.8246H94.1823V25.4297H94.1782C93.9545 25.5767 93.7108 25.6681 93.4463 25.7036C93.3523 25.7155 93.2567 25.7212 93.1599 25.7212H93.1025C92.8702 25.7065 92.6456 25.6579 92.4284 25.5755C92.0785 25.4371 91.7697 25.2346 91.5024 24.9693C91.194 24.666 90.9605 24.3166 90.8018 23.9215C90.6431 23.5263 90.5638 23.1153 90.5638 22.6879C90.5638 22.3842 90.6024 22.0854 90.6805 21.7919C90.7582 21.4988 90.8783 21.2208 91.0398 20.9588C91.1834 20.7196 91.3583 20.5069 91.5642 20.3195C91.7697 20.1322 92.002 19.9811 92.2607 19.866C92.5691 19.7277 92.891 19.6583 93.2258 19.6583C93.5814 19.6583 93.917 19.7325 94.2332 19.8815C94.5489 20.0305 94.8271 20.2363 95.0684 20.4983L95.271 20.295C94.9419 19.9942 94.5737 19.766 94.1669 19.6097C93.76 19.4534 93.336 19.3754 92.895 19.3754C92.3429 19.3754 91.8193 19.4987 91.3242 19.7448C90.8286 19.9905 90.4153 20.3424 90.0833 20.7992C89.6748 21.3772 89.4706 22.0066 89.4706 22.6879C89.4706 23.3688 89.6748 23.9982 90.0833 24.5758C90.4153 25.033 90.8286 25.3844 91.3242 25.6306C91.8193 25.8767 92.3429 26 92.895 26C93.336 26 93.7608 25.9208 94.1693 25.7632C94.5778 25.6057 94.9452 25.3763 95.271 25.0758V22.5463H92.5472V22.8246Z" fill="#EBE9E1"/>
</svg>
