<svg width="203" height="39" viewBox="0 0 203 39" fill="none" xmlns="http://www.w3.org/2000/svg">
<rect width="203" height="32" rx="16" fill="#1D1D1B"/>
<path d="M16.912 16.288C16.912 12.912 19.712 10.496 24.096 10.48C28.48 10.48 31.248 12.928 31.232 16.256C31.232 19.568 28.56 22.32 24.064 22.32C19.68 22.32 16.912 19.632 16.912 16.288ZM24.112 21.856C27.44 21.856 29.216 18.832 29.216 16.304C29.216 14 27.744 10.944 24.032 10.944C20.384 10.944 18.928 13.888 18.928 16.192C18.928 18.736 20.736 21.856 24.112 21.856ZM40.6366 22V20.416C35.7086 20.416 33.6766 18.368 33.6766 16.336C33.6766 14.4 35.7086 12.352 40.6366 12.352V10.8H42.7006V12.352C47.6606 12.352 49.6606 14.352 49.6606 16.336C49.6606 18.32 47.6606 20.416 42.7006 20.416V22H40.6366ZM42.7006 12.816V19.952C47.1646 19.952 47.5966 17.44 47.5966 16.32C47.5966 15.12 47.1006 12.816 42.7006 12.816ZM40.6366 19.952V12.816C36.4286 12.816 35.7086 15.072 35.7086 16.32C35.7086 17.44 36.4126 19.952 40.6366 19.952ZM64.9694 22H62.9214V12.208L54.7454 22H52.9054V10.8H54.9534V20.784L62.1694 10.8H64.9694V22ZM68.5351 16.288C68.5351 13.056 71.5111 10.48 75.7191 10.48C78.1351 10.48 80.0711 11.296 81.3031 12.56L80.8551 13.504C79.6711 11.536 77.7511 10.944 75.8631 10.944C72.3111 10.944 70.5831 13.888 70.5831 16.192C70.5831 18.736 72.6791 21.856 75.9271 21.856C77.7671 21.856 79.6711 21.232 80.9831 18.864L81.5911 19.76C80.4231 21.28 78.3751 22.32 75.6871 22.32C71.4471 22.32 68.5351 19.488 68.5351 16.288ZM92.0452 22H89.9972V10.8H101.053V22H99.0212V11.248H92.0452V22ZM107.545 22H105.497V10.8H111.017C114.473 10.8 116.329 12.624 116.329 14.624C116.329 16.608 114.473 18.48 111.017 18.48H107.545V22ZM107.545 18.016H110.473C113.209 18.016 114.281 16.32 114.281 14.64C114.281 12.96 113.225 11.264 110.473 11.264H107.545V18.016ZM118.689 16.288C118.689 12.912 121.489 10.496 125.873 10.48C130.257 10.48 133.025 12.928 133.009 16.256C133.009 19.568 130.337 22.32 125.841 22.32C121.457 22.32 118.689 19.632 118.689 16.288ZM125.889 21.856C129.217 21.856 130.993 18.832 130.993 16.304C130.993 14 129.521 10.944 125.809 10.944C122.161 10.944 120.705 13.888 120.705 16.192C120.705 18.736 122.513 21.856 125.889 21.856ZM137.918 21.536H138.094C140.014 19.68 140.062 16.176 140.062 11.2V10.8H148.862V21.52H148.99C151.006 21.52 151.678 22.88 151.678 24.256H149.582C149.582 23.728 149.662 22 148.654 22H138.094C137.15 22 137.294 23.68 137.294 24.256H135.198C135.198 22.912 135.918 21.536 137.918 21.536ZM146.814 11.264H142.094C142.094 17.088 140.974 19.808 138.766 21.536H146.814V11.264ZM163.157 22L161.765 18.384H156.501L155.109 22H152.901L158.405 10.8H159.861L165.365 22H163.157ZM156.677 17.904H161.589L159.125 11.52L156.677 17.904ZM175.337 10.8H177.369V15.696L184.233 10.8H186.249L177.609 16.064L186.217 22H184.185L177.369 16.432V22H175.337V16.432L168.537 22H166.505L175.113 16.064L166.457 10.8H168.489L175.337 15.696V10.8Z" fill="#EBE9E1"/>
<path d="M102.256 37.7936C101.857 38.2541 101.143 38.2541 100.744 37.7936L96.0048 32.3212C95.4439 31.6735 95.9039 30.6665 96.7607 30.6665L106.239 30.6665C107.096 30.6665 107.556 31.6735 106.995 32.3212L102.256 37.7936Z" fill="#1D1D1B"/>
</svg>
