<svg width="128" height="37" viewBox="0 0 128 37" fill="none" xmlns="http://www.w3.org/2000/svg">
<rect width="128" height="30" rx="15" fill="#A39C82"/>
<path d="M24.974 20L23.756 16.836H19.15L17.932 20H16L20.816 10.2H22.09L26.906 20H24.974ZM19.304 16.416H23.602L21.446 10.83L19.304 16.416ZM28.9542 20V10.298L28.9402 10.284V10.2H37.5922L37.4662 10.606H30.7462V14.204H33.6582C36.6822 14.204 38.4322 15.38 38.4322 17.144C38.4322 18.908 36.6822 20 33.6582 20H28.9542ZM30.7462 19.594H33.3082C35.7162 19.594 36.6402 18.614 36.6402 17.116C36.6402 15.688 35.7162 14.61 33.3082 14.61H30.7462V19.594ZM49.7514 10.2L43.4934 18.712C42.9474 19.454 42.4574 20.042 40.8614 20.35L40.4974 19.734C41.7014 19.622 42.6954 19.16 43.0874 18.46L44.2774 16.332L39.4474 10.2H41.5054L44.5574 15.828L47.6794 10.2H49.7514ZM50.9447 16.29V15.898H57.5387V16.29H50.9447ZM61.6225 19.594H61.7765C63.4565 17.97 63.4985 14.904 63.4985 10.55V10.2H71.1985V19.58H71.3105C73.0745 19.58 73.6625 20.77 73.6625 21.974H71.8285C71.8285 21.512 71.8985 20 71.0165 20H61.7765C60.9505 20 61.0765 21.47 61.0765 21.974H59.2425C59.2425 20.798 59.8725 19.594 61.6225 19.594ZM69.4065 10.606H65.2765C65.2765 15.702 64.2965 18.082 62.3645 19.594H69.4065V10.606ZM83.4267 20L82.2087 16.836H77.6027L76.3847 20H74.4527L79.2687 10.2H80.5427L85.3587 20H83.4267ZM77.7567 16.416H82.0547L79.8987 10.83L77.7567 16.416ZM87.4069 20V10.298L87.3929 10.284V10.2H96.0449L95.9189 10.606H89.1989V14.204H92.1109C95.1349 14.204 96.8849 15.38 96.8849 17.144C96.8849 18.908 95.1349 20 92.1109 20H87.4069ZM89.1989 19.594H91.7609C94.1689 19.594 95.0929 18.614 95.0929 17.116C95.0929 15.688 94.1689 14.61 91.7609 14.61H89.1989V19.594ZM110.192 20H108.4V11.432L101.246 20H99.6361V10.2H101.428V18.936L107.742 10.2H110.192V20Z" fill="#EBE9E1"/>
<path d="M64.7559 35.7936C64.3572 36.2541 63.6428 36.2541 63.2441 35.7936L58.5048 30.3212C57.9439 29.6735 58.4039 28.6665 59.2607 28.6665L68.7393 28.6665C69.5961 28.6665 70.0561 29.6735 69.4952 30.3212L64.7559 35.7936Z" fill="#A39C82"/>
</svg>
