<svg width="113" height="37" viewBox="0 0 113 37" fill="none" xmlns="http://www.w3.org/2000/svg">
<rect width="113" height="30" rx="15" fill="#A39C82"/>
<path d="M24.974 20L23.756 16.836H19.15L17.932 20H16L20.816 10.2H22.09L26.906 20H24.974ZM19.304 16.416H23.602L21.446 10.83L19.304 16.416ZM29.5982 20.28C28.9262 20.28 28.2542 20.168 27.7362 19.986L27.9462 19.608C28.2542 19.776 28.6882 19.846 29.0382 19.846C31.7402 19.846 31.4182 13.714 31.4182 10.2H39.3842V20H37.6062V10.592H33.1962C33.1962 14.96 33.5602 20.28 29.5982 20.28ZM44.7801 12.02L44.7661 20H42.9881V10.2H45.4661L49.4841 19.608L53.4881 10.2H55.9661V20H54.1741L54.2021 12.034L50.2261 20H48.7281L44.7801 12.02ZM66.98 20L65.762 16.836H61.156L59.938 20H58.006L62.822 10.2H64.096L68.912 20H66.98ZM61.31 16.416H65.608L63.452 10.83L61.31 16.416ZM68.3938 10.2H78.8378L78.6698 10.606H74.5118V20H72.7198V10.606H68.5758L68.3938 10.2ZM81.0839 10.2H82.8759V14.204H85.7879C88.8119 14.204 90.5619 15.38 90.5619 17.144C90.5619 18.908 88.8119 20 85.7879 20H81.0839V10.2ZM92.7459 20V10.2H94.5519V20H92.7459ZM82.8759 19.594H85.4379C87.8459 19.594 88.7699 18.614 88.7699 17.116C88.7699 15.688 87.8459 14.61 85.4379 14.61H82.8759V19.594Z" fill="#EBE9E1"/>
<path d="M57.2559 35.7936C56.8572 36.2541 56.1428 36.2541 55.7441 35.7936L51.0048 30.3212C50.4439 29.6735 50.9039 28.6665 51.7607 28.6665L61.2393 28.6665C62.0961 28.6665 62.5561 29.6735 61.9952 30.3212L57.2559 35.7936Z" fill="#A39C82"/>
</svg>
