<svg width="119" height="37" viewBox="0 0 119 37" fill="none" xmlns="http://www.w3.org/2000/svg">
<rect width="119" height="30" rx="15" fill="#A39C82"/>
<path d="M16.798 15.002C16.798 12.174 19.402 9.92 23.084 9.92C25.198 9.92 26.892 10.634 27.97 11.74L27.578 12.566C26.542 10.844 24.862 10.326 23.21 10.326C20.102 10.326 18.59 12.902 18.59 14.918C18.59 17.144 20.424 19.874 23.266 19.874C24.876 19.874 26.542 19.328 27.69 17.256L28.222 18.04C27.2 19.37 25.408 20.28 23.056 20.28C19.346 20.28 16.798 17.802 16.798 15.002ZM29.4776 10.2H39.9216L39.7536 10.606H35.5956V20H33.8036V10.606H29.6596L29.4776 10.2ZM48.1199 20L46.9019 16.836H42.2959L41.0779 20H39.1459L43.9619 10.2H45.2359L50.0519 20H48.1199ZM42.4499 16.416H46.7479L44.5919 10.83L42.4499 16.416ZM53.8921 12.02L53.8781 20H52.1001V10.2H54.5781L58.5961 19.608L62.6001 10.2H65.0781V20H63.2861L63.3141 12.034L59.3381 20H57.8401L53.8921 12.02ZM68.677 20V10.298L68.663 10.284V10.2H77.315L77.189 10.606H70.469V14.204H73.381C76.405 14.204 78.155 15.38 78.155 17.144C78.155 18.908 76.405 20 73.381 20H68.677ZM70.469 19.594H73.031C75.439 19.594 76.363 18.614 76.363 17.116C76.363 15.688 75.439 14.61 73.031 14.61H70.469V19.594ZM89.4742 10.2L83.2162 18.712C82.6702 19.454 82.1802 20.042 80.5842 20.35L80.2202 19.734C81.4242 19.622 82.4182 19.16 82.8102 18.46L84.0002 16.332L79.1702 10.2H81.2282L84.2802 15.828L87.4022 10.2H89.4742ZM90.9357 20.28C90.2637 20.28 89.5917 20.168 89.0737 19.986L89.2837 19.608C89.5917 19.776 90.0257 19.846 90.3757 19.846C93.0777 19.846 92.7557 13.714 92.7557 10.2H100.722V20H98.9437V10.592H94.5337C94.5337 14.96 94.8977 20.28 90.9357 20.28Z" fill="#EBE9E1"/>
<path d="M60.2559 35.7936C59.8572 36.2541 59.1428 36.2541 58.7441 35.7936L54.0048 30.3212C53.4439 29.6735 53.9039 28.6665 54.7607 28.6665L64.2393 28.6665C65.0961 28.6665 65.5561 29.6735 64.9952 30.3212L60.2559 35.7936Z" fill="#A39C82"/>
</svg>
