<svg width="119" height="37" viewBox="0 0 119 37" fill="none" xmlns="http://www.w3.org/2000/svg">
<rect width="119" height="30" rx="15" fill="#A39C82"/>
<path d="M18.408 20.28C17.736 20.28 17.064 20.168 16.546 19.986L16.756 19.608C17.064 19.776 17.498 19.846 17.848 19.846C20.55 19.846 20.228 13.714 20.228 10.2H28.194V20H26.416V10.592H22.006C22.006 14.96 22.37 20.28 18.408 20.28ZM31.037 15.002C31.037 12.048 33.487 9.934 37.323 9.92C41.159 9.92 43.581 12.062 43.567 14.974C43.567 17.872 41.229 20.28 37.295 20.28C33.459 20.28 31.037 17.928 31.037 15.002ZM37.337 19.874C40.249 19.874 41.803 17.228 41.803 15.016C41.803 13 40.515 10.326 37.267 10.326C34.075 10.326 32.801 12.902 32.801 14.918C32.801 17.144 34.383 19.874 37.337 19.874ZM46.1326 20V10.2H47.9246V14.904H54.5746V10.2H56.3526V20H54.5746V15.296H47.9246V20H46.1326ZM61.3288 19.594H61.4828C63.1628 17.97 63.2048 14.904 63.2048 10.55V10.2H70.9048V19.58H71.0168C72.7808 19.58 73.3688 20.77 73.3688 21.974H71.5348C71.5348 21.512 71.6048 20 70.7228 20H61.4828C60.6568 20 60.7828 21.47 60.7828 21.974H58.9488C58.9488 20.798 59.5788 19.594 61.3288 19.594ZM69.1128 10.606H64.9828C64.9828 15.702 64.0028 18.082 62.0708 19.594H69.1128V10.606ZM74.9571 15.002C74.9571 12.048 77.4071 9.934 81.2431 9.92C85.0791 9.92 87.5011 12.062 87.4871 14.974C87.4871 17.872 85.1491 20.28 81.2151 20.28C77.3791 20.28 74.9571 17.928 74.9571 15.002ZM81.2571 19.874C84.1691 19.874 85.7231 17.228 85.7231 15.016C85.7231 13 84.4351 10.326 81.1871 10.326C77.9951 10.326 76.7211 12.902 76.7211 14.918C76.7211 17.144 78.3031 19.874 81.2571 19.874ZM90.0527 20V10.2H91.8447V14.904H98.4947V10.2H100.273V20H98.4947V15.296H91.8447V20H90.0527Z" fill="#EBE9E1"/>
<path d="M60.2559 35.7936C59.8572 36.2541 59.1428 36.2541 58.7441 35.7936L54.0048 30.3212C53.4439 29.6735 53.9039 28.6665 54.7607 28.6665L64.2393 28.6665C65.0961 28.6665 65.5561 29.6735 64.9952 30.3212L60.2559 35.7936Z" fill="#A39C82"/>
</svg>
