<svg width="881" height="483" viewBox="0 0 881 483" fill="none" xmlns="http://www.w3.org/2000/svg">
<g opacity="0.7">
<path d="M839 419.958L838.463 418.882L843.137 416.546L843.674 417.622L839 419.958Z" fill="#A39C82" stroke="#30302E" stroke-width="0.52"/>
<path d="M833.794 429.994L832.716 429.458L836.752 421.404L837.829 421.94L833.794 429.994Z" fill="#A39C82" stroke="#30302E" stroke-width="0.52"/>
<path d="M834.482 415.755L833.945 414.679L846.181 408.564L846.718 409.64L834.482 415.755Z" fill="#A39C82" stroke="#30302E" stroke-width="0.52"/>
<path d="M821.517 441.6L820.439 441.064L830.128 421.71L831.206 422.247L821.517 441.6Z" fill="#A39C82" stroke="#30302E" stroke-width="0.52"/>
<path d="M838.052 407.51L837.515 406.434L841.407 404.491L841.943 405.567L838.052 407.51Z" fill="#A39C82" stroke="#30302E" stroke-width="0.52"/>
<path d="M816.978 437.749L815.9 437.213L819.763 429.498L820.84 430.034L816.978 437.749Z" fill="#A39C82" stroke="#30302E" stroke-width="0.52"/>
<path d="M775.091 430.98L774.014 430.444L775.945 426.59L777.022 427.126L775.091 430.98Z" fill="#A39C82" stroke="#30302E" stroke-width="0.52"/>
<path d="M774.183 419.875L773.105 419.338L786.624 392.341L787.702 392.878L774.183 419.875Z" fill="#A39C82" stroke="#30302E" stroke-width="0.52"/>
<path d="M768.392 431.449L767.311 430.913L771.177 423.197L772.255 423.733L768.392 431.449Z" fill="#A39C82" stroke="#30302E" stroke-width="0.52"/>
<path d="M767.484 420.339L766.407 419.803L785.73 381.204L786.808 381.74L767.484 420.339Z" fill="#A39C82" stroke="#30302E" stroke-width="0.52"/>
<path d="M760.981 420.412L759.904 419.876L781.155 377.426L782.233 377.962L760.981 420.412Z" fill="#A39C82" stroke="#30302E" stroke-width="0.52"/>
<path d="M756.441 416.561L755.364 416.024L778.568 369.674L779.645 370.21L756.441 416.561Z" fill="#A39C82" stroke="#30302E" stroke-width="0.52"/>
<path d="M751.898 412.714L750.82 412.178L772.072 369.732L773.149 370.268L751.898 412.714Z" fill="#A39C82" stroke="#30302E" stroke-width="0.52"/>
<path d="M747.357 408.863L746.28 408.327L769.477 361.991L770.554 362.527L747.357 408.863Z" fill="#A39C82" stroke="#30302E" stroke-width="0.52"/>
<path d="M777.109 347.51L776.572 346.434L780.47 344.487L781.007 345.563L777.109 347.51Z" fill="#A39C82" stroke="#30302E" stroke-width="0.52"/>
<path d="M740.883 408.878L739.805 408.342L766.922 354.175L768 354.711L740.883 408.878Z" fill="#A39C82" stroke="#30302E" stroke-width="0.52"/>
<path d="M787.843 335.692L787.306 334.616L791.168 332.683L791.705 333.763L787.843 335.692Z" fill="#A39C82" stroke="#30302E" stroke-width="0.52"/>
<path d="M772.334 343.437L771.794 342.361L775.696 340.41L776.233 341.486L772.334 343.437Z" fill="#A39C82" stroke="#30302E" stroke-width="0.52"/>
<path d="M736.342 405.031L735.265 404.495L762.372 350.35L763.449 350.886L736.342 405.031Z" fill="#A39C82" stroke="#30302E" stroke-width="0.52"/>
<path d="M775.339 335.473L774.802 334.397L786.397 328.606L786.934 329.682L775.339 335.473Z" fill="#A39C82" stroke="#30302E" stroke-width="0.52"/>
<path d="M760.967 342.652L760.83 342.371L760.08 342L760.249 341.666L770.926 336.333L771.462 337.412L760.967 342.652Z" fill="#A39C82" stroke="#30302E" stroke-width="0.52"/>
<path d="M756.923 350.997L755.846 350.461L757.817 346.524L758.894 347.06L756.923 350.997Z" fill="#A39C82" stroke="#30302E" stroke-width="0.52"/>
<path d="M729.861 405.056L728.783 404.52L750.035 362.07L751.112 362.606L729.861 405.056Z" fill="#A39C82" stroke="#30302E" stroke-width="0.52"/>
<path d="M754.347 343.228L753.27 342.692L755.936 337.359L766.151 332.259L766.688 333.335L756.833 338.255L754.347 343.228Z" fill="#A39C82" stroke="#30302E" stroke-width="0.52"/>
<path d="M723.364 405.118L722.287 404.582L745.494 358.224L746.572 358.76L723.364 405.118Z" fill="#A39C82" stroke="#30302E" stroke-width="0.52"/>
<path d="M752.154 334.688L751.076 334.148L751.627 333.051L761.378 328.182L761.914 329.258L752.525 333.947L752.154 334.688Z" fill="#A39C82" stroke="#30302E" stroke-width="0.52"/>
<path d="M747.84 343.307L746.763 342.771L748.723 338.856L749.8 339.392L747.84 343.307Z" fill="#A39C82" stroke="#30302E" stroke-width="0.52"/>
<path d="M702.235 413.848L701.698 412.772L715.055 406.104L742.886 350.512L743.963 351.048L715.952 407L702.235 413.848Z" fill="#A39C82" stroke="#30302E" stroke-width="0.52"/>
<path d="M745.253 335.555L744.176 335.018L747.314 328.742L752.676 326.065L753.213 327.145L748.215 329.638L745.253 335.555Z" fill="#A39C82" stroke="#30302E" stroke-width="0.52"/>
<path d="M693.598 411.702L693.062 410.626L710.742 401.795L738.346 346.664L739.423 347.2L711.639 402.695L693.598 411.702Z" fill="#A39C82" stroke="#30302E" stroke-width="0.52"/>
<path d="M740.706 331.712L739.628 331.176L741.671 327.102L742.749 327.638L740.706 331.712Z" fill="#A39C82" stroke="#30302E" stroke-width="0.52"/>
<path d="M692.694 405.696L692.157 404.62L706.432 397.492L729.939 350.533L731.017 351.069L707.33 398.388L692.694 405.696Z" fill="#A39C82" stroke="#30302E" stroke-width="0.52"/>
<path d="M736.163 327.872L735.085 327.336L738.692 320.128L738.88 320.038L739.182 320.603L739.679 320.847L736.163 327.872Z" fill="#A39C82" stroke="#30302E" stroke-width="0.52"/>
<path d="M691.8 399.68L691.263 398.604L702.12 393.184L721.54 354.394L722.618 354.93L703.017 394.08L691.8 399.68Z" fill="#A39C82" stroke="#30302E" stroke-width="0.52"/>
<path d="M725.8 335.653L724.722 335.116L728.592 327.383L729.669 327.919L725.8 335.653Z" fill="#A39C82" stroke="#30302E" stroke-width="0.52"/>
<path d="M721.937 343.367L720.86 342.831L722.791 338.977L723.868 339.513L721.937 343.367Z" fill="#A39C82" stroke="#30302E" stroke-width="0.52"/>
<path d="M690.925 393.659L690.388 392.583L697.811 388.88L713.138 358.256L714.216 358.792L698.708 389.776L690.925 393.659Z" fill="#A39C82" stroke="#30302E" stroke-width="0.52"/>
<path d="M725.13 324.072L724.052 323.536L725.998 319.649L727.075 320.186L725.13 324.072Z" fill="#A39C82" stroke="#30302E" stroke-width="0.52"/>
<path d="M719.325 335.663L718.248 335.127L722.114 327.404L723.191 327.94L719.325 335.663Z" fill="#A39C82" stroke="#30302E" stroke-width="0.52"/>
<path d="M713.535 347.233L712.458 346.696L716.32 338.984L717.397 339.521L713.535 347.233Z" fill="#A39C82" stroke="#30302E" stroke-width="0.52"/>
<path d="M690.11 387.606L689.573 386.53L693.497 384.573L700.869 369.843L701.946 370.379L694.394 385.469L690.11 387.606Z" fill="#A39C82" stroke="#30302E" stroke-width="0.52"/>
<path d="M716.716 327.955L715.639 327.419L721.455 315.806L722.532 316.342L716.716 327.955Z" fill="#A39C82" stroke="#30302E" stroke-width="0.52"/>
<path d="M710.925 339.524L709.848 338.988L713.711 331.276L714.788 331.813L710.925 339.524Z" fill="#A39C82" stroke="#30302E" stroke-width="0.52"/>
<path d="M705.136 351.091L704.059 350.554L705.986 346.7L707.064 347.236L705.136 351.091Z" fill="#A39C82" stroke="#30302E" stroke-width="0.52"/>
<path d="M689.898 381.254L689.509 380.649L689.095 380.444L690.406 377.824L691.484 378.36L690.078 381.164L689.898 381.254Z" fill="#A39C82" stroke="#30302E" stroke-width="0.52"/>
<path d="M700.595 347.244L699.518 346.707L713.03 319.71L714.107 320.247L700.595 347.244Z" fill="#A39C82" stroke="#30302E" stroke-width="0.52"/>
<path d="M713.398 308.745L712.32 308.209L716.702 299.461L717.779 299.997L713.398 308.745Z" fill="#A39C82" stroke="#30302E" stroke-width="0.52"/>
<path d="M703.727 328.063L702.649 327.526L706.512 319.814L707.589 320.351L703.727 328.063Z" fill="#A39C82" stroke="#30302E" stroke-width="0.52"/>
<path d="M710.58 301.458L709.502 300.922L712.821 294.293L717.819 291.799L718.355 292.875L713.718 295.189L710.58 301.458Z" fill="#A39C82" stroke="#30302E" stroke-width="0.52"/>
<path d="M693.166 336.239L692.089 335.703L701.742 316.421L702.819 316.958L693.166 336.239Z" fill="#A39C82" stroke="#30302E" stroke-width="0.52"/>
<path d="M689.307 343.951L688.23 343.415L690.161 339.561L691.239 340.097L689.307 343.951Z" fill="#A39C82" stroke="#30302E" stroke-width="0.52"/>
<path d="M707.802 294.088L706.725 293.552L708.508 289.985L716.518 285.987L717.055 287.063L709.405 290.881L707.802 294.088Z" fill="#A39C82" stroke="#30302E" stroke-width="0.52"/>
<path d="M688.399 332.849L687.322 332.313L700.837 305.309L701.915 305.845L688.399 332.849Z" fill="#A39C82" stroke="#30302E" stroke-width="0.52"/>
<path d="M682.605 344.418L681.528 343.882L683.459 340.021L684.536 340.557L682.605 344.418Z" fill="#A39C82" stroke="#30302E" stroke-width="0.52"/>
<path d="M704.917 286.668L704.675 286.185L704.07 285.933L704.2 285.682L711.28 282.144L711.817 283.22L704.917 286.668Z" fill="#A39C82" stroke="#30302E" stroke-width="0.52"/>
<path d="M695.213 306.316L694.135 305.78L698.005 298.05L699.082 298.586L695.213 306.316Z" fill="#A39C82" stroke="#30302E" stroke-width="0.52"/>
<path d="M681.698 333.309L680.62 332.773L692.204 309.637L693.282 310.173L681.698 333.309Z" fill="#A39C82" stroke="#30302E" stroke-width="0.52"/>
<path d="M675.9 344.89L674.822 344.354L678.692 336.631L679.769 337.168L675.9 344.89Z" fill="#A39C82" stroke="#30302E" stroke-width="0.52"/>
<path d="M879.812 136.779L878.422 137.471L878.959 138.547L880.349 137.855L879.812 136.779Z" fill="#A39C82" stroke="#30302E" stroke-width="0.52"/>
<path d="M706.57 279.38L706.033 278.304L709.946 276.35L710.483 277.426L706.57 279.38Z" fill="#A39C82" stroke="#30302E" stroke-width="0.52"/>
<path d="M678.858 326.062L677.78 325.526L681.643 317.814L682.72 318.35L678.858 326.062Z" fill="#A39C82" stroke="#30302E" stroke-width="0.52"/>
<path d="M671.129 341.5L670.052 340.964L671.99 337.099L673.068 337.635L671.129 341.5Z" fill="#A39C82" stroke="#30302E" stroke-width="0.52"/>
<path d="M873.208 134.916L872.671 133.84L876.915 131.72L877.452 132.796L873.208 134.916Z" fill="#A39C82" stroke="#30302E" stroke-width="0.52"/>
<path d="M805.353 170.046L804.276 169.51L805.288 167.487L805.886 167.192L806.423 168.268L806.186 168.384L805.353 170.046Z" fill="#A39C82" stroke="#30302E" stroke-width="0.52"/>
<path d="M666.359 338.11L665.282 337.574L669.152 329.844L670.229 330.38L666.359 338.11Z" fill="#A39C82" stroke="#30302E" stroke-width="0.52"/>
<path d="M875.334 126.927L874.256 126.391L876.288 122.324L877.366 122.86L875.334 126.927Z" fill="#A39C82" stroke="#30302E" stroke-width="0.52"/>
<path d="M867.962 131.077L867.425 130.001L871.472 127.982L872.005 129.058L867.962 131.077Z" fill="#A39C82" stroke="#30302E" stroke-width="0.52"/>
<path d="M796.526 174.764L795.449 174.228L800.976 163.184L809.397 158.98L809.933 160.056L801.873 164.08L796.526 174.764Z" fill="#A39C82" stroke="#30302E" stroke-width="0.52"/>
<path d="M703.904 267.793L703.367 266.717L711.106 262.852L711.643 263.928L703.904 267.793Z" fill="#A39C82" stroke="#30302E" stroke-width="0.52"/>
<path d="M661.588 334.72L660.51 334.184L666.311 322.596L667.389 323.132L661.588 334.72Z" fill="#A39C82" stroke="#30302E" stroke-width="0.52"/>
<path d="M862.723 127.233L862.187 126.157L869.987 122.259L870.222 122.727L870.845 122.972L870.751 123.152L870.524 123.335L862.723 127.233Z" fill="#A39C82" stroke="#30302E" stroke-width="0.52"/>
<path d="M827.92 144.611L827.383 143.535L850.552 131.969L851.088 133.045L827.92 144.611Z" fill="#A39C82" stroke="#30302E" stroke-width="0.52"/>
<path d="M791.755 171.378L790.678 170.841L796.666 158.876L811.929 151.254L812.466 152.33L797.563 159.772L791.755 171.378Z" fill="#A39C82" stroke="#30302E" stroke-width="0.52"/>
<path d="M687.667 269.441L687.411 268.933L686.835 268.682L686.943 268.458L687.13 268.365L709.744 257.072L710.281 258.148L687.667 269.441Z" fill="#A39C82" stroke="#30302E" stroke-width="0.52"/>
<path d="M672.272 300.461L671.194 299.925L678.923 284.494L680 285.03L672.272 300.461Z" fill="#A39C82" stroke="#30302E" stroke-width="0.52"/>
<path d="M658.756 327.462L657.675 326.926L665.404 311.491L666.481 312.027L658.756 327.462Z" fill="#A39C82" stroke="#30302E" stroke-width="0.52"/>
<path d="M793.071 155.558L792.999 155.41L792.145 154.986L792.354 154.572L865.497 118.042L866.618 115.807L867.695 116.347L866.395 118.938L793.222 155.522L793.179 155.5L793.071 155.558Z" fill="#A39C82" stroke="#30302E" stroke-width="0.52"/>
<path d="M767.668 206.565L766.591 206.029L768.522 202.175L769.599 202.711L767.668 206.565Z" fill="#A39C82" stroke="#30302E" stroke-width="0.52"/>
<path d="M728.217 242.731L727.68 241.655L755.781 227.624L758.829 221.535L759.907 222.071L756.678 228.52L728.217 242.731Z" fill="#A39C82" stroke="#30302E" stroke-width="0.52"/>
<path d="M681.073 269.963L679.996 269.427L682.637 264.147L708.378 251.293L708.915 252.369L683.534 265.043L681.073 269.963Z" fill="#A39C82" stroke="#30302E" stroke-width="0.52"/>
<path d="M677.165 277.772L676.087 277.235L678.029 273.356L679.107 273.892L677.165 277.772Z" fill="#A39C82" stroke="#30302E" stroke-width="0.52"/>
<path d="M667.505 297.068L666.427 296.532L674.152 281.101L675.23 281.637L667.505 297.068Z" fill="#A39C82" stroke="#30302E" stroke-width="0.52"/>
<path d="M653.985 324.073L652.904 323.536L660.637 308.098L661.714 308.634L653.985 324.073Z" fill="#A39C82" stroke="#30302E" stroke-width="0.52"/>
<path d="M812.077 139.605L811.54 138.529L861.364 113.648L861.599 114.112L862.225 114.35L862.135 114.53L861.901 114.724L812.077 139.605Z" fill="#A39C82" stroke="#30302E" stroke-width="0.52"/>
<path d="M729.183 235.79L728.646 234.714L751.468 223.317L762.988 200.307L764.065 200.843L752.366 224.213L729.183 235.79Z" fill="#A39C82" stroke="#30302E" stroke-width="0.52"/>
<path d="M661.97 295.2L660.893 294.664L678.328 259.84L709.344 244.354L709.881 245.431L679.225 260.736L661.97 295.2Z" fill="#A39C82" stroke="#30302E" stroke-width="0.52"/>
<path d="M656.179 306.77L655.102 306.234L657.033 302.376L658.111 302.912L656.179 306.77Z" fill="#A39C82" stroke="#30302E" stroke-width="0.52"/>
<path d="M650.383 318.346L649.305 317.81L653.171 310.091L654.249 310.627L650.383 318.346Z" fill="#A39C82" stroke="#30302E" stroke-width="0.52"/>
<path d="M799.578 139.39L799.041 138.314L857.055 109.341L857.318 109.87L857.866 110.136L857.776 110.316L857.592 110.42L799.578 139.39Z" fill="#A39C82" stroke="#30302E" stroke-width="0.52"/>
<path d="M784.444 146.943L784.181 146.414L783.616 146.19L783.702 145.967L791.265 142.192L791.802 143.268L784.444 146.943Z" fill="#A39C82" stroke="#30302E" stroke-width="0.52"/>
<path d="M765.316 185.427L764.238 184.891L766.17 181.037L767.247 181.573L765.316 185.427Z" fill="#A39C82" stroke="#30302E" stroke-width="0.52"/>
<path d="M761.457 193.139L760.379 192.603L762.307 188.749L763.384 189.285L761.457 193.139Z" fill="#A39C82" stroke="#30302E" stroke-width="0.52"/>
<path d="M757.594 200.855L756.517 200.318L758.448 196.457L759.525 196.993L757.594 200.855Z" fill="#A39C82" stroke="#30302E" stroke-width="0.52"/>
<path d="M753.72 208.587L752.643 208.051L754.582 204.183L755.659 204.719L753.72 208.587Z" fill="#A39C82" stroke="#30302E" stroke-width="0.52"/>
<path d="M720.554 233.642L720.017 232.566L727.739 228.705L728.275 229.781L720.554 233.642Z" fill="#A39C82" stroke="#30302E" stroke-width="0.52"/>
<path d="M651.64 302.919L650.562 302.383L674.015 255.535L708.433 238.345L708.97 239.421L674.913 256.432L651.64 302.919Z" fill="#A39C82" stroke="#30302E" stroke-width="0.52"/>
<path d="M645.842 314.5L644.765 313.963L648.631 306.241L649.709 306.777L645.842 314.5Z" fill="#A39C82" stroke="#30302E" stroke-width="0.52"/>
<path d="M855.034 102.873L853.957 102.337L855.971 98.3101L857.052 98.8463L855.034 102.873Z" fill="#A39C82" stroke="#30302E" stroke-width="0.52"/>
<path d="M778.218 146.734L777.141 146.198L779.418 141.653L848.476 107.164L849.013 108.24L780.316 142.549L778.218 146.734Z" fill="#A39C82" stroke="#30302E" stroke-width="0.52"/>
<path d="M756.917 189.289L755.839 188.752L763.561 173.329L764.638 173.865L756.917 189.289Z" fill="#A39C82" stroke="#30302E" stroke-width="0.52"/>
<path d="M719.646 227.632L719.109 226.556L726.838 222.698L727.374 223.774L719.646 227.632Z" fill="#A39C82" stroke="#30302E" stroke-width="0.52"/>
<path d="M650.959 291.361L649.881 290.824L669.702 251.228L707.528 232.343L708.065 233.419L670.599 252.125L650.959 291.361Z" fill="#A39C82" stroke="#30302E" stroke-width="0.52"/>
<path d="M848.823 101.877L848.451 101.143L848.16 100.999L849.381 98.5552L850.458 99.0914L849.147 101.711L848.823 101.877Z" fill="#A39C82" stroke="#30302E" stroke-width="0.52"/>
<path d="M771.7 146.838L770.623 146.302L775.105 137.345L843.687 103.097L844.224 104.173L776.002 138.241L771.7 146.838Z" fill="#A39C82" stroke="#30302E" stroke-width="0.52"/>
<path d="M742.68 204.798L741.603 204.266L762.88 161.769L763.957 162.305L742.68 204.798Z" fill="#A39C82" stroke="#30302E" stroke-width="0.52"/>
<path d="M718.738 221.626L718.201 220.55L725.94 216.688L726.477 217.764L718.738 221.626Z" fill="#A39C82" stroke="#30302E" stroke-width="0.52"/>
<path d="M648.35 283.652L647.272 283.116L665.389 246.924L710.475 224.408L711.012 225.484L666.286 247.821L648.35 283.652Z" fill="#A39C82" stroke="#30302E" stroke-width="0.52"/>
<path d="M765.215 146.87L764.137 146.334L770.796 133.037L834.972 100.991L835.508 102.067L771.693 133.933L765.215 146.87Z" fill="#A39C82" stroke="#30302E" stroke-width="0.52"/>
<path d="M735.992 205.244L734.915 204.708L756.408 161.776L757.485 162.313L735.992 205.244Z" fill="#A39C82" stroke="#30302E" stroke-width="0.52"/>
<path d="M717.833 215.62L717.296 214.544L728.974 208.71L729.511 209.786L717.833 215.62Z" fill="#A39C82" stroke="#30302E" stroke-width="0.52"/>
<path d="M641.879 283.659L640.801 283.122L661.08 242.616L701.849 222.255L702.386 223.331L661.977 243.512L641.879 283.659Z" fill="#A39C82" stroke="#30302E" stroke-width="0.52"/>
<path d="M756.805 150.75L755.728 150.214L766.483 128.73L818.581 102.715L819.118 103.791L767.38 129.626L756.805 150.75Z" fill="#A39C82" stroke="#30302E" stroke-width="0.52"/>
<path d="M639.266 275.954L638.189 275.418L656.767 238.308L729.911 201.786L748.006 165.637L749.083 166.173L730.808 202.682L657.664 239.204L639.266 275.954Z" fill="#A39C82" stroke="#30302E" stroke-width="0.52"/>
<path d="M525.591 393.447L524.514 392.911L530.304 381.345L531.381 381.881L525.591 393.447Z" fill="#A39C82" stroke="#30302E" stroke-width="0.52"/>
<path d="M636.658 268.25L635.581 267.713L652.454 234.005L725.598 197.479L762.17 124.426L806.089 102.492L806.626 103.568L763.067 125.322L726.495 198.375L653.351 234.901L636.658 268.25Z" fill="#A39C82" stroke="#30302E" stroke-width="0.52"/>
<path d="M610.027 311.326L609.49 310.25L613.573 308.209L614.109 309.285L610.027 311.326Z" fill="#A39C82" stroke="#30302E" stroke-width="0.52"/>
<path d="M519.119 393.454L518.042 392.918L533.485 362.067L534.562 362.603L519.119 393.454Z" fill="#A39C82" stroke="#30302E" stroke-width="0.52"/>
<path d="M630.186 268.257L629.109 267.721L648.144 229.697L721.288 193.171L757.857 120.118L805.18 96.4897L805.717 97.5658L758.754 121.015L722.185 194.067L649.041 230.594L630.186 268.257Z" fill="#A39C82" stroke="#30302E" stroke-width="0.52"/>
<path d="M605.249 307.252L604.712 306.176L611.753 302.66L612.002 303.16L612.582 303.419L612.492 303.599L612.29 303.736L605.249 307.252Z" fill="#A39C82" stroke="#30302E" stroke-width="0.52"/>
<path d="M516.511 385.749L515.43 385.213L530.88 354.354L531.957 354.891L516.511 385.749Z" fill="#A39C82" stroke="#30302E" stroke-width="0.52"/>
<path d="M617.922 279.833L616.844 279.297L643.832 225.389L716.976 188.863L753.548 115.814L796.551 94.3374L797.088 95.4134L754.445 116.71L717.873 189.759L644.729 226.286L617.922 279.833Z" fill="#A39C82" stroke="#30302E" stroke-width="0.52"/>
<path d="M596.576 305.122L596.04 304.046L607.44 298.353L607.977 299.432L596.576 305.122Z" fill="#A39C82" stroke="#30302E" stroke-width="0.52"/>
<path d="M517.758 370.332L516.68 369.796L518.611 365.938L519.689 366.475L517.758 370.332Z" fill="#A39C82" stroke="#30302E" stroke-width="0.52"/>
<path d="M595.697 299.101L595.16 298.025L602.95 294.138L639.519 221.086L712.662 184.556L749.234 111.507L787.921 92.1855L788.458 93.2651L750.132 112.403L713.56 185.452L640.416 221.982L603.847 295.034L595.697 299.101Z" fill="#A39C82" stroke="#30302E" stroke-width="0.52"/>
<path d="M466.424 418.447L465.887 417.371L489.199 405.729L489.736 406.805L466.424 418.447Z" fill="#A39C82" stroke="#30302E" stroke-width="0.52"/>
<path d="M594.872 293.055L594.335 291.979L598.638 289.831L635.21 216.778L708.35 180.252L744.925 107.199L779.289 90.0371L779.825 91.1131L745.823 108.095L709.247 181.148L636.107 217.674L599.535 290.727L594.872 293.055Z" fill="#A39C82" stroke="#30302E" stroke-width="0.52"/>
<path d="M504.815 370.344L503.738 369.807L511.459 354.387L512.537 354.923L504.815 370.344Z" fill="#A39C82" stroke="#30302E" stroke-width="0.52"/>
<path d="M493.198 393.555L492.121 393.018L497.947 381.38L499.024 381.917L493.198 393.555Z" fill="#A39C82" stroke="#30302E" stroke-width="0.52"/>
<path d="M457.794 416.298L457.257 415.222L488.921 399.409L490.078 397.092L491.159 397.628L489.818 400.305L457.794 416.298Z" fill="#A39C82" stroke="#30302E" stroke-width="0.52"/>
<path d="M590.083 288.985L589.546 287.909L594.324 285.523L630.896 212.471L704.04 175.944L740.612 102.892L774.521 85.96L775.058 87.036L741.509 103.788L704.937 176.84L631.793 213.37L595.221 286.419L590.083 288.985Z" fill="#A39C82" stroke="#30302E" stroke-width="0.52"/>
<path d="M453.024 412.217L452.487 411.141L484.609 395.102L508.851 346.679L509.928 347.215L485.506 395.998L453.024 412.217Z" fill="#A39C82" stroke="#30302E" stroke-width="0.52"/>
<path d="M590.152 282.49L589.615 281.414L590.011 281.216L626.583 208.167L699.727 171.641L736.299 98.5845L765.892 83.812L766.428 84.888L737.196 99.4841L700.624 172.537L627.48 209.063L590.908 282.112L590.152 282.49Z" fill="#A39C82" stroke="#30302E" stroke-width="0.52"/>
<path d="M452.115 406.215L451.579 405.139L480.299 390.798L516.871 317.742L530.596 310.89L531.133 311.966L517.768 318.638L481.197 391.694L452.115 406.215Z" fill="#A39C82" stroke="#30302E" stroke-width="0.52"/>
<path d="M773.242 75.0236L772.706 73.9476L784.286 68.1646L784.823 69.2405L773.242 75.0236Z" fill="#A39C82" stroke="#30302E" stroke-width="0.52"/>
<path d="M753.936 84.6644L753.399 83.5884L764.98 77.8018L765.517 78.8778L753.936 84.6644Z" fill="#A39C82" stroke="#30302E" stroke-width="0.52"/>
<path d="M589.381 272.252L588.3 271.716L622.274 203.859L695.418 167.333L731.99 94.2804L745.664 87.4502L746.2 88.5262L732.887 95.1765L696.315 168.229L623.171 204.755L589.381 272.252Z" fill="#A39C82" stroke="#30302E" stroke-width="0.52"/>
<path d="M447.345 402.137L446.808 401.061L475.986 386.49L512.558 313.438L533.561 302.948L534.098 304.024L513.456 314.334L476.884 387.387L447.345 402.137Z" fill="#A39C82" stroke="#30302E" stroke-width="0.52"/>
<path d="M768.471 70.9465L767.935 69.8705L775.656 66.0127L776.193 67.0887L768.471 70.9465Z" fill="#A39C82" stroke="#30302E" stroke-width="0.52"/>
<path d="M753.029 78.6584L752.492 77.5824L760.214 73.7246L760.751 74.8006L753.029 78.6584Z" fill="#A39C82" stroke="#30302E" stroke-width="0.52"/>
<path d="M733.619 88.3534L733.082 87.2774L737.009 85.3125L737.546 86.3885L733.619 88.3534Z" fill="#A39C82" stroke="#30302E" stroke-width="0.52"/>
<path d="M582.496 273.078L581.418 272.542L617.962 199.551L691.105 163.024L727.677 89.9718L728.265 89.6768L728.805 90.7528L728.575 90.8715L692.003 163.921L618.859 200.447L582.496 273.078Z" fill="#A39C82" stroke="#30302E" stroke-width="0.52"/>
<path d="M446.437 396.131L445.9 395.055L471.673 382.183L508.245 309.13L536.515 295.013L537.052 296.089L509.142 310.026L472.57 383.079L446.437 396.131Z" fill="#A39C82" stroke="#30302E" stroke-width="0.52"/>
<path d="M752.121 72.6522L751.584 71.5762L767.023 63.8643L767.56 64.9403L752.121 72.6522Z" fill="#A39C82" stroke="#30302E" stroke-width="0.52"/>
<path d="M580.279 264.59L579.202 264.054L613.648 195.244L686.792 158.721L723.364 85.6685L728.293 83.207L728.83 84.283L724.261 86.5646L687.689 159.617L614.549 196.14L580.279 264.59Z" fill="#A39C82" stroke="#30302E" stroke-width="0.52"/>
<path d="M445.529 390.125L444.992 389.046L467.364 377.876L503.932 304.826L524.024 294.793L524.56 295.869L504.83 305.723L468.261 378.772L445.529 390.125Z" fill="#A39C82" stroke="#30302E" stroke-width="0.52"/>
<path d="M747.35 68.5745L746.813 67.4949L762.257 59.7866L762.793 60.8626L747.35 68.5745Z" fill="#A39C82" stroke="#30302E" stroke-width="0.52"/>
<path d="M573.761 264.694L572.684 264.158L609.339 190.94L682.479 154.413L719.051 81.3606L727.461 77.1646L727.998 78.2405L719.948 82.2566L683.376 155.309L610.236 191.836L573.761 264.694Z" fill="#A39C82" stroke="#30302E" stroke-width="0.52"/>
<path d="M444.621 384.115L444.087 383.039L463.051 373.568L499.623 300.519L557.875 271.431L558.412 272.507L500.52 301.415L463.948 374.464L444.621 384.115Z" fill="#A39C82" stroke="#30302E" stroke-width="0.52"/>
<path d="M566.919 261.797L566.382 260.721L568.454 259.685L605.026 186.632L678.17 150.106L714.741 77.0533L724.07 72.3931L724.607 73.4727L715.639 77.9494L679.067 151.002L605.923 187.528L569.351 260.581L566.919 261.797Z" fill="#A39C82" stroke="#30302E" stroke-width="0.52"/>
<path d="M516.392 287.027L515.855 285.951L558.354 264.727L558.891 265.803L516.392 287.027Z" fill="#A39C82" stroke="#30302E" stroke-width="0.52"/>
<path d="M441.227 379.355L440.69 378.279L458.738 369.264L495.31 296.211L511.989 287.88L512.526 288.956L496.207 297.107L459.635 370.16L441.227 379.355Z" fill="#A39C82" stroke="#30302E" stroke-width="0.52"/>
<path d="M557.562 260.009L557.025 258.933L564.141 255.377L600.713 182.328L673.857 145.798L708.858 75.8838L709.935 76.42L674.754 146.698L601.61 183.224L565.038 256.273L557.562 260.009Z" fill="#A39C82" stroke="#30302E" stroke-width="0.52"/>
<path d="M515.027 281.251L514.49 280.172L553.126 260.879L553.663 261.955L515.027 281.251Z" fill="#A39C82" stroke="#30302E" stroke-width="0.52"/>
<path d="M439.865 373.575L439.328 372.495L454.425 364.956L490.997 291.903L506.761 284.033L507.298 285.109L491.894 292.8L455.323 365.852L439.865 373.575Z" fill="#A39C82" stroke="#30302E" stroke-width="0.52"/>
<path d="M544.554 260.045L544.017 258.969L559.831 251.074L596.4 178.021L669.544 141.495L702.069 76.5317L703.146 77.0679L670.444 142.391L597.297 178.917L560.728 251.97L544.554 260.045Z" fill="#A39C82" stroke="#30302E" stroke-width="0.52"/>
<path d="M509.802 277.4L509.265 276.321L540.151 260.897L540.688 261.973L509.802 277.4Z" fill="#A39C82" stroke="#30302E" stroke-width="0.52"/>
<path d="M438.51 367.788L437.973 366.712L450.116 360.652L486.688 287.596L505.402 278.254L505.939 279.33L487.585 288.496L451.013 361.548L438.51 367.788Z" fill="#A39C82" stroke="#30302E" stroke-width="0.52"/>
<path d="M543.199 254.261L542.662 253.185L555.518 246.765L592.09 173.713L665.234 137.186L697.295 73.1484L698.372 73.6846L666.131 138.083L592.987 174.609L556.415 247.661L543.199 254.261Z" fill="#A39C82" stroke="#30302E" stroke-width="0.52"/>
<path d="M508.436 271.622L507.899 270.546L534.927 257.051L535.463 258.127L508.436 271.622Z" fill="#A39C82" stroke="#30302E" stroke-width="0.52"/>
<path d="M441.09 360.044L440.553 358.968L445.803 356.344L482.375 283.292L504.037 272.474L504.574 273.55L483.272 284.188L446.7 357.24L441.09 360.044Z" fill="#A39C82" stroke="#30302E" stroke-width="0.52"/>
<path d="M442.599 352.515L441.522 351.979L478.061 278.984L551.205 242.458L587.777 169.405L660.921 132.882L692.517 69.7656L693.598 70.3018L661.818 133.778L588.674 170.301L552.103 243.354L478.959 279.88L442.599 352.515Z" fill="#A39C82" stroke="#30302E" stroke-width="0.52"/>
<path d="M501.842 261.995L501.305 260.919L546.892 238.154L583.468 165.101L656.608 128.575L685.808 70.2515L686.885 70.7877L657.505 129.471L584.365 165.997L547.793 239.05L501.842 261.995Z" fill="#A39C82" stroke="#30302E" stroke-width="0.52"/>
<path d="M440.139 344.509L439.062 343.973L473.753 274.681L497.447 262.848L497.984 263.924L474.65 275.577L440.139 344.509Z" fill="#A39C82" stroke="#30302E" stroke-width="0.52"/>
<path d="M682.115 67.398L681.038 66.8618L688.777 51.3984L689.858 51.9346L682.115 67.398Z" fill="#A39C82" stroke="#30302E" stroke-width="0.52"/>
<path d="M437.35 337.164L436.272 336.628L469.439 270.373L542.583 233.846L579.155 160.794L652.299 124.267L679.103 70.7231L680.18 71.2593L653.196 125.164L580.052 161.69L543.481 234.742L470.337 271.269L437.35 337.164Z" fill="#A39C82" stroke="#30302E" stroke-width="0.52"/>
<path d="M434.528 329.88L433.447 329.344L465.126 266.065L538.27 229.543L574.842 156.486L647.986 119.96L684.385 47.2529L685.462 47.7891L648.883 120.856L575.739 157.382L539.167 230.439L466.023 266.961L434.528 329.88Z" fill="#A39C82" stroke="#30302E" stroke-width="0.52"/>
<path d="M254.672 480.767L253.656 481.272L254.192 482.348L255.208 481.843L254.672 480.767Z" fill="#A39C82" stroke="#30302E" stroke-width="0.52"/>
<path d="M541.718 212.424L540.641 211.888L570.533 152.182L643.673 115.656L677.543 48.0015L678.62 48.5377L644.57 116.552L571.43 153.078L541.718 212.424Z" fill="#A39C82" stroke="#30302E" stroke-width="0.52"/>
<path d="M433.837 318.34L432.76 317.804L460.814 261.758L533.961 225.235L534.552 224.048L535.63 224.584L534.859 226.131L461.715 262.654L433.837 318.34Z" fill="#A39C82" stroke="#30302E" stroke-width="0.52"/>
<path d="M242.168 482.042L241.094 481.503L241.389 480.916L250.714 476.259L251.251 477.335L242.283 481.812L242.168 482.042Z" fill="#A39C82" stroke="#30302E" stroke-width="0.52"/>
<path d="M539.113 204.708L538.036 204.172L566.219 147.874L639.363 111.348L671.035 48.0767L672.112 48.6129L640.261 112.244L567.117 148.771L539.113 204.708Z" fill="#A39C82" stroke="#30302E" stroke-width="0.52"/>
<path d="M493.386 240.382L492.849 239.306L529.648 220.927L529.778 220.665L530.855 221.201L530.545 221.823L493.386 240.382Z" fill="#A39C82" stroke="#30302E" stroke-width="0.52"/>
<path d="M429.297 314.492L428.219 313.956L456.504 257.454L488.986 241.231L489.523 242.311L457.401 258.35L429.297 314.492Z" fill="#A39C82" stroke="#30302E" stroke-width="0.52"/>
<path d="M236.409 480.625L235.332 480.088L237.072 476.608L245.939 472.182L246.476 473.258L237.969 477.505L236.409 480.625Z" fill="#A39C82" stroke="#30302E" stroke-width="0.52"/>
<path d="M669.529 40.8652L668.452 40.329L670.535 36.1689L671.612 36.7052L669.529 40.8652Z" fill="#A39C82" stroke="#30302E" stroke-width="0.52"/>
<path d="M540.367 189.285L539.29 188.749L561.907 143.571L635.051 107.045L666.496 44.2339L667.573 44.7701L635.948 107.941L562.804 144.467L540.367 189.285Z" fill="#A39C82" stroke="#30302E" stroke-width="0.52"/>
<path d="M534.57 200.861L533.493 200.325L537.359 192.606L538.436 193.142L534.57 200.861Z" fill="#A39C82" stroke="#30302E" stroke-width="0.52"/>
<path d="M496.337 232.447L495.8 231.371L525.335 216.62L531.558 204.19L532.635 204.726L526.233 217.516L496.337 232.447Z" fill="#A39C82" stroke="#30302E" stroke-width="0.52"/>
<path d="M422.818 314.51L421.741 313.974L452.195 253.146L476.498 241.008L477.035 242.087L453.092 254.042L422.818 314.51Z" fill="#A39C82" stroke="#30302E" stroke-width="0.52"/>
<path d="M232.19 476.129L231.112 475.593L232.763 472.304L241.165 468.108L241.702 469.184L233.66 473.2L232.19 476.129Z" fill="#A39C82" stroke="#30302E" stroke-width="0.52"/>
<path d="M663.033 40.9226L661.956 40.3864L665.941 32.4189L667.018 32.9551L663.033 40.9226Z" fill="#A39C82" stroke="#30302E" stroke-width="0.52"/>
<path d="M533.896 189.292L532.819 188.755L557.594 139.263L630.742 102.737L660.014 44.2588L661.091 44.795L631.639 103.633L558.491 140.159L533.896 189.292Z" fill="#A39C82" stroke="#30302E" stroke-width="0.52"/>
<path d="M499.288 224.511L498.751 223.435L521.022 212.312L527.018 200.343L528.095 200.879L521.919 213.208L499.288 224.511Z" fill="#A39C82" stroke="#30302E" stroke-width="0.52"/>
<path d="M487.707 230.295L487.17 229.219L491.029 227.293L491.566 228.369L487.707 230.295Z" fill="#A39C82" stroke="#30302E" stroke-width="0.52"/>
<path d="M418.275 310.663L417.197 310.127L447.882 248.842L471.727 236.931L472.264 238.007L448.779 249.738L418.275 310.663Z" fill="#A39C82" stroke="#30302E" stroke-width="0.52"/>
<path d="M229.167 468.983L229.03 468.706L228.281 468.335L228.45 467.997L244.16 460.155L244.697 461.231L229.167 468.983Z" fill="#A39C82" stroke="#30302E" stroke-width="0.52"/>
<path d="M656.551 40.9476L655.474 40.4114L661.372 28.6294L662.449 29.1656L656.551 40.9476Z" fill="#A39C82" stroke="#30302E" stroke-width="0.52"/>
<path d="M482.937 226.217L482.4 225.141L516.713 208.008L553.285 134.955L626.429 98.4292L649.676 51.9922L650.754 52.5284L627.326 99.3253L554.182 135.852L517.61 208.904L482.937 226.217Z" fill="#A39C82" stroke="#30302E" stroke-width="0.52"/>
<path d="M471.356 232.004L470.819 230.928L474.678 228.999L475.215 230.075L471.356 232.004Z" fill="#A39C82" stroke="#30302E" stroke-width="0.52"/>
<path d="M409.793 314.687L408.715 314.151L443.569 244.535L451.459 240.594L451.996 241.67L444.466 245.431L409.793 314.687Z" fill="#A39C82" stroke="#30302E" stroke-width="0.52"/>
<path d="M224.854 464.678L224.775 464.516L223.932 464.099L224.137 463.692L250.98 450.284L251.517 451.363L225.013 464.635L224.973 464.617L224.854 464.678Z" fill="#A39C82" stroke="#30302E" stroke-width="0.52"/>
<path d="M652.008 37.0975L650.93 36.5612L656.811 24.8188L657.888 25.355L652.008 37.0975Z" fill="#A39C82" stroke="#30302E" stroke-width="0.52"/>
<path d="M513.073 204.708L512.843 204.147L512.31 203.881L548.972 130.648L622.115 94.1219L643.205 51.9961L644.282 52.5323L623.013 95.018L549.869 131.544L513.286 204.626L513.073 204.708Z" fill="#A39C82" stroke="#30302E" stroke-width="0.52"/>
<path d="M478.166 222.14L477.629 221.064L504.711 207.54L505.248 208.616L478.166 222.14Z" fill="#A39C82" stroke="#30302E" stroke-width="0.52"/>
<path d="M403.401 314.266L403.105 313.715L402.594 313.46L439.256 240.227L446.682 236.521L447.219 237.597L440.153 241.123L403.581 314.176L403.401 314.266Z" fill="#A39C82" stroke="#30302E" stroke-width="0.52"/>
<path d="M223.327 458.982L222.79 457.906L246.21 446.207L246.747 447.283L223.327 458.982Z" fill="#A39C82" stroke="#30302E" stroke-width="0.52"/>
<path d="M645.532 37.1121L644.455 36.5759L650.274 24.9595L651.352 25.4957L645.532 37.1121Z" fill="#A39C82" stroke="#30302E" stroke-width="0.52"/>
<path d="M587.176 106.454L586.639 105.378L617.803 89.8176L636.734 52.0029L637.811 52.5391L618.7 90.7136L587.176 106.454Z" fill="#A39C82" stroke="#30302E" stroke-width="0.52"/>
<path d="M508.808 200.383L508.465 199.807L508 199.577L544.663 126.344L582.78 107.307L583.317 108.383L545.56 127.24L508.988 200.293L508.808 200.383Z" fill="#A39C82" stroke="#30302E" stroke-width="0.52"/>
<path d="M473.395 218.063L472.858 216.987L496.045 205.41L496.582 206.486L473.395 218.063Z" fill="#A39C82" stroke="#30302E" stroke-width="0.52"/>
<path d="M465.677 221.917L465.141 220.841L469 218.916L469.536 219.992L465.677 221.917Z" fill="#A39C82" stroke="#30302E" stroke-width="0.52"/>
<path d="M390.552 314.222L390.015 313.146L398.374 308.972L434.942 235.923L437.85 234.469L438.387 235.545L435.839 236.819L399.271 309.868L390.552 314.222Z" fill="#A39C82" stroke="#30302E" stroke-width="0.52"/>
<path d="M310.292 378.03L309.215 377.494L315.005 365.921L316.082 366.457L310.292 378.03Z" fill="#A39C82" stroke="#30302E" stroke-width="0.52"/>
<path d="M226.505 450.932L225.968 449.856L253.024 436.347L253.561 437.423L226.505 450.932Z" fill="#A39C82" stroke="#30302E" stroke-width="0.52"/>
<path d="M640.996 33.2646L639.915 32.7284L647.701 17.1714L648.779 17.7076L640.996 33.2646Z" fill="#A39C82" stroke="#30302E" stroke-width="0.52"/>
<path d="M593.993 96.5907L593.456 95.5147L613.49 85.5104L628.335 55.8647L629.412 56.4009L614.387 86.4065L593.993 96.5907Z" fill="#A39C82" stroke="#30302E" stroke-width="0.52"/>
<path d="M504.271 196.183L503.86 195.352L503.688 195.269L503.752 195.136L503.738 195.107L503.778 195.086L540.35 122.037L589.594 97.4434L590.131 98.523L541.247 122.933L504.675 195.985L504.271 196.183Z" fill="#A39C82" stroke="#30302E" stroke-width="0.52"/>
<path d="M472.491 212.057L471.954 210.981L479.672 207.123L480.209 208.199L472.491 212.057Z" fill="#A39C82" stroke="#30302E" stroke-width="0.52"/>
<path d="M460.907 217.84L460.371 216.764L468.092 212.91L468.629 213.986L460.907 217.84Z" fill="#A39C82" stroke="#30302E" stroke-width="0.52"/>
<path d="M445.449 225.558L444.916 224.482L448.782 222.55L449.319 223.626L445.449 225.558Z" fill="#A39C82" stroke="#30302E" stroke-width="0.52"/>
<path d="M385.778 310.148L385.241 309.072L394.062 304.668L430.634 231.615L437.127 228.373L437.663 229.449L431.531 232.511L394.959 305.564L385.778 310.148Z" fill="#A39C82" stroke="#30302E" stroke-width="0.52"/>
<path d="M299.958 385.746L298.88 385.21L320.917 341.195L327.201 338.053L327.738 339.129L321.814 342.091L299.958 385.746Z" fill="#A39C82" stroke="#30302E" stroke-width="0.52"/>
<path d="M264.237 425.633L263.7 424.557L271.436 420.692L271.973 421.768L264.237 425.633Z" fill="#A39C82" stroke="#30302E" stroke-width="0.52"/>
<path d="M225.611 444.922L225.074 443.842L259.837 426.486L260.374 427.562L225.611 444.922Z" fill="#A39C82" stroke="#30302E" stroke-width="0.52"/>
<path d="M636.452 29.414L635.375 28.8778L641.187 17.2686L642.264 17.8048L636.452 29.414Z" fill="#A39C82" stroke="#30302E" stroke-width="0.52"/>
<path d="M593.088 90.5843L592.551 89.5083L609.18 81.2026L616.062 67.4521L617.139 67.9884L610.077 82.0987L593.088 90.5843Z" fill="#A39C82" stroke="#30302E" stroke-width="0.52"/>
<path d="M490.925 196.392L490.388 195.316L499.464 190.781L536.036 117.729L588.686 91.437L589.222 92.513L536.934 118.628L500.362 191.677L490.925 196.392Z" fill="#A39C82" stroke="#30302E" stroke-width="0.52"/>
<path d="M456.14 213.763L455.603 212.687L482.634 199.188L483.171 200.264L456.14 213.763Z" fill="#A39C82" stroke="#30302E" stroke-width="0.52"/>
<path d="M440.679 221.481L440.142 220.405L451.741 214.615L452.278 215.691L440.679 221.481Z" fill="#A39C82" stroke="#30302E" stroke-width="0.52"/>
<path d="M381.004 306.075L380.467 304.995L389.749 300.36L426.32 227.308L436.262 222.345L436.798 223.421L427.218 228.204L390.646 301.256L381.004 306.075Z" fill="#A39C82" stroke="#30302E" stroke-width="0.52"/>
<path d="M228.58 436.98L228.043 435.904L280.036 409.939L316.605 336.887L317.736 336.322L318.273 337.398L317.502 337.783L280.934 410.835L228.58 436.98Z" fill="#A39C82" stroke="#30302E" stroke-width="0.52"/>
<path d="M633.844 21.7068L632.767 21.1706L636.644 13.4263L637.721 13.9625L633.844 21.7068Z" fill="#A39C82" stroke="#30302E" stroke-width="0.52"/>
<path d="M592.188 84.5746L591.651 83.4986L604.867 76.8986L609.584 67.481L610.661 68.0172L605.764 77.7947L592.188 84.5746Z" fill="#A39C82" stroke="#30302E" stroke-width="0.52"/>
<path d="M576.73 92.2933L576.193 91.2173L587.781 85.4307L588.318 86.5067L576.73 92.2933Z" fill="#A39C82" stroke="#30302E" stroke-width="0.52"/>
<path d="M490.068 190.361L489.531 189.285L495.152 186.474L531.724 113.425L572.331 93.1431L572.868 94.2191L532.621 114.321L496.049 187.37L490.068 190.361Z" fill="#A39C82" stroke="#30302E" stroke-width="0.52"/>
<path d="M459.091 205.828L458.554 204.752L485.614 191.239L486.151 192.315L459.091 205.828Z" fill="#A39C82" stroke="#30302E" stroke-width="0.52"/>
<path d="M447.507 211.613L446.97 210.537L454.692 206.68L455.229 207.756L447.507 211.613Z" fill="#A39C82" stroke="#30302E" stroke-width="0.52"/>
<path d="M376.23 301.994L375.693 300.918L385.439 296.056L422.011 223L422.714 222.647L423.251 223.727L422.909 223.896L386.337 296.952L376.23 301.994Z" fill="#A39C82" stroke="#30302E" stroke-width="0.52"/>
<path d="M227.672 430.974L227.135 429.898L275.723 405.632L312.295 332.58L312.846 332.306L313.383 333.382L313.192 333.476L276.62 406.528L227.672 430.974Z" fill="#A39C82" stroke="#30302E" stroke-width="0.52"/>
<path d="M627.372 21.7138L626.295 21.1776L628.226 17.3198L629.307 17.856L627.372 21.7138Z" fill="#A39C82" stroke="#30302E" stroke-width="0.52"/>
<path d="M575.822 86.2871L575.285 85.2111L586.88 79.4209L587.417 80.4969L575.822 86.2871Z" fill="#A39C82" stroke="#30302E" stroke-width="0.52"/>
<path d="M454.32 201.751L453.783 200.675L490.842 182.17L527.41 109.118L567.563 89.0659L568.1 90.1419L528.311 110.014L491.739 183.066L454.32 201.751Z" fill="#A39C82" stroke="#30302E" stroke-width="0.52"/>
<path d="M442.74 207.537L442.203 206.461L449.924 202.603L450.461 203.679L442.74 207.537Z" fill="#A39C82" stroke="#30302E" stroke-width="0.52"/>
<path d="M431.138 213.327L430.601 212.251L434.474 210.318L435.011 211.394L431.138 213.327Z" fill="#A39C82" stroke="#30302E" stroke-width="0.52"/>
<path d="M371.459 297.92L370.922 296.844L381.127 291.749L416.481 221.132L417.558 221.669L382.024 292.645L371.459 297.92Z" fill="#A39C82" stroke="#30302E" stroke-width="0.52"/>
<path d="M230.623 423.039L230.086 421.963L271.411 401.325L306.642 330.953L307.72 331.489L272.308 402.221L230.623 423.039Z" fill="#A39C82" stroke="#30302E" stroke-width="0.52"/>
<path d="M574.914 80.2811L574.377 79.2051L589.896 71.4536L590.433 72.5332L574.914 80.2811Z" fill="#A39C82" stroke="#30302E" stroke-width="0.52"/>
<path d="M555.612 89.9219L555.075 88.8459L558.934 86.917L559.471 87.993L555.612 89.9219Z" fill="#A39C82" stroke="#30302E" stroke-width="0.52"/>
<path d="M437.969 203.456L437.433 202.38L486.529 177.863L523.101 104.81L543.488 94.6294L544.025 95.7054L523.998 105.706L487.426 178.759L437.969 203.456Z" fill="#A39C82" stroke="#30302E" stroke-width="0.52"/>
<path d="M430.241 207.317L429.704 206.241L433.57 204.312L434.107 205.388L430.241 207.317Z" fill="#A39C82" stroke="#30302E" stroke-width="0.52"/>
<path d="M414.189 215.332L413.652 214.256L421.943 210.117L422.48 211.193L414.189 215.332Z" fill="#A39C82" stroke="#30302E" stroke-width="0.52"/>
<path d="M370.587 291.896L370.05 290.816L376.813 287.441L407.923 225.299L409 225.836L377.714 288.337L370.587 291.896Z" fill="#A39C82" stroke="#30302E" stroke-width="0.52"/>
<path d="M229.715 417.032L229.178 415.956L267.097 397.019L302.069 327.166L303.147 327.702L267.994 397.916L229.715 417.032Z" fill="#A39C82" stroke="#30302E" stroke-width="0.52"/>
<path d="M581.753 70.4068L581.216 69.3308L585.115 67.3804L585.652 68.4564L581.753 70.4068Z" fill="#A39C82" stroke="#30302E" stroke-width="0.52"/>
<path d="M546.979 87.7698L546.442 86.6938L550.304 84.7686L550.841 85.8445L546.979 87.7698Z" fill="#A39C82" stroke="#30302E" stroke-width="0.52"/>
<path d="M444.783 193.595L444.246 192.519L482.216 173.558L518.788 100.502L523.13 98.3354L523.667 99.4115L519.689 101.398L483.113 174.454L444.783 193.595Z" fill="#A39C82" stroke="#30302E" stroke-width="0.52"/>
<path d="M433.199 199.379L432.662 198.303L440.384 194.449L440.921 195.525L433.199 199.379Z" fill="#A39C82" stroke="#30302E" stroke-width="0.52"/>
<path d="M365.81 287.819L365.273 286.743L372.504 283.134L409.076 210.085L417.165 206.043L417.702 207.119L409.974 210.981L373.402 284.03L365.81 287.819Z" fill="#A39C82" stroke="#30302E" stroke-width="0.52"/>
<path d="M232.666 409.098L232.132 408.022L262.784 392.713L297.508 323.36L298.585 323.896L263.681 393.609L232.666 409.098Z" fill="#A39C82" stroke="#30302E" stroke-width="0.52"/>
<path d="M542.208 83.6925L541.671 82.6165L549.393 78.7588L549.93 79.8348L542.208 83.6925Z" fill="#A39C82" stroke="#30302E" stroke-width="0.52"/>
<path d="M526.743 91.4154L526.207 90.3394L530.084 88.4033L530.62 89.4793L526.743 91.4154Z" fill="#A39C82" stroke="#30302E" stroke-width="0.52"/>
<path d="M396.047 225.875L394.969 225.339L404.763 205.777L477.907 169.251L506.721 111.694L507.798 112.23L478.804 170.147L405.66 206.673L396.047 225.875Z" fill="#A39C82" stroke="#30302E" stroke-width="0.52"/>
<path d="M368.947 279.79L368.63 279.272L368.101 279.006L393.038 229.197L394.115 229.733L369.099 279.7L368.947 279.79Z" fill="#A39C82" stroke="#30302E" stroke-width="0.52"/>
<path d="M231.758 403.092L231.221 402.016L258.475 388.409L290.968 323.5L292.045 324.037L259.372 389.305L231.758 403.092Z" fill="#A39C82" stroke="#30302E" stroke-width="0.52"/>
<path d="M537.442 79.6151L536.905 78.5391L548.485 72.7524L549.022 73.832L537.442 79.6151Z" fill="#A39C82" stroke="#30302E" stroke-width="0.52"/>
<path d="M503.258 108.38L502.181 107.844L508.043 96.1299L509.12 96.6661L503.258 108.38Z" fill="#A39C82" stroke="#30302E" stroke-width="0.52"/>
<path d="M389.576 225.883L388.499 225.346L400.45 201.469L473.594 164.943L498.315 115.566L499.393 116.102L474.491 165.839L401.347 202.365L389.576 225.883Z" fill="#A39C82" stroke="#30302E" stroke-width="0.52"/>
<path d="M366.285 272.403L365.208 271.867L367.229 267.833L368.306 268.369L366.285 272.403Z" fill="#A39C82" stroke="#30302E" stroke-width="0.52"/>
<path d="M234.712 395.16L234.175 394.084L254.162 384.101L286.425 319.657L287.502 320.193L255.063 384.997L234.712 395.16Z" fill="#A39C82" stroke="#30302E" stroke-width="0.52"/>
<path d="M536.533 73.6095L535.997 72.5335L559.161 60.9639L559.698 62.0399L536.533 73.6095Z" fill="#A39C82" stroke="#30302E" stroke-width="0.52"/>
<path d="M498.715 104.533L497.638 103.997L503.493 92.3047L504.57 92.8409L498.715 104.533Z" fill="#A39C82" stroke="#30302E" stroke-width="0.52"/>
<path d="M407.278 192.944L406.741 191.868L469.284 160.639L495.706 107.858L496.783 108.394L470.181 161.535L407.278 192.944Z" fill="#A39C82" stroke="#30302E" stroke-width="0.52"/>
<path d="M388.898 214.313L387.821 213.777L395.957 197.525L397.034 198.062L388.898 214.313Z" fill="#A39C82" stroke="#30302E" stroke-width="0.52"/>
<path d="M233.807 389.15L233.271 388.074L249.852 379.793L281.881 315.813L282.958 316.349L250.749 380.689L233.807 389.15Z" fill="#A39C82" stroke="#30302E" stroke-width="0.52"/>
<path d="M543.347 63.7494L542.811 62.6734L574.684 46.753L575.725 44.6802L576.803 45.2164L575.585 47.6491L543.347 63.7494Z" fill="#A39C82" stroke="#30302E" stroke-width="0.52"/>
<path d="M402.508 188.867L401.971 187.791L464.972 156.331L496.975 92.4014L498.052 92.9376L465.869 157.227L402.508 188.867Z" fill="#A39C82" stroke="#30302E" stroke-width="0.52"/>
<path d="M388.236 202.718L387.158 202.186L391.532 193.448L392.61 193.984L388.236 202.718Z" fill="#A39C82" stroke="#30302E" stroke-width="0.52"/>
<path d="M236.791 381.201L236.254 380.125L245.54 375.486L277.341 311.966L278.418 312.503L246.437 376.382L236.791 381.201Z" fill="#A39C82" stroke="#30302E" stroke-width="0.52"/>
<path d="M468.106 139.839L467.029 139.303L492.15 89.127L493.227 89.6596L468.106 139.839Z" fill="#A39C82" stroke="#30302E" stroke-width="0.52"/>
<path d="M459.362 154.018L458.825 152.942L460.659 152.024L465.083 143.182L466.161 143.718L461.556 152.92L459.362 154.018Z" fill="#A39C82" stroke="#30302E" stroke-width="0.52"/>
<path d="M401.048 183.138L400.511 182.062L454.663 155.018L455.2 156.094L401.048 183.138Z" fill="#A39C82" stroke="#30302E" stroke-width="0.52"/>
<path d="M235.354 375.461L234.817 374.385L241.227 371.182L274.466 304.787L275.544 305.323L242.125 372.078L235.354 375.461Z" fill="#A39C82" stroke="#30302E" stroke-width="0.52"/>
<path d="M465.271 132.58L464.193 132.044L487.376 85.7368L488.453 86.273L465.271 132.58Z" fill="#A39C82" stroke="#30302E" stroke-width="0.52"/>
<path d="M419.002 167.71L418.465 166.634L437.775 156.994L438.311 158.07L419.002 167.71Z" fill="#A39C82" stroke="#30302E" stroke-width="0.52"/>
<path d="M407.422 173.493L406.885 172.417L414.607 168.563L415.144 169.639L407.422 173.493Z" fill="#A39C82" stroke="#30302E" stroke-width="0.52"/>
<path d="M234.103 369.624L233.566 368.548L236.917 366.874L267.742 305.305L268.82 305.841L237.815 367.771L234.103 369.624Z" fill="#A39C82" stroke="#30302E" stroke-width="0.52"/>
<path d="M571.148 14.9399L569.215 18.8149L570.292 19.3509L572.225 15.4759L571.148 14.9399Z" fill="#A39C82" stroke="#30302E" stroke-width="0.52"/>
<path d="M468.229 113.755L467.148 113.219L484.548 78.4634L485.625 78.9996L468.229 113.755Z" fill="#A39C82" stroke="#30302E" stroke-width="0.52"/>
<path d="M464.366 121.468L463.289 120.931L465.22 117.074L466.298 117.61L464.366 121.468Z" fill="#A39C82" stroke="#30302E" stroke-width="0.52"/>
<path d="M456.612 136.957L455.535 136.421L457.484 132.527L458.561 133.063L456.612 136.957Z" fill="#A39C82" stroke="#30302E" stroke-width="0.52"/>
<path d="M440.823 150.354L440.287 149.278L452.188 143.333L452.725 144.409L440.823 150.354Z" fill="#A39C82" stroke="#30302E" stroke-width="0.52"/>
<path d="M433.084 154.219L432.547 153.143L436.413 151.211L436.95 152.291L433.084 154.219Z" fill="#A39C82" stroke="#30302E" stroke-width="0.52"/>
<path d="M394.461 173.504L393.924 172.428L413.241 162.784L413.778 163.86L394.461 173.504Z" fill="#A39C82" stroke="#30302E" stroke-width="0.52"/>
<path d="M228.822 365.802L228.285 364.726L232.605 362.567L262.969 301.915L264.046 302.451L233.502 363.466L228.822 365.802Z" fill="#A39C82" stroke="#30302E" stroke-width="0.52"/>
<path d="M561.666 23.7677L560.588 23.2315L564.491 15.4404L565.568 15.9766L561.666 23.7677Z" fill="#A39C82" stroke="#30302E" stroke-width="0.52"/>
<path d="M427.855 150.371L427.318 149.295L447.723 139.104L477.831 78.9634L478.908 79.4996L448.62 140L427.855 150.371Z" fill="#A39C82" stroke="#30302E" stroke-width="0.52"/>
<path d="M393.103 167.725L392.566 166.649L411.872 157.008L412.409 158.084L393.103 167.725Z" fill="#A39C82" stroke="#30302E" stroke-width="0.52"/>
<path d="M223.561 361.97L223.024 360.894L228.292 358.263L258.198 298.525L259.275 299.062L229.189 359.159L223.561 361.97Z" fill="#A39C82" stroke="#30302E" stroke-width="0.52"/>
<path d="M554.535 25.0959L553.458 24.5597L557.778 15.9302L558.855 16.4664L554.535 25.0959Z" fill="#A39C82" stroke="#30302E" stroke-width="0.52"/>
<path d="M430.363 142.661L429.826 141.585L443.41 134.801L471.125 79.4395L472.203 79.9756L444.307 135.697L430.363 142.661Z" fill="#A39C82" stroke="#30302E" stroke-width="0.52"/>
<path d="M395.6 160.017L395.063 158.941L406.647 153.158L407.184 154.234L395.6 160.017Z" fill="#A39C82" stroke="#30302E" stroke-width="0.52"/>
<path d="M380.117 167.75L379.581 166.674L391.204 160.87L391.741 161.946L380.117 167.75Z" fill="#A39C82" stroke="#30302E" stroke-width="0.52"/>
<path d="M222.426 356.078L221.885 355.002L223.982 353.955L253.427 295.139L254.505 295.675L224.879 354.851L222.426 356.078Z" fill="#A39C82" stroke="#30302E" stroke-width="0.52"/>
<path d="M546.896 23.2171L546.359 22.1375L548.813 20.914L554.971 8.61377L556.048 9.14997L549.71 21.81L546.896 23.2171Z" fill="#A39C82" stroke="#30302E" stroke-width="0.52"/>
<path d="M421.265 140.743L420.729 139.667L439.101 130.494L462.493 83.7651L463.57 84.3013L439.998 131.39L421.265 140.743Z" fill="#A39C82" stroke="#30302E" stroke-width="0.52"/>
<path d="M382.647 160.027L382.11 158.951L401.419 149.307L401.956 150.383L382.647 160.027Z" fill="#A39C82" stroke="#30302E" stroke-width="0.52"/>
<path d="M217.071 352.289L216.534 351.213L219.668 349.648L246.721 295.61L247.798 296.147L220.566 350.544L217.071 352.289Z" fill="#A39C82" stroke="#30302E" stroke-width="0.52"/>
<path d="M533.698 23.3468L533.161 22.2708L544.684 16.5166L544.821 16.7973L545.567 17.168L545.401 17.5026L533.698 23.3468Z" fill="#A39C82" stroke="#30302E" stroke-width="0.52"/>
<path d="M423.781 133.027L423.244 131.951L434.788 126.186L453.863 88.083L454.941 88.6192L435.685 127.082L423.781 133.027Z" fill="#A39C82" stroke="#30302E" stroke-width="0.52"/>
<path d="M389.01 150.39L388.473 149.314L403.916 141.603L404.453 142.679L389.01 150.39Z" fill="#A39C82" stroke="#30302E" stroke-width="0.52"/>
<path d="M216.07 346.333L215.753 345.765L215.266 345.524L243.886 288.355L244.963 288.892L216.253 346.243L216.07 346.333Z" fill="#A39C82" stroke="#30302E" stroke-width="0.52"/>
<path d="M524.596 21.4324L524.06 20.3564L535.763 14.5122L536.299 15.5882L524.596 21.4324Z" fill="#A39C82" stroke="#30302E" stroke-width="0.52"/>
<path d="M422.432 127.24L421.896 126.164L430.475 121.878L431.563 119.708L432.64 120.245L431.372 122.775L422.432 127.24Z" fill="#A39C82" stroke="#30302E" stroke-width="0.52"/>
<path d="M391.503 142.686L390.966 141.61L402.55 135.827L403.087 136.903L391.503 142.686Z" fill="#A39C82" stroke="#30302E" stroke-width="0.52"/>
<path d="M211.339 342.234L210.802 341.158L211.047 341.036L235.253 292.685L236.33 293.221L211.944 341.932L211.339 342.234Z" fill="#A39C82" stroke="#30302E" stroke-width="0.52"/>
<path d="M519.365 17.5861L518.828 16.5101L522.697 14.5776L523.234 15.6536L519.365 17.5861Z" fill="#A39C82" stroke="#30302E" stroke-width="0.52"/>
<path d="M233.491 285.973L232.414 285.437L234.345 281.576L235.422 282.112L233.491 285.973Z" fill="#A39C82" stroke="#30302E" stroke-width="0.52"/>
<path d="M210.269 332.356L209.191 331.82L228.551 293.149L229.628 293.685L210.269 332.356Z" fill="#A39C82" stroke="#30302E" stroke-width="0.52"/>
<path d="M226.259 287.491L225.182 286.955L229.048 279.24L230.126 279.776L226.259 287.491Z" fill="#A39C82" stroke="#30302E" stroke-width="0.52"/>
<path d="M218.541 302.915L217.46 302.379L219.395 298.521L220.473 299.058L218.541 302.915Z" fill="#A39C82" stroke="#30302E" stroke-width="0.52"/>
<path d="M221.723 283.645L220.646 283.109L222.574 279.251L223.651 279.787L221.723 283.645Z" fill="#A39C82" stroke="#30302E" stroke-width="0.52"/>
<path d="M210.139 306.777L209.062 306.241L212.924 298.529L214.001 299.065L210.139 306.777Z" fill="#A39C82" stroke="#30302E" stroke-width="0.52"/>
<path d="M217.18 279.79L216.103 279.254L219.965 271.542L221.042 272.078L217.18 279.79Z" fill="#A39C82" stroke="#30302E" stroke-width="0.52"/>
<path d="M205.599 302.93L204.521 302.394L206.453 298.536L207.53 299.072L205.599 302.93Z" fill="#A39C82" stroke="#30302E" stroke-width="0.52"/>
<path d="M213.814 273.601L212.736 273.065L216.599 265.35L217.676 265.886L213.814 273.601Z" fill="#A39C82" stroke="#30302E" stroke-width="0.52"/>
<path d="M209.952 281.309L208.875 280.773L210.806 276.919L211.883 277.455L209.952 281.309Z" fill="#A39C82" stroke="#30302E" stroke-width="0.52"/>
<path d="M202.23 296.733L201.153 296.197L206.947 284.631L208.024 285.167L202.23 296.733Z" fill="#A39C82" stroke="#30302E" stroke-width="0.52"/>
<path d="M356.913 121.202L356.376 120.122L379.541 108.556L380.077 109.632L356.913 121.202Z" fill="#A39C82" stroke="#30302E" stroke-width="0.52"/>
<path d="M209.959 268.379L208.881 267.843L210.813 263.985L211.89 264.522L209.959 268.379Z" fill="#A39C82" stroke="#30302E" stroke-width="0.52"/>
<path d="M196.447 295.372L195.37 294.836L201.16 283.267L202.237 283.803L196.447 295.372Z" fill="#A39C82" stroke="#30302E" stroke-width="0.52"/>
<path d="M351.587 117.401L351.05 116.325L378.074 102.83L378.611 103.906L351.587 117.401Z" fill="#A39C82" stroke="#30302E" stroke-width="0.52"/>
<path d="M210.935 253.506L209.858 252.97L211.796 249.098L212.874 249.634L210.935 253.506Z" fill="#A39C82" stroke="#30302E" stroke-width="0.52"/>
<path d="M203.21 268.941L202.133 268.404L204.061 264.55L205.138 265.086L203.21 268.941Z" fill="#A39C82" stroke="#30302E" stroke-width="0.52"/>
<path d="M191.626 292.08L190.548 291.544L194.411 283.828L195.488 284.364L191.626 292.08Z" fill="#A39C82" stroke="#30302E" stroke-width="0.52"/>
<path d="M347.732 112.868L347.195 111.792L354.917 107.938L355.454 109.014L347.732 112.868Z" fill="#A39C82" stroke="#30302E" stroke-width="0.52"/>
<path d="M206.853 248.742L205.776 248.206L213.123 233.534L225.676 227.265L226.213 228.341L214.02 234.43L206.853 248.742Z" fill="#A39C82" stroke="#30302E" stroke-width="0.52"/>
<path d="M185.609 291.18L184.532 290.644L196.119 267.498L197.197 268.034L185.609 291.18Z" fill="#A39C82" stroke="#30302E" stroke-width="0.52"/>
<path d="M347.74 106.404L347.203 105.328L351.062 103.399L351.598 104.475L347.74 106.404Z" fill="#A39C82" stroke="#30302E" stroke-width="0.52"/>
<path d="M200.836 247.842L199.758 247.306L208.809 229.226L225.694 220.794L226.231 221.87L209.707 230.122L200.836 247.842Z" fill="#A39C82" stroke="#30302E" stroke-width="0.52"/>
<path d="M181.527 286.416L180.449 285.88L190.106 266.591L191.183 267.127L181.527 286.416Z" fill="#A39C82" stroke="#30302E" stroke-width="0.52"/>
<path d="M304.638 137.158L303.561 136.621L307.427 128.895L308.505 129.431L304.638 137.158Z" fill="#A39C82" stroke="#30302E" stroke-width="0.52"/>
<path d="M277.111 190.004L276.571 188.928L277.645 188.392L280.347 182.99L281.424 183.526L278.542 189.288L277.111 190.004Z" fill="#A39C82" stroke="#30302E" stroke-width="0.52"/>
<path d="M194.822 246.938L193.745 246.402L204.5 224.918L229.567 212.398L230.104 213.474L205.397 225.814L194.822 246.938Z" fill="#A39C82" stroke="#30302E" stroke-width="0.52"/>
<path d="M175.508 285.516L174.431 284.98L178.301 277.253L179.378 277.79L175.508 285.516Z" fill="#A39C82" stroke="#30302E" stroke-width="0.52"/>
<path d="M340.032 97.3322L339.496 96.2562L354.935 88.5479L355.472 89.6238L340.032 97.3322Z" fill="#A39C82" stroke="#30302E" stroke-width="0.52"/>
<path d="M298.625 136.25L297.547 135.714L309.903 111.035L331.77 100.113L332.307 101.189L310.8 111.931L298.625 136.25Z" fill="#A39C82" stroke="#30302E" stroke-width="0.52"/>
<path d="M273.64 185.279L273.104 184.203L273.331 184.088L276.267 178.215L277.348 178.751L274.228 184.984L273.64 185.279Z" fill="#A39C82" stroke="#30302E" stroke-width="0.52"/>
<path d="M249.413 197.374L248.876 196.298L264.363 188.568L264.9 189.644L249.413 197.374Z" fill="#A39C82" stroke="#30302E" stroke-width="0.52"/>
<path d="M186.877 249.889L185.8 249.353L200.187 220.611L241.159 200.152L241.695 201.228L201.084 221.51L186.877 249.889Z" fill="#A39C82" stroke="#30302E" stroke-width="0.52"/>
<path d="M169.484 284.627L168.407 284.091L174.215 272.489L175.292 273.025L169.484 284.627Z" fill="#A39C82" stroke="#30302E" stroke-width="0.52"/>
<path d="M294.539 131.49L293.462 130.954L305.59 106.728L354.942 82.084L355.479 83.16L306.487 107.624L294.539 131.49Z" fill="#A39C82" stroke="#30302E" stroke-width="0.52"/>
<path d="M264.99 183.138L264.453 182.062L269.018 179.781L274.145 169.542L275.222 170.079L269.915 180.677L264.99 183.138Z" fill="#A39C82" stroke="#30302E" stroke-width="0.52"/>
<path d="M180.863 248.982L179.786 248.446L195.878 216.306L252.753 187.902L253.29 188.978L196.775 217.203L180.863 248.982Z" fill="#A39C82" stroke="#30302E" stroke-width="0.52"/>
<path d="M165.405 279.859L164.328 279.323L170.133 267.724L171.21 268.26L165.405 279.859Z" fill="#A39C82" stroke="#30302E" stroke-width="0.52"/>
<path d="M288.529 130.58L287.452 130.044L301.277 102.42L354.949 75.6211L355.486 76.6971L302.174 103.316L288.529 130.58Z" fill="#A39C82" stroke="#30302E" stroke-width="0.52"/>
<path d="M267.173 173.231L266.095 172.695L272.001 160.902L273.078 161.438L267.173 173.231Z" fill="#A39C82" stroke="#30302E" stroke-width="0.52"/>
<path d="M159.37 278.992L158.293 278.455L191.564 211.999L260.619 177.513L261.156 178.593L192.462 212.895L159.37 278.992Z" fill="#A39C82" stroke="#30302E" stroke-width="0.52"/>
<path d="M284.446 125.818L283.365 125.282L296.967 98.1158L358.84 67.2178L359.377 68.2938L297.864 99.0119L284.446 125.818Z" fill="#A39C82" stroke="#30302E" stroke-width="0.52"/>
<path d="M153.288 278.226L152.211 277.689L187.252 207.696L260.395 171.169L267.919 156.138L268.996 156.674L261.293 172.065L188.149 208.592L153.288 278.226Z" fill="#A39C82" stroke="#30302E" stroke-width="0.52"/>
<path d="M280.361 121.054L279.283 120.518L292.654 93.8084L362.909 58.7251L363.446 59.8011L293.552 94.7044L280.361 121.054Z" fill="#A39C82" stroke="#30302E" stroke-width="0.52"/>
<path d="M151.213 269.451L150.136 268.915L182.939 203.387L256.083 166.861L261.902 155.245L262.979 155.781L256.98 167.757L183.836 204.283L151.213 269.451Z" fill="#A39C82" stroke="#30302E" stroke-width="0.52"/>
<path d="M278.209 112.435L277.132 111.899L288.345 89.501L361.507 52.9423L361.532 52.9531L361.665 52.8848L361.755 53.0647L362.58 53.4821L362.382 53.8708L362.202 53.9608L289.242 90.3971L278.209 112.435Z" fill="#A39C82" stroke="#30302E" stroke-width="0.52"/>
<path d="M147.134 264.68L146.057 264.144L178.63 199.08L251.773 162.557L259.754 146.612L260.832 147.148L252.671 163.454L179.527 199.976L147.134 264.68Z" fill="#A39C82" stroke="#30302E" stroke-width="0.52"/>
<path d="M374.305 17.1359L373.228 16.5997L379.087 4.90771L380.164 5.44392L374.305 17.1359Z" fill="#A39C82" stroke="#30302E" stroke-width="0.52"/>
<path d="M277.993 99.9445L276.916 99.4083L284.032 85.1972L357.176 48.6709L363.557 35.9209L364.635 36.4571L358.073 49.567L284.929 86.0933L277.993 99.9445Z" fill="#A39C82" stroke="#30302E" stroke-width="0.52"/>
<path d="M143.052 259.912L141.975 259.376L174.317 194.777L247.461 158.25L255.672 141.848L256.75 142.384L248.358 159.146L175.214 195.673L143.052 259.912Z" fill="#A39C82" stroke="#30302E" stroke-width="0.52"/>
<path d="M275.853 91.3041L274.776 90.7679L279.719 80.8896L352.863 44.3633L371.106 7.92334L372.183 8.45954L353.76 45.2594L280.617 81.7857L275.853 91.3041Z" fill="#A39C82" stroke="#30302E" stroke-width="0.52"/>
<path d="M134.609 263.859L133.528 263.323L170.003 190.468L243.147 153.942L251.589 137.082L252.666 137.618L244.044 154.838L170.9 191.364L134.609 263.859Z" fill="#A39C82" stroke="#30302E" stroke-width="0.52"/>
<path d="M273.734 82.6165L272.657 82.0803L275.406 76.5852L348.55 40.0589L365.099 6.99805L366.176 7.53425L349.447 40.9549L276.303 77.4812L273.734 82.6165Z" fill="#A39C82" stroke="#30302E" stroke-width="0.52"/>
<path d="M258.237 113.569L257.16 113.033L259.091 109.175L260.168 109.711L258.237 113.569Z" fill="#A39C82" stroke="#30302E" stroke-width="0.52"/>
<path d="M250.516 128.992L249.438 128.456L251.37 124.598L252.447 125.134L250.516 128.992Z" fill="#A39C82" stroke="#30302E" stroke-width="0.52"/>
<path d="M214.718 163.025L214.181 161.945L238.838 149.634L243.63 140.058L244.707 140.594L239.735 150.53L214.718 163.025Z" fill="#A39C82" stroke="#30302E" stroke-width="0.52"/>
<path d="M132.931 254.291L131.854 253.755L165.694 186.161L210.323 163.875L210.86 164.951L166.591 187.058L132.931 254.291Z" fill="#A39C82" stroke="#30302E" stroke-width="0.52"/>
<path d="M274.131 72.1055L273.594 71.0295L344.241 35.7519L357.14 9.98193L358.217 10.5181L345.138 36.6479L274.131 72.1055Z" fill="#A39C82" stroke="#30302E" stroke-width="0.52"/>
<path d="M242.568 131.951L241.49 131.415L256.937 100.56L258.014 101.096L242.568 131.951Z" fill="#A39C82" stroke="#30302E" stroke-width="0.52"/>
<path d="M218.596 154.63L218.059 153.554L234.525 145.327L239.552 135.291L240.629 135.827L235.423 146.223L218.596 154.63Z" fill="#A39C82" stroke="#30302E" stroke-width="0.52"/>
<path d="M126.762 253.689L125.685 253.153L161.381 181.857L210.33 157.411L210.867 158.487L162.279 182.753L126.762 253.689Z" fill="#A39C82" stroke="#30302E" stroke-width="0.52"/>
<path d="M270.351 67.5345L269.814 66.4585L339.928 31.4437L355.09 1.15381L356.167 1.69L340.825 32.3397L270.351 67.5345Z" fill="#A39C82" stroke="#30302E" stroke-width="0.52"/>
<path d="M238.485 127.186L237.408 126.65L250.927 99.6489L252.004 100.185L238.485 127.186Z" fill="#A39C82" stroke="#30302E" stroke-width="0.52"/>
<path d="M218.614 148.159L218.077 147.083L230.212 141.023L235.469 130.526L236.546 131.062L231.109 141.919L218.614 148.159Z" fill="#A39C82" stroke="#30302E" stroke-width="0.52"/>
<path d="M124.773 244.744L123.695 244.207L157.068 177.55L202.611 154.806L203.148 155.882L157.965 178.446L124.773 244.744Z" fill="#A39C82" stroke="#30302E" stroke-width="0.52"/>
<path d="M270.546 60.9781L270.009 59.9021L335.615 27.1363L348.748 0.905762L349.826 1.44196L336.512 28.0324L270.546 60.9781Z" fill="#A39C82" stroke="#30302E" stroke-width="0.52"/>
<path d="M234.403 122.421L233.326 121.885L244.913 98.7422L245.991 99.2784L234.403 122.421Z" fill="#A39C82" stroke="#30302E" stroke-width="0.52"/>
<path d="M218.654 141.678L218.117 140.602L225.899 136.715L231.387 125.757L232.464 126.294L226.797 137.611L218.654 141.678Z" fill="#A39C82" stroke="#30302E" stroke-width="0.52"/>
<path d="M120.694 239.972L119.617 239.436L152.758 173.242L194.897 152.201L195.434 153.277L153.656 174.138L120.694 239.972Z" fill="#A39C82" stroke="#30302E" stroke-width="0.52"/>
<path d="M266.698 56.4403L266.161 55.3643L331.306 22.8325L342.562 0.348145L343.639 0.884346L332.203 23.7286L266.698 56.4403Z" fill="#A39C82" stroke="#30302E" stroke-width="0.52"/>
<path d="M228.382 121.529L227.304 120.993L242.758 90.1235L243.835 90.6597L228.382 121.529Z" fill="#A39C82" stroke="#30302E" stroke-width="0.52"/>
<path d="M218.797 135.149L218.26 134.073L221.59 132.41L223.37 128.855L224.447 129.395L222.487 133.307L218.797 135.149Z" fill="#A39C82" stroke="#30302E" stroke-width="0.52"/>
<path d="M116.615 235.203L115.538 234.667L148.446 168.938L187.183 149.591L187.72 150.667L149.343 169.834L116.615 235.203Z" fill="#A39C82" stroke="#30302E" stroke-width="0.52"/>
<path d="M256.955 54.8461L256.418 53.7701L326.993 18.5249L336.091 0.348145L337.168 0.884346L327.89 19.421L256.955 54.8461Z" fill="#A39C82" stroke="#30302E" stroke-width="0.52"/>
<path d="M231.145 103.09L230.068 102.553L239.717 83.2754L240.794 83.8116L231.145 103.09Z" fill="#A39C82" stroke="#30302E" stroke-width="0.52"/>
<path d="M221.456 122.447L220.379 121.91L224.27 114.134L225.348 114.67L221.456 122.447Z" fill="#A39C82" stroke="#30302E" stroke-width="0.52"/>
<path d="M213.101 131.537L212.564 130.461L217.277 128.104L218.322 126.02L219.399 126.556L218.174 129L213.101 131.537Z" fill="#A39C82" stroke="#30302E" stroke-width="0.52"/>
<path d="M111.636 232.235L110.559 231.699L144.133 164.631L181.555 145.943L182.092 147.019L145.03 165.527L111.636 232.235Z" fill="#A39C82" stroke="#30302E" stroke-width="0.52"/>
<path d="M250.253 51.7333L249.986 51.1971L249.414 51.01L249.493 50.7653L322.68 14.2173L329.623 0.348145L330.701 0.884346L323.577 15.1134L250.253 51.7333Z" fill="#A39C82" stroke="#30302E" stroke-width="0.52"/>
<path d="M223.431 105.584L222.354 105.047L233.934 81.9116L235.011 82.4478L223.431 105.584Z" fill="#A39C82" stroke="#30302E" stroke-width="0.52"/>
<path d="M201.885 130.673L201.348 129.597L213.134 123.713L213.67 124.789L201.885 130.673Z" fill="#A39C82" stroke="#30302E" stroke-width="0.52"/>
<path d="M107.791 226.994L106.714 226.458L139.82 160.322L178.157 141.177L178.694 142.253L140.717 161.218L107.791 226.994Z" fill="#A39C82" stroke="#30302E" stroke-width="0.52"/>
<path d="M242.776 54.022L241.699 53.4858L245.226 46.4397L318.367 9.91336L323.155 0.348145L324.232 0.884346L319.267 10.8094L246.123 47.3357L242.776 54.022Z" fill="#A39C82" stroke="#30302E" stroke-width="0.52"/>
<path d="M223.438 92.65L222.361 92.1138L230.082 76.6899L231.16 77.2261L223.438 92.65Z" fill="#A39C82" stroke="#30302E" stroke-width="0.52"/>
<path d="M198.49 125.908L197.953 124.832L208.835 119.398L209.08 119.891L209.667 120.157L209.577 120.33L209.372 120.474L198.49 125.908Z" fill="#A39C82" stroke="#30302E" stroke-width="0.52"/>
<path d="M105.889 217.876L104.812 217.34L135.511 156.015L178.622 134.488L179.159 135.564L136.408 156.911L105.889 217.876Z" fill="#A39C82" stroke="#30302E" stroke-width="0.52"/>
<path d="M238.932 48.7824L237.854 48.2462L240.914 42.1321L314.057 5.60577L316.691 0.348145L317.769 0.884346L314.955 6.50184L241.811 43.0281L238.932 48.7824Z" fill="#A39C82" stroke="#30302E" stroke-width="0.52"/>
<path d="M217.651 91.2864L216.574 90.7502L224.295 75.3228L225.373 75.8589L217.651 91.2864Z" fill="#A39C82" stroke="#30302E" stroke-width="0.52"/>
<path d="M105.904 204.924L104.826 204.388L131.198 151.711L204.341 115.185L208.835 106.209L209.912 106.746L205.239 116.081L132.095 152.607L105.904 204.924Z" fill="#A39C82" stroke="#30302E" stroke-width="0.52"/>
<path d="M233.123 47.4613L232.046 46.9251L236.6 37.8241L309.924 1.21143L310.065 1.48493L310.811 1.85559L310.645 2.19746L310.461 2.28742L237.497 38.7202L233.123 47.4613Z" fill="#A39C82" stroke="#30302E" stroke-width="0.52"/>
<path d="M105.911 191.99L104.833 191.454L126.888 147.403L200.029 110.877L220.444 70.104L221.521 70.6402L200.926 111.773L127.786 148.299L105.911 191.99Z" fill="#A39C82" stroke="#30302E" stroke-width="0.52"/>
<path d="M247.993 27.0219L247.457 25.9459L286.097 6.6499L286.634 7.7259L247.993 27.0219Z" fill="#A39C82" stroke="#30302E" stroke-width="0.52"/>
<path d="M229.276 42.2332L228.198 41.697L230.18 37.7349L231.257 38.2711L229.276 42.2332Z" fill="#A39C82" stroke="#30302E" stroke-width="0.52"/>
<path d="M103.987 182.915L102.909 182.379L122.575 143.1L195.715 106.573L214.657 68.7407L215.735 69.2769L196.613 107.469L123.472 143.996L103.987 182.915Z" fill="#A39C82" stroke="#30302E" stroke-width="0.52"/>
<path d="M248.469 20.3242L247.932 19.2482L259.523 13.458L260.06 14.534L248.469 20.3242Z" fill="#A39C82" stroke="#30302E" stroke-width="0.52"/>
<path d="M223.478 40.8943L222.4 40.3581L227.978 29.2131L236.301 25.0566L236.838 26.1326L228.875 30.1091L223.478 40.8943Z" fill="#A39C82" stroke="#30302E" stroke-width="0.52"/>
<path d="M211.879 64.0547L210.802 63.5185L218.527 48.0947L219.604 48.6309L211.879 64.0547Z" fill="#A39C82" stroke="#30302E" stroke-width="0.52"/>
<path d="M196.414 94.9564L195.333 94.4202L206.943 71.2305L208.02 71.7667L196.414 94.9564Z" fill="#A39C82" stroke="#30302E" stroke-width="0.52"/>
<path d="M98.2038 181.551L97.1265 181.015L118.263 138.792L191.406 102.265L193.352 98.3789L194.429 98.9151L192.304 103.162L119.16 139.688L98.2038 181.551Z" fill="#A39C82" stroke="#30302E" stroke-width="0.52"/>
<path d="M204.165 66.5486L203.087 66.0124L223.669 24.905L260.017 6.75342L260.554 7.82941L224.566 25.8011L204.165 66.5486Z" fill="#A39C82" stroke="#30302E" stroke-width="0.52"/>
<path d="M192.563 89.7245L191.485 89.1883L201.156 69.8672L202.234 70.4034L192.563 89.7245Z" fill="#A39C82" stroke="#30302E" stroke-width="0.52"/>
<path d="M96.2795 172.472L95.2021 171.936L113.949 134.484L187.093 97.9581L187.154 97.8394L187.241 97.8825L187.273 97.8682L187.295 97.9113L188.228 98.3792L187.99 98.8542L114.847 135.381L96.2795 172.472Z" fill="#A39C82" stroke="#30302E" stroke-width="0.52"/>
<path d="M204.169 53.6221L203.091 53.0859L219.356 20.6008L248.909 5.84277L249.446 6.91877L220.253 21.4969L204.169 53.6221Z" fill="#A39C82" stroke="#30302E" stroke-width="0.52"/>
<path d="M196.447 69.0468L195.37 68.5106L201.16 56.9409L202.237 57.4771L196.447 69.0468Z" fill="#A39C82" stroke="#30302E" stroke-width="0.52"/>
<path d="M188.708 84.5059L187.63 83.9697L193.439 72.3677L194.516 72.9039L188.708 84.5059Z" fill="#A39C82" stroke="#30302E" stroke-width="0.52"/>
<path d="M166.501 103.126L165.964 102.05L182.784 93.6544L183.555 92.1069L184.636 92.6431L183.681 94.5504L166.501 103.126Z" fill="#A39C82" stroke="#30302E" stroke-width="0.52"/>
<path d="M90.4926 171.115L89.4116 170.578L109.64 130.176L158.235 105.911L158.772 106.987L110.537 131.072L90.4926 171.115Z" fill="#A39C82" stroke="#30302E" stroke-width="0.52"/>
<path d="M196.224 56.5734L195.146 56.0372L215.043 16.2937L233.455 7.09912L233.992 8.17512L215.94 17.1897L196.224 56.5734Z" fill="#A39C82" stroke="#30302E" stroke-width="0.52"/>
<path d="M190.433 68.1392L189.356 67.603L193.219 59.8911L194.296 60.4273L190.433 68.1392Z" fill="#A39C82" stroke="#30302E" stroke-width="0.52"/>
<path d="M184.625 79.7379L183.548 79.2017L185.49 75.3296L186.567 75.8658L184.625 79.7379Z" fill="#A39C82" stroke="#30302E" stroke-width="0.52"/>
<path d="M174.341 92.7505L173.804 91.6745L178.47 89.3462L181.594 83.1025L182.672 83.6387L179.367 90.2423L174.341 92.7505Z" fill="#A39C82" stroke="#30302E" stroke-width="0.52"/>
<path d="M84.4753 170.208L83.3979 169.672L105.327 125.873L162.109 97.5156L162.646 98.5916L106.224 126.769L84.4753 170.208Z" fill="#A39C82" stroke="#30302E" stroke-width="0.52"/>
<path d="M194.072 47.9542L192.995 47.418L210.729 11.9857L221.863 6.42578L222.4 7.50178L211.627 12.8818L194.072 47.9542Z" fill="#A39C82" stroke="#30302E" stroke-width="0.52"/>
<path d="M184.42 67.2361L183.342 66.6999L191.064 51.2725L192.141 51.8087L184.42 67.2361Z" fill="#A39C82" stroke="#30302E" stroke-width="0.52"/>
<path d="M174.875 86.0243L174.54 85.4521L174.068 85.2182L181.404 70.5645L182.481 71.1006L175.055 85.9343L174.875 86.0243Z" fill="#A39C82" stroke="#30302E" stroke-width="0.52"/>
<path d="M139.481 103.701L138.944 102.625L158.257 92.9805L158.794 94.0565L139.481 103.701Z" fill="#A39C82" stroke="#30302E" stroke-width="0.52"/>
<path d="M82.3244 161.589L81.2471 161.053L101.018 121.565L131.223 106.479L131.76 107.555L101.915 122.461L82.3244 161.589Z" fill="#A39C82" stroke="#30302E" stroke-width="0.52"/>
<path d="M189.99 43.1899L188.913 42.6537L206.417 7.67836L206.745 7.52002L207.101 8.24695L207.404 8.39809L189.99 43.1899Z" fill="#A39C82" stroke="#30302E" stroke-width="0.52"/>
<path d="M182.268 58.6142L181.191 58.078L186.981 46.5083L188.059 47.0445L182.268 58.6142Z" fill="#A39C82" stroke="#30302E" stroke-width="0.52"/>
<path d="M178.402 66.3331L177.325 65.8005L179.256 61.9355L180.337 62.4717L178.402 66.3331Z" fill="#A39C82" stroke="#30302E" stroke-width="0.52"/>
<path d="M174.515 74.0989L173.438 73.5627L175.387 69.6689L176.464 70.2052L174.515 74.0989Z" fill="#A39C82" stroke="#30302E" stroke-width="0.52"/>
<path d="M162.707 85.6433L162.17 84.5673L169.849 80.7311L171.438 77.5571L172.515 78.0933L170.746 81.6272L162.707 85.6433Z" fill="#A39C82" stroke="#30302E" stroke-width="0.52"/>
<path d="M78.2419 156.825L77.1646 156.292L96.7044 117.258L154.405 88.4468L154.942 89.5228L97.6016 118.154L78.2419 156.825Z" fill="#A39C82" stroke="#30302E" stroke-width="0.52"/>
<path d="M183.977 42.2793L182.899 41.7431L196.422 14.728L197.499 15.2642L183.977 42.2793Z" fill="#A39C82" stroke="#30302E" stroke-width="0.52"/>
<path d="M180.114 49.995L179.037 49.4588L180.968 45.6011L182.045 46.1373L180.114 49.995Z" fill="#A39C82" stroke="#30302E" stroke-width="0.52"/>
<path d="M176.252 57.7069L175.174 57.1707L177.106 53.313L178.183 53.8492L176.252 57.7069Z" fill="#A39C82" stroke="#30302E" stroke-width="0.52"/>
<path d="M172.382 65.4406L171.304 64.9044L173.243 61.0322L174.32 61.5684L172.382 65.4406Z" fill="#A39C82" stroke="#30302E" stroke-width="0.52"/>
<path d="M158.859 81.1055L158.322 80.0295L165.536 76.4273L167.373 72.7603L168.451 73.2965L166.433 77.3234L158.859 81.1055Z" fill="#A39C82" stroke="#30302E" stroke-width="0.52"/>
<path d="M74.1599 152.063L73.0825 151.527L92.3918 112.953L154.424 81.9761L154.96 83.0521L93.289 113.849L74.1599 152.063Z" fill="#A39C82" stroke="#30302E" stroke-width="0.52"/>
<path d="M181.822 33.6603L180.745 33.1241L190.405 13.8281L191.482 14.3643L181.822 33.6603Z" fill="#A39C82" stroke="#30302E" stroke-width="0.52"/>
<path d="M174.1 49.0845L173.022 48.5483L176.881 40.8364L177.962 41.3726L174.1 49.0845Z" fill="#A39C82" stroke="#30302E" stroke-width="0.52"/>
<path d="M164.379 68.5102L163.301 67.974L169.156 56.2676L170.237 56.8038L164.379 68.5102Z" fill="#A39C82" stroke="#30302E" stroke-width="0.52"/>
<path d="M159.05 74.5524L158.513 73.4765L161.402 72.0298L161.644 72.5156L162.246 72.7675L162.155 72.9474L161.939 73.1058L159.05 74.5524Z" fill="#A39C82" stroke="#30302E" stroke-width="0.52"/>
<path d="M120.198 93.9528L119.661 92.8768L154.474 75.4917L155.011 76.5677L120.198 93.9528Z" fill="#A39C82" stroke="#30302E" stroke-width="0.52"/>
<path d="M68.1464 151.157L67.0654 150.621L88.079 108.646L108.076 98.6597L108.613 99.7357L88.9762 109.542L68.1464 151.157Z" fill="#A39C82" stroke="#30302E" stroke-width="0.52"/>
<path d="M173.88 36.6081L172.803 36.072L180.524 20.6445L181.602 21.1771L173.88 36.6081Z" fill="#A39C82" stroke="#30302E" stroke-width="0.52"/>
<path d="M170.018 44.3205L168.94 43.7843L170.872 39.9302L171.949 40.4664L170.018 44.3205Z" fill="#A39C82" stroke="#30302E" stroke-width="0.52"/>
<path d="M160.303 63.724L159.226 63.1879L163.139 55.3716L164.216 55.9078L160.303 63.724Z" fill="#A39C82" stroke="#30302E" stroke-width="0.52"/>
<path d="M120.204 87.4894L119.667 86.4134L131.248 80.6304L131.785 81.7064L120.204 87.4894Z" fill="#A39C82" stroke="#30302E" stroke-width="0.52"/>
<path d="M108.62 93.2726L108.083 92.1966L115.805 88.3389L116.342 89.4185L108.62 93.2726Z" fill="#A39C82" stroke="#30302E" stroke-width="0.52"/>
<path d="M64.0602 146.392L62.9829 145.855L83.7695 104.341L100.355 96.0537L100.892 97.1333L84.6666 105.237L64.0602 146.392Z" fill="#A39C82" stroke="#30302E" stroke-width="0.52"/>
<path d="M167.867 35.6972L166.79 35.161L168.721 31.3032L169.798 31.8394L167.867 35.6972Z" fill="#A39C82" stroke="#30302E" stroke-width="0.52"/>
<path d="M162.072 47.2739L160.995 46.7377L164.858 39.0186L165.939 39.5548L162.072 47.2739Z" fill="#A39C82" stroke="#30302E" stroke-width="0.52"/>
<path d="M147.322 67.4883L146.785 66.4123L152.601 63.5082L157.119 54.4863L158.196 55.0225L153.498 64.4042L147.322 67.4883Z" fill="#A39C82" stroke="#30302E" stroke-width="0.52"/>
<path d="M100.902 90.6671L100.369 89.5911L127.392 76.0962L127.929 77.1722L100.902 90.6671Z" fill="#A39C82" stroke="#30302E" stroke-width="0.52"/>
<path d="M58.05 145.485L56.9727 144.949L78.4078 102.128L79.4851 102.665L58.05 145.485Z" fill="#A39C82" stroke="#30302E" stroke-width="0.52"/>
<path d="M161.853 34.7874L160.775 34.2512L164.642 26.5356L165.719 27.0718L161.853 34.7874Z" fill="#A39C82" stroke="#30302E" stroke-width="0.52"/>
<path d="M156.056 46.3748L154.979 45.8386L158.845 38.1123L159.922 38.6485L156.056 46.3748Z" fill="#A39C82" stroke="#30302E" stroke-width="0.52"/>
<path d="M152.157 54.1618L151.08 53.6256L153.036 49.7139L154.113 50.2501L152.157 54.1618Z" fill="#A39C82" stroke="#30302E" stroke-width="0.52"/>
<path d="M127.94 70.7092L127.403 69.6332L148.291 59.2007L148.896 57.9844L149.973 58.5206L149.188 60.0968L127.94 70.7092Z" fill="#A39C82" stroke="#30302E" stroke-width="0.52"/>
<path d="M100.913 84.2036L100.376 83.1276L119.678 73.4868L120.215 74.5628L100.913 84.2036Z" fill="#A39C82" stroke="#30302E" stroke-width="0.52"/>
<path d="M52.0329 144.579L50.9556 144.042L70.2792 105.447L71.3566 105.983L52.0329 144.579Z" fill="#A39C82" stroke="#30302E" stroke-width="0.52"/>
<path d="M151.973 41.6062L150.896 41.07L152.831 37.2051L153.908 37.7413L151.973 41.6062Z" fill="#A39C82" stroke="#30302E" stroke-width="0.52"/>
<path d="M139.639 58.4049L139.103 57.3289L143.978 54.8926L144.925 52.9961L146.006 53.5323L144.875 55.7887L139.639 58.4049Z" fill="#A39C82" stroke="#30302E" stroke-width="0.52"/>
<path d="M120.222 68.103L119.686 67.0234L135.172 59.2935L135.709 60.3695L120.222 68.103Z" fill="#A39C82" stroke="#30302E" stroke-width="0.52"/>
<path d="M104.78 75.8115L104.243 74.7355L111.964 70.8813L112.501 71.9574L104.78 75.8115Z" fill="#A39C82" stroke="#30302E" stroke-width="0.52"/>
<path d="M44.0881 147.533L43.0107 146.997L64.2549 104.558L65.3322 105.094L44.0881 147.533Z" fill="#A39C82" stroke="#30302E" stroke-width="0.52"/>
<path d="M112.508 65.4943L111.971 64.4182L139.665 50.585L144.875 40.1777L145.952 40.7139L140.562 51.4811L112.508 65.4943Z" fill="#A39C82" stroke="#30302E" stroke-width="0.52"/>
<path d="M32.1286 158.498L31.0513 157.962L58.237 103.658L59.3144 104.194L32.1286 158.498Z" fill="#A39C82" stroke="#30302E" stroke-width="0.52"/>
<path d="M128.009 51.2943L127.472 50.2183L135.352 46.2814L136.836 43.3125L137.914 43.8487L136.249 47.1774L128.009 51.2943Z" fill="#A39C82" stroke="#30302E" stroke-width="0.52"/>
<path d="M108.652 60.9603L108.115 59.8843L123.58 52.1616L124.117 53.2376L108.652 60.9603Z" fill="#A39C82" stroke="#30302E" stroke-width="0.52"/>
<path d="M6.323 166.851L5.78613 165.775L25.6359 155.86L52.2235 102.759L53.3008 103.295L26.5367 156.757L6.323 166.851Z" fill="#A39C82" stroke="#30302E" stroke-width="0.52"/>
<path d="M18.1702 154.471L17.6333 153.395L21.3265 151.553L46.2063 101.852L47.2836 102.388L22.2237 152.449L18.1702 154.471Z" fill="#A39C82" stroke="#30302E" stroke-width="0.52"/>
<path d="M10.3118 151.938L9.7749 150.862L17.0136 147.245L40.1927 100.945L41.27 101.481L17.9108 148.141L10.3118 151.938Z" fill="#A39C82" stroke="#30302E" stroke-width="0.52"/>
<path d="M1.7688 149.746L1.23193 148.67L12.7008 142.941L34.1791 100.038L35.2565 100.574L13.5979 143.837L1.7688 149.746Z" fill="#A39C82" stroke="#30302E" stroke-width="0.52"/>
<path d="M13.7785 130.558L12.7012 130.022L30.0972 95.2729L31.1745 95.8091L13.7785 130.558Z" fill="#A39C82" stroke="#30302E" stroke-width="0.52"/>
<path d="M6.65064 140.847L6.11377 139.77L8.39096 138.633L10.733 133.955L11.8103 134.491L9.28814 139.529L6.65064 140.847Z" fill="#A39C82" stroke="#30302E" stroke-width="0.52"/>
<path d="M5.06611 135.046L3.98877 134.51L22.1558 98.2207L23.2332 98.7569L5.06611 135.046Z" fill="#A39C82" stroke="#30302E" stroke-width="0.52"/>
<path d="M7.6418 116.98L6.56445 116.444L12.3619 104.864L13.4393 105.4L7.6418 116.98Z" fill="#A39C82" stroke="#30302E" stroke-width="0.52"/>
<path d="M1.42646 129.395L0.349121 128.859L2.66234 124.238L3.73968 124.774L1.42646 129.395Z" fill="#A39C82" stroke="#30302E" stroke-width="0.52"/>
</g>
</svg>
