<svg width="141" height="34" viewBox="0 0 141 34" fill="none" xmlns="http://www.w3.org/2000/svg">
<g clip-path="url(#clip0_254_34760)">
<mask id="mask0_254_34760" style="mask-type:luminance" maskUnits="userSpaceOnUse" x="-42" y="-87" width="214" height="209">
<path d="M-41.6421 121.112H171.419V-86.6357H-41.6421V121.112Z" fill="white"/>
</mask>
<g mask="url(#mask0_254_34760)">
<path d="M72.6322 19.1561L67.2828 5.77135L61.9642 19.0672C63.348 19.0239 64.7478 18.9988 66.1785 18.9988C68.387 18.9988 70.536 19.0524 72.6322 19.1561ZM117.029 32.7267C105.565 27.7658 92.6726 24.0919 77.5235 22.8517L82.1364 34H78.5659L74.0125 22.6112C71.4684 22.471 68.859 22.3923 66.1842 22.3923C64.2873 22.3923 62.4247 22.4311 60.592 22.5052L55.9951 34H52.4223L57.0993 22.6898C41.0304 23.7386 27.3452 27.5276 15.3244 32.7233V32.0211C23.3474 27.5652 31.2811 24.239 39.8459 22.0663V15.2235L30.1998 0.487877H33.784L41.4382 12.7316L49.0958 0.487877H52.6755L43.0316 15.2235L43.0293 21.3163C47.9308 20.2573 53.0546 19.5574 58.5335 19.2257L66.4832 0H68.0766L76.0893 19.3784C81.4674 19.8059 86.5087 20.5936 91.3415 21.746V3.05153H83.4606V0.487877H102.483V3.05153H94.605V22.5884C102.376 24.7485 109.667 27.8901 117.029 32.028V32.7267ZM129.774 0.487877H110.754V3.05153H118.634V26.1574H121.895V3.05153H129.774V0.487877ZM20.5868 26.1574L17.3256 26.1609V13.4942H3.26122V26.1574H0V0.487877H3.26122V10.9328H17.3256V0.487877H20.5868V26.1574Z" fill="#E6E3DA"/>
<path d="M138.378 2.48633C138.222 2.39514 137.97 2.35068 137.624 2.35068H137.093V3.63536H137.655C137.922 3.63536 138.117 3.60686 138.251 3.55556C138.492 3.45411 138.618 3.27173 138.618 3.00271C138.618 2.74623 138.536 2.57524 138.378 2.48633ZM137.707 1.9312C138.143 1.9312 138.466 1.97337 138.673 2.05545C139.039 2.20819 139.221 2.50913 139.221 2.95141C139.221 3.26489 139.106 3.49857 138.877 3.64904C138.754 3.72769 138.586 3.78126 138.363 3.8166C138.646 3.85992 138.845 3.97505 138.976 4.16199C139.1 4.34894 139.165 4.53246 139.165 4.71143V4.96791C139.165 5.05112 139.168 5.13889 139.174 5.22895C139.18 5.32242 139.189 5.38283 139.205 5.41589L139.227 5.45921H138.646C138.642 5.44667 138.639 5.43641 138.636 5.42501C138.632 5.41247 138.632 5.39651 138.629 5.38283L138.614 5.26884V4.98843C138.614 4.58262 138.498 4.3136 138.278 4.18251C138.143 4.10842 137.916 4.06852 137.583 4.06852H137.093V5.45921H136.465V1.9312H137.707ZM135.807 1.74881C135.266 2.29027 134.998 2.94457 134.998 3.70831C134.998 4.47775 135.264 5.13433 135.803 5.67693C136.342 6.22181 136.996 6.49082 137.767 6.49082C138.537 6.49082 139.192 6.22181 139.735 5.67693C140.273 5.13433 140.543 4.47775 140.543 3.70831C140.543 2.94457 140.273 2.29027 139.735 1.74881C139.189 1.20963 138.534 0.938336 137.767 0.938336C137.001 0.938336 136.35 1.20963 135.807 1.74881ZM140.051 5.98242C139.424 6.61507 138.663 6.92969 137.767 6.92969C136.873 6.92969 136.112 6.61507 135.482 5.98242C134.859 5.35206 134.547 4.59516 134.547 3.70489C134.547 2.82146 134.862 2.06456 135.494 1.43762C136.121 0.811807 136.88 0.498332 137.767 0.498332C138.663 0.498332 139.424 0.811807 140.051 1.43762C140.685 2.05887 141 2.81804 141 3.70489C141 4.59174 140.685 5.35092 140.051 5.98242Z" fill="#E6E3DA"/>
</g>
</g>
<defs>
<clipPath id="clip0_254_34760">
<rect width="141" height="34" fill="white"/>
</clipPath>
</defs>
</svg>
