<svg width="125" height="46" viewBox="0 0 125 46" fill="none" xmlns="http://www.w3.org/2000/svg">
<path d="M75.3632 14.2839C74.2089 11.8209 73.3948 13.9034 73.3948 13.9034C72.6237 16.0415 67.7608 21.4763 66.7959 22.4385C62.7384 25.932 64.1426 23.7511 63.8153 22.1899C63.8153 22.1899 63.9875 19.3463 64.793 18.7006C64.793 18.7006 65.2195 18.8885 65.5511 17.1612C65.5511 17.1612 66.5288 14.9206 63.9143 14.4973C63.9143 14.4973 62.1225 13.2829 61.3127 16.7166C61.3127 16.7166 59.7836 23.2076 61.8727 26.1708C61.8727 26.1708 62.9494 28.1207 68.4327 22.8099L68.4241 22.7979C70.3366 20.9293 73.2311 17.5511 73.2311 17.5511C76.2979 23.1356 71.6244 24.6365 71.6244 24.6365C69.8713 25.7698 71.6501 26.0347 71.6501 26.0347C78.8477 26.185 79.4249 21.8657 79.4249 21.8657C79.5971 18.7613 75.3632 14.2839 75.3632 14.2839Z" fill="#E6E3DA"/>
<path d="M57.3687 1.1794C57.3687 1.1794 55.0299 -1.7497 55.4261 1.62421C55.4261 1.62421 55.745 8.66694 54.5776 17.4329C54.4397 17.0911 54.2632 16.7444 54.0134 16.3978C54.0134 16.3978 51.9759 13.6994 49.6844 14.452C49.6844 14.452 46.7728 15.3624 45.08 19.733C45.08 19.733 43.8868 22.7562 44.2271 25.0268C44.2271 25.0268 44.1148 31.0046 51.4419 26.7799C51.4419 26.7799 52.2172 26.3132 53.1261 25.3987C52.9538 26.1429 52.6651 26.6346 52.635 27.3999C52.635 27.3999 52.3722 28.9779 53.1002 29.3756C53.3759 29.5295 53.6773 29.315 54.3235 27.7848C54.3235 27.7848 59.531 14.5162 59.811 9.03863C59.811 9.03863 61.6416 6.31924 57.3687 1.1794ZM48.2845 25.0567C48.2845 25.0567 47.7461 24.7015 47.7806 23.0982C47.7806 23.0982 47.9314 20.3146 49.8352 18.0825C49.8352 18.0825 50.3649 17.4158 50.8042 17.3345C50.9464 17.3103 51.179 17.5188 51.2867 18.3697C51.3123 18.5746 50.7095 18.6219 50.9292 19.2849C50.9292 19.2849 51.9457 21.8334 54.0821 20.6831C53.9918 21.2092 53.8969 21.7353 53.7935 22.261C52.6822 23.7961 50.3434 26.4464 48.2845 25.0567Z" fill="#E6E3DA"/>
<path d="M69.0851 7.6567C69.2011 6.59246 68.5381 5.6469 67.612 5.5486C66.7118 5.45163 65.8934 6.1897 65.7426 7.20763C65.6437 7.64399 65.6437 7.98584 65.6218 8.46051C65.5912 8.8799 65.0531 10.3719 65.5265 10.4917C65.9959 10.6129 67.4519 9.71343 68.1583 9.18737C68.6494 8.88798 69.0119 8.32809 69.0851 7.6567Z" fill="#E6E3DA"/>
<path d="M98.964 13.4487C98.964 13.4487 93.9674 20.8207 93.9847 23.2751C93.9847 23.2751 93.7823 25.5415 96.371 25.4516C96.371 25.4516 98.9856 25.2978 100.864 23.7626C100.864 23.7626 102.065 22.5736 102.767 22.4328C102.767 22.4328 104.469 22.6084 103.922 20.363C103.922 20.363 103.357 17.8232 102.72 16.8611C102.72 16.8611 102.143 15.7325 101.432 16.164C101.432 16.164 100.76 16.4672 100.984 17.6651C100.984 17.6651 100.928 17.7136 101.273 18.6833C101.273 18.6833 102.078 21.1419 101.604 21.2103C101.604 21.2103 101.38 21.2345 101.113 21.4842C100.963 21.6248 100.661 21.9546 100.338 22.1813C100.338 22.1813 98.0551 23.7035 98.5677 21.5521C98.5677 21.5521 98.8691 20.2607 99.1966 19.4612C99.1966 19.4612 100.467 15.9207 101.871 14.0263C101.871 14.0263 103.237 12.3972 101.57 12.5254C101.466 12.5297 101.217 12.6103 101.096 12.5496C101.096 12.5496 100.217 11.8027 98.964 13.4487Z" fill="#E6E3DA"/>
<path d="M88.5299 16.6809C87.6468 16.1294 86.6476 14.0853 87.4272 13.1146C87.7675 12.6952 88.4609 12.3196 88.3575 11.7208C88.1336 10.3952 85.8034 11.7249 85.3726 13.3029C84.5068 15.6932 81.9009 17.2198 81.9009 17.2198C81.4788 17.5956 81.3753 18.5709 81.3753 18.5709C81.2935 20.3326 82.4264 19.0923 82.4264 19.0923C84.0545 17.8393 85.2089 16.9542 85.2089 16.9542C88.2758 22.5344 83.5937 24.0354 83.5937 24.0354C82.9777 24.2705 82.8269 24.5529 82.8269 24.9117C82.844 25.3905 83.6281 25.4329 83.6281 25.4329C90.8214 25.582 91.3985 21.2637 91.3985 21.2637C91.7301 19.3479 89.7273 17.5104 88.5299 16.6809Z" fill="#E6E3DA"/>
<path d="M42.1463 25.3018C42.1463 25.3018 42.1329 25.217 42.0597 25.1528C41.8658 25.0206 40.9139 25.4471 39.9706 26.0084C39.8198 26.0932 39.6863 26.1757 39.557 26.2436C39.2125 26.4618 38.8765 26.6715 38.743 26.7866C38.743 26.7866 38.1356 27.2702 38.2002 26.1878C38.2045 26.1756 38.2045 26.1635 38.2045 26.1393C38.2132 25.8993 38.2607 25.5964 38.2778 25.2667C38.2778 25.2667 39.1091 21.9656 39.4666 21.042C39.4666 21.042 39.6648 20.1693 39.9749 19.1777C39.9749 19.1777 41.3964 17.7151 38.7905 17.2404C38.7905 17.2404 37.5456 14.2002 36.2017 18.9894C36.1114 18.4973 35.6548 17.7364 34.9569 17.4328C34.8148 17.3601 34.6166 17.2959 34.3409 17.2741C34.2371 17.262 34.1687 17.2861 33.9404 17.2619C33.9404 17.2619 32.6912 16.839 31.3516 18.4978C29.9302 20.05 25.7779 24.993 26.7256 29.128C26.7256 29.128 27.2424 31.2704 29.1549 31.2575C29.1549 31.2575 31.6919 31.2817 33.6044 29.4871C33.6044 29.4871 34.1816 28.978 34.7933 28.2343C34.8189 28.4912 34.8579 28.769 34.9353 29.0429C34.9439 29.1035 34.9574 29.1519 34.9744 29.2053C34.9744 29.2053 35.0428 29.6841 35.4397 30.0477C35.7326 30.3132 36.1977 30.5143 36.9472 30.4149C37.0204 30.4028 37.1022 30.3786 37.1798 30.3544C37.1798 30.3544 39.8633 29.7084 39.7987 28.5755C39.7645 28.0155 39.9709 27.9039 39.9709 27.9039C39.9709 27.9039 40.139 27.807 40.0784 27.613C40.0784 27.613 42.2195 26.1998 42.1463 25.3018ZM34.4099 26.8689C34.1903 27.2192 33.9834 27.6168 33.4062 27.9853C33.4062 27.9853 30.4729 29.7685 30.5763 27.2496C30.5763 27.2496 30.6752 25.8512 31.1578 24.5555C31.1578 24.5555 32.5102 21.1433 34.6036 19.1592C34.7931 18.9664 34.9611 18.9459 35.0688 19.0865C35.3617 19.4804 35.4134 19.9337 35.633 20.3051C35.6929 20.4021 35.7579 20.5014 35.8269 20.6044C35.5771 21.8786 34.9352 24.3075 34.8233 26.1376C34.7463 26.3898 34.565 26.6338 34.4099 26.8689Z" fill="#E6E3DA"/>
<path d="M13.948 13.0502C13.7542 12.6951 13.3191 12.8926 12.2811 14.5596C12.2811 14.5596 3.39938 29.4532 1.60754 36.5129C1.60754 36.5129 -0.360919 41.3919 2.27517 43.1451C2.27517 43.1451 2.86101 44.0687 3.58462 44.236C3.78279 45.2917 4.16171 46.2671 4.89398 45.9335C5.14807 45.8123 5.18693 44.9505 5.15677 44.1076L5.17018 44.1121C5.15309 43.4066 5.22148 42.7907 5.30805 42.3032C5.36788 42.102 5.424 41.8972 5.48029 41.6572C5.48029 41.6572 5.51937 41.5031 5.59263 41.2207C5.62316 41.1237 5.64396 41.0801 5.64396 41.0801L5.62682 41.0844C6.43657 37.9029 10.5071 22.2997 13.7591 15.6932C13.7591 15.6932 14.5123 14.0721 13.948 13.0502Z" fill="#E6E3DA"/>
<path d="M121.486 23.7552C120.284 23.0195 116.972 16.4046 116.972 16.4046C116.205 15.2592 114.883 16.6482 114.883 16.6482C113.995 17.3282 112.764 19.462 112.13 20.7405C111.286 22.173 111.501 20.3042 111.501 20.3042C111.544 19.7951 111.695 18.987 112.268 18.6107C112.268 18.6107 112.712 18.978 113.203 17.2937C113.203 17.2937 114.137 15.0831 111.829 14.4844C111.829 14.4844 110.162 13.1032 109.033 16.4514C109.033 16.4514 107.465 21.2962 108.09 24.3151C108.09 24.3151 108.379 27.8556 111.398 25.0847C111.695 24.8071 112.018 24.3792 112.354 23.9004C112.974 22.9513 113.147 22.6049 113.577 21.6172C114.318 19.8981 115.619 18.346 115.852 18.0851C115.684 20.0992 118.023 25.4143 118.023 25.4143C118.841 28.1253 120.163 28.0269 120.163 28.0269C126.986 28.2584 121.486 23.7552 121.486 23.7552Z" fill="#E6E3DA"/>
<path d="M17.4756 39.6998C17.6781 39.4562 17.872 39.0757 18.91 38.8235C18.91 38.8235 54.2302 26.9146 101.219 29.2964C101.219 29.2964 103.885 29.1994 103.161 30.3569C102.735 31.0369 101.942 31.0795 100.435 31.157C100.435 31.157 99.9267 31.2418 97.9281 31.2175C97.9281 31.2175 102.731 33.0733 83.7655 32.6884C83.7655 32.6884 85.4368 34.3818 78.4632 33.8945C78.4632 33.8945 59.0113 33.0133 19.6983 40.0905C19.6983 40.0905 16.6055 40.7471 17.4756 39.6998Z" fill="#E6E3DA"/>
<path d="M106.353 29.5713C107.791 29.6561 109.407 29.6804 111.646 29.8926C112.809 30.0138 114.601 30.0138 114.855 30.7568C115.088 31.4453 114.214 32.1507 112.646 32.4501C111.853 32.604 111.354 32.7324 110.643 32.707C109.798 32.6828 107.985 32.7435 107.933 31.775C107.899 31.1726 106.71 31.1761 105.926 31.1458C104.341 31.0852 104.505 30.6368 104.849 30.1023C105.056 29.7774 105.487 29.5628 106.353 29.5713Z" fill="#E6E3DA"/>
<path d="M122.606 16.5822C123.321 16.5822 123.919 17.147 123.919 17.8778C123.919 18.605 123.321 19.1736 122.606 19.1736C121.886 19.1736 121.292 18.6049 121.292 17.8778C121.292 17.1469 121.886 16.5822 122.606 16.5822ZM122.606 19.4301C123.476 19.4301 124.169 18.7415 124.169 17.8778C124.169 17.0184 123.476 16.3301 122.606 16.3301C121.735 16.3301 121.042 17.0184 121.042 17.8778C121.042 18.742 121.736 19.4301 122.606 19.4301ZM122.877 17.9549C123.109 17.9464 123.342 17.8228 123.342 17.4797C123.342 17.1125 123.058 17.0179 122.735 17.0179H121.998V18.7581H122.257V17.9545H122.58L123.032 18.7581H123.321L122.877 17.9549ZM122.696 17.2748C122.903 17.2748 123.088 17.2869 123.088 17.5099C123.088 17.745 122.765 17.7063 122.524 17.7063H122.257V17.2748H122.696Z" fill="#E6E3DA"/>
<path d="M27.4397 38.0208C27.4397 38.0208 19.7942 26.6123 19.0146 24.1877C19.0146 24.1877 18.6742 23.2689 18.2048 22.7381C18.6959 22.7381 19.2471 22.726 19.8803 22.6896C19.8803 22.6896 23.9379 22.6169 25.6522 19.4997C26.1217 18.6488 27.0262 15.7196 23.5287 12.0422C23.5287 12.0422 19.1093 6.82975 9.0646 6.16697C9.0646 6.16697 6.35535 4.89692 1.18655 9.14731C1.18655 9.14731 -0.760421 10.6825 0.333635 11.0416C0.833259 11.204 1.18226 11.2041 1.6388 11.078C1.6388 11.078 10.0295 8.25587 20.4532 14.2039C20.4532 14.2039 24.5667 16.7824 22.0081 19.3566C22.0081 19.3566 20.9916 20.4764 18.4029 20.883C18.4029 20.883 17.7869 21.0042 16.5723 21.1266C16.5723 21.1266 15.965 21.1751 15.138 21.2115C15.138 21.2115 14.0912 21.203 13.9793 21.5109C13.9316 21.6988 14.1085 21.7715 14.6771 22.0454C14.6771 22.0412 14.6814 22.0454 14.6771 22.0454C13.5916 22.1666 13.1824 22.3194 12.9239 22.6055C12.9239 22.6055 12.7129 22.8539 12.8251 23.1315C13.5488 25.0429 16.8654 32.9108 24.3602 39.0854C24.3602 39.0854 28.6717 42.4293 29.6322 41.6041C29.9294 41.3471 28.8482 39.9707 27.4397 38.0208Z" fill="#E6E3DA"/>
</svg>
