<svg width="123" height="42" viewBox="0 0 123 42" fill="none" xmlns="http://www.w3.org/2000/svg">
<g clip-path="url(#clip0_254_34786)">
<path d="M68.4423 19.9379C69.8396 20.8284 71.5548 21.2743 73.5881 21.2743C75.3873 21.2743 76.8506 20.9522 77.9759 20.3057C79.1012 19.6592 79.9105 18.9146 80.4055 18.0697C80.6519 17.6492 80.8402 17.254 80.9718 16.8825V20.9648H83.6534V11.6022C83.6534 11.0305 83.5016 10.5991 83.1967 10.3114C82.8935 10.0237 82.4239 9.87801 81.7882 9.87801H72.883V11.9246H80.9077C80.9552 13.2793 80.7818 14.4536 80.3852 15.4441C79.9159 16.6167 79.1487 17.5016 78.0819 18.0988C77.015 18.6961 75.6925 18.9966 74.1142 18.9966C71.6664 18.9966 69.8633 18.2465 68.7051 16.7478C67.547 15.2494 66.968 13.2919 66.968 10.8775C66.968 9.15867 67.2457 7.64934 67.7991 6.35098C68.3527 5.05287 69.1764 4.04948 70.2671 3.33766C71.3575 2.62561 72.6728 2.27067 74.2092 2.27067C75.9775 2.27067 77.4077 2.74384 78.502 3.6909C79.5961 4.63772 80.261 5.97225 80.4985 7.69838H83.2223C83.0031 6.11233 82.4916 4.73945 81.6842 3.58165C80.8785 2.42338 79.8336 1.53846 78.5495 0.923029C77.2652 0.307595 75.7911 0 74.1269 0C72.0646 0 70.2963 0.447919 68.8203 1.34206C67.3443 2.23595 66.2154 3.50129 65.4353 5.13468C64.6554 6.76807 64.2645 8.66535 64.2645 10.8265C64.2645 12.8586 64.6115 14.6612 65.3057 16.2363C65.9998 17.8112 67.0447 19.044 68.444 19.9359L68.4423 19.9379ZM91.7677 0.320462L84.691 20.9667H87.4549L89.4039 15.2584H98.883L100.825 20.9667H103.603L96.5557 0.320462H91.7677ZM90.1858 12.9661L94.1535 1.34934L98.1029 12.9661H90.1858ZM120.141 0.320462V20.0034L109.584 0.320462H104.641V20.9667H107.302V1.28379L117.859 20.9667H122.802V0.320462H120.141ZM34.6422 0.125757C28.7455 0.125757 23.9667 4.89069 23.9667 10.7666C23.9667 16.6422 28.7474 21.4074 34.6422 21.4074C40.5371 21.4074 45.3176 16.6422 45.3176 10.7666C45.3176 4.89069 40.5371 0.125757 34.6422 0.125757ZM34.6422 19.0966C30.2434 19.0966 26.6649 15.3603 26.6649 10.7666C26.6649 6.17254 30.2434 2.43624 34.6422 2.43624C39.0409 2.43624 42.6196 6.17254 42.6196 10.7666C42.6196 15.3603 39.0409 19.0966 34.6422 19.0966ZM19.7489 1.42217V20.9648H22.4123V0.318763H17.5276L11.2437 19.9689L4.97797 0.318763H0V20.9648H2.66167V1.42023L9.08446 20.9648H13.3517L19.7506 1.42217H19.7489ZM49.5393 2.60206H54.5482C55.8432 2.60206 56.8589 2.68387 57.5952 2.84605C58.3295 3.00798 58.9104 3.37214 59.3342 3.93853C59.758 4.50468 59.9699 5.37503 59.9699 6.54957C59.9699 7.72387 59.7597 8.54518 59.3396 9.11691C58.9194 9.68865 58.3368 10.0654 57.5932 10.2439C56.8499 10.4223 56.2288 10.508 55.3593 10.5117C54.4001 10.517 51.5231 10.5117 51.5231 10.5117V12.8022H56.4882L61.0384 20.9648H63.8095L58.9012 12.1759C62.003 10.9576 62.7865 8.17738 62.7134 6.04339C62.6625 4.57023 62.3079 3.35587 61.6559 2.52364C61.0036 1.69165 60.0941 1.11628 58.9267 0.797514C57.7596 0.478994 56.2999 0.318763 54.5499 0.318763H46.872V20.9648H49.5393V2.60206ZM7.40387 38.6686C7.3308 37.5378 6.86486 36.8277 5.70135 36.5946C6.86486 36.3052 7.65036 35.4786 7.65036 34.0564C7.65036 32.2303 6.26935 31.2871 4.2765 31.2871H0V41.6091H0.858564V37.0134H4.45187C5.94979 37.0134 6.51778 37.607 6.57624 39.0146L6.63469 40.3346C6.64931 40.8864 6.76622 41.3197 6.96911 41.6111H7.87151C7.6394 41.2777 7.52248 40.8573 7.49326 40.3637L7.40557 38.6667L7.40387 38.6686ZM4.36224 36.247H0.856859V32.0717H4.27455C5.75786 32.0717 6.74795 32.6945 6.74795 34.1021C6.74795 35.5094 5.75981 36.2487 4.36224 36.2487V36.247ZM9.33826 41.6111H16.32V40.8281H10.1968V36.6092H15.7391V35.8262H10.1968V32.0717H16.32V31.2888H9.33826V41.6111ZM28.3107 31.2888H27.4521V41.6111H33.6484V40.8279H28.3107V31.2888ZM68.0331 32.0717H71.6993V41.6111H72.587V32.0717H76.268V31.2888H68.0348V32.0717H68.0331ZM77.4993 41.6111H84.481V40.8279H78.3578V36.6092H83.9001V35.8262H78.3578V32.0717H84.481V31.2888H77.4993V41.6111ZM64.3375 31.2888L60.1489 41.6111H61.066L62.3318 38.4938H67.3353L68.6011 41.6111H69.5181L65.3003 31.2888H64.3375ZM67.0138 37.7255H62.635L63.3474 35.9573C63.6818 35.1016 64.3504 33.4502 64.8161 32.2174C65.2821 33.45 65.9506 35.1035 66.2994 35.9573L67.0119 37.7252H67.0138V37.7255ZM21.1336 31.289L16.9448 41.6111H17.8618L19.1278 38.4941H24.1311L25.3972 41.6111H26.3142L22.0962 31.289H21.1336ZM23.8096 37.7255H19.4311L20.1435 35.9576C20.4777 35.1018 21.1463 33.4504 21.6122 32.2176C22.0779 33.4502 22.7465 35.1037 23.0955 35.9576L23.8079 37.7255H23.8096ZM61.6323 31.289H53.3991V32.072H57.0654V41.6111H57.9532V32.072H61.6323V31.289ZM37.1906 41.6111H44.1723V40.8281H38.0491V36.6094H43.5914V35.8265H38.0491V32.072H44.1723V31.289H37.1906V41.6111ZM50.2006 36.0287L49.1829 35.8265C47.2047 35.406 46.6238 34.8122 46.6238 33.6944C46.6238 32.5765 47.4824 31.8389 49.2268 31.8389C51.3368 31.8389 52.1369 32.7238 52.1934 34.1004H53.0812C53.052 32.4762 52.0492 31.056 49.2268 31.056C47.0311 31.056 45.736 32.114 45.736 33.6944C45.736 35.4206 46.8995 36.1889 48.8049 36.5803L49.8223 36.7825C51.8154 37.1884 52.484 37.8112 52.484 38.9C52.484 40.2348 51.4956 41.0595 49.5739 41.0595C47.6521 41.0595 46.3588 40.3202 46.2731 38.4504H45.3853C45.473 40.7992 47.0294 41.8424 49.5739 41.8424C52.1186 41.8424 53.3698 40.639 53.3698 38.9C53.3698 37.4506 52.5843 36.522 50.1986 36.0287H50.2006Z" fill="#E6E3DA"/>
</g>
<defs>
<clipPath id="clip0_254_34786">
<rect width="123" height="42" fill="white"/>
</clipPath>
</defs>
</svg>
