<svg width="81" height="44" viewBox="0 0 81 44" fill="none" xmlns="http://www.w3.org/2000/svg">
<path fill-rule="evenodd" clip-rule="evenodd" d="M45.7193 27.5146H45.7566L47.4327 20.9775H53.5413V23.8086C52.9449 24.1809 53.001 24.7764 53.001 25.3725V32.5423C53.001 33.139 52.9449 33.7345 53.5413 34.1065V36.9372H47.7119V34.1065C48.3077 33.7342 48.2516 33.139 48.2516 32.5423V28.2589H48.2143L46.0543 36.9372H43.7943L41.8008 28.2589H41.7635V32.5423C41.7635 33.139 41.7074 33.7345 42.3035 34.1065V36.9372H37.3867V34.1065C37.9825 33.7342 37.9267 33.139 37.9267 32.5423V25.3725C37.9267 24.7764 37.9828 24.1806 37.3867 23.8086V20.9775H44.0799L45.7193 27.5146Z" fill="#E6E3DA"/>
<path fill-rule="evenodd" clip-rule="evenodd" d="M59.8212 24.9738C55.7055 24.9923 54.6255 26.2773 54.6998 29.4803V32.6648C54.6998 34.0805 54.7559 35.3846 55.9848 36.2966C56.9532 37.0231 58.7597 37.3211 60.5474 37.1911C62.3539 37.0601 64.16 36.5198 65.1291 35.6826V32.7397H60.7335V33.1682C60.7335 33.764 60.6781 34.4528 59.9146 34.4528C59.1508 34.4528 59.0762 33.6897 59.095 33.1118V32.0474L65.1291 32.0321V29.2572C65.2034 26.3892 64.1419 24.955 59.8212 24.9738ZM60.8081 29.3499H59.095V28.903C59.095 28.4376 59.1696 27.7111 59.9519 27.7111C60.7339 27.7111 60.8081 28.4373 60.8081 28.903V29.3499Z" fill="#E6E3DA"/>
<path fill-rule="evenodd" clip-rule="evenodd" d="M70.8423 26.146C71.308 25.3449 71.7919 24.9541 72.7424 24.9541C72.9098 24.9541 73.0957 24.9729 73.2636 25.0096V29.014H72.9098C71.3829 29.014 71.0475 29.8705 71.0475 31.2486V32.3847C71.0475 32.757 71.0475 33.2792 71.1221 33.6515C71.1964 34.0423 71.3086 34.1357 71.6806 34.3212V36.9476H66.1123V34.2846C66.7081 33.8937 66.652 33.3537 66.652 32.7382V29.4233C66.652 28.809 66.7081 28.2687 66.1123 27.8779V25.2149H70.8426V26.146H70.8423Z" fill="#E6E3DA"/>
<path fill-rule="evenodd" clip-rule="evenodd" d="M79.3578 26.146C79.8233 25.3449 80.3078 24.9541 81.2571 24.9541C81.4248 24.9541 81.6106 24.9729 81.7786 25.0096V29.014H81.4248C79.8978 29.014 79.5628 29.8705 79.5628 31.2486V32.3847C79.5628 32.757 79.5628 33.2792 79.6374 33.6515C79.7114 34.0423 79.8233 34.1357 80.1959 34.3212V36.9476H74.627V34.2846C75.2237 33.8937 75.1673 33.3537 75.1673 32.7382V29.4233C75.1673 28.809 75.2237 28.2687 74.627 27.8779V25.2149H79.3578V26.146Z" fill="#E6E3DA"/>
<path fill-rule="evenodd" clip-rule="evenodd" d="M30.35 14.2705C28.4896 13.3619 25.3314 12.7561 23.774 12.1506C22.2164 11.5448 21.0054 10.3334 22.0218 8.7106C22.9112 7.29118 24.6826 7.88916 25.5044 8.29973C26.7856 8.94065 28.0138 9.72761 29.0954 9.72761C30.177 9.72761 32.8591 8.64604 33.9407 5.35808H26.0234C23.4277 5.35808 21.1561 6.41803 20.4425 8.17029C19.7405 9.8934 20.1398 12.0641 23.0817 13.3619C24.0335 13.7944 26.889 14.4435 28.8791 15.3085C30.8696 16.1741 32.8162 17.3851 32.2539 19.2455C31.6913 21.1059 29.081 21.2378 27.6029 21.1494C25.8074 21.041 20.6807 20.0672 19.1666 16.6931C18.8639 15.871 17.1329 11.9992 16.6572 11.2636C17.1762 11.3069 18.2794 11.3288 18.3665 10.896C18.4527 10.4632 18.0199 9.68436 17.6306 9.07854C19.0582 8.34298 19.2315 1.29099 13.8236 3.06487L14.5592 3.88694C15.381 4.92526 13.9966 5.8774 13.4344 5.53108C13.1746 5.31483 13.0019 5.31483 12.612 5.31483H9.58418C9.1943 5.31483 9.1078 5.40102 8.84861 5.48814C7.55048 6.00715 7.37716 4.49276 7.89648 3.93019L8.6753 3.15169C6.20909 1.4643 1.44999 4.88233 4.21926 8.64604C3.3972 9.42486 2.96438 11.3717 4.0892 11.069C4.39195 10.9386 5.08427 10.8092 5.47352 10.6797L2.92082 17.7527C2.44506 18.8779 1.36349 21.8195 3.24519 24.5888C2.50963 25.6694 2.96438 28.0278 3.22388 29.1529C3.4837 30.2771 4.17601 32.0081 2.96438 36.6804H6.85816C6.81491 35.3396 6.94466 34.431 7.11766 33.7814C7.29097 33.1329 7.72348 31.6182 7.72348 31.056C8.13467 31.229 9.32436 31.229 9.67068 31.056C10.1897 31.9216 11.5743 33.9982 15.6408 34.0847C15.9006 33.5225 16.203 31.6618 16.1165 30.364C16.4196 30.1045 16.7656 30.0609 17.0251 29.9747C17.2846 29.8885 17.5874 29.9747 17.6306 30.321C17.6739 30.6667 18.0199 30.9262 18.4097 30.7532C18.7984 30.5802 19.2099 30.7319 19.1231 31.2076C19.0369 31.6834 18.8849 33.955 16.5055 36.6804H21.0919C21.5676 35.6417 22.8222 32.916 24.12 31.7483C24.466 32.224 25.5479 33.5651 27.4512 32.6136C27.1052 33.2194 25.7206 35.7718 25.1584 36.6807H30.4258C30.6317 35.9448 31.9073 31.8564 33.1189 30.2775C33.3784 29.9318 33.4649 29.4124 32.9027 29.1533C32.3407 28.8931 31.3018 28.3744 30.2205 25.8647C29.7874 24.6966 28.5764 22.8365 28.2307 22.5341C29.442 22.7068 32.3837 22.4043 33.3784 20.3706C34.3732 18.3372 33.5082 15.7413 30.35 14.2705ZM27.1388 6.68097H30.9677C31.4002 6.68097 31.4434 6.98373 31.1836 7.24354C30.9244 7.50304 30.2108 8.19191 29.1719 8.21667C28.2636 8.23798 27.4199 7.58954 27.009 7.32973C26.664 7.11222 26.8793 6.68097 27.1388 6.68097ZM6.27491 30.809C6.10222 31.9332 5.71234 34.2261 5.34471 35.3515H4.56589C5.3234 32.4096 4.80377 30.1167 4.54396 29.0351C4.28445 27.9535 4.13308 26.7641 4.34933 26.158C4.47939 26.3736 5.12815 27.2396 5.3444 27.5427C6.25328 28.9264 6.44759 29.6835 6.27491 30.809ZM9.91326 28.749C9.09119 30.0474 8.03156 29.2683 7.6423 28.6195C7.25274 27.9705 6.56073 26.7594 5.47916 25.3312C4.26157 23.7244 3.83534 23.0819 3.48871 21.7405C3.14302 20.3998 3.83534 19.8369 4.6571 20.0535C5.47916 20.27 6.3448 21.8706 6.51748 22.4329C6.64724 22.9512 7.59905 22.9512 7.59905 22.3893C7.42574 20.1396 4.6571 18.2793 4.13778 17.8471C4.87335 16.0299 6.88543 10.4058 7.07974 8.76138C3.92153 7.89637 4.52734 4.73816 6.25767 4.47803C5.54435 5.86267 7.36118 7.918 8.63737 7.09561C9.05201 6.82859 9.22094 6.77124 9.58888 6.77124H12.4443C12.8988 6.77124 13.288 7.0743 13.4827 7.13886C15.905 7.57137 16.3381 5.64641 16.1216 4.93216C17.1169 5.23522 17.0517 6.79255 16.6409 7.57137C16.2297 8.34987 14.7589 8.63131 13.5475 8.52319C12.2278 8.5445 11.8169 10.1241 11.7304 10.6863C11.6436 11.2489 11.9031 11.53 11.9463 12.049C11.9896 12.5683 11.2756 12.7194 10.757 12.7194C10.2376 12.7194 9.95651 12.5035 9.56726 12.5035C9.17769 12.5035 8.87494 12.6981 8.87494 13.0441C8.87494 13.3904 9.06988 13.6063 9.48044 13.585C9.89163 13.5634 10.2376 13.3252 10.8002 13.3472C11.3625 13.3685 11.8598 13.7577 12.5092 13.7793C13.158 13.801 13.3742 13.1735 13.3742 12.936C13.3742 12.6978 13.4175 12.395 13.0498 12.049C13.4717 11.8328 13.8287 10.881 14.5642 10.7509C15.0832 11.5733 17.8303 15.2937 17.6356 18.5388C17.4777 21.1764 15.4292 22.692 14.521 23.1675C12.1845 24.5098 10.7356 27.4518 9.91326 28.749ZM13.7447 10.1354C13.3755 10.5757 12.9712 10.7145 12.8019 10.5487C12.6534 10.4033 12.6706 10.0087 13.0401 9.56903C13.4093 9.12869 13.828 8.95506 14.0095 9.10675C14.191 9.25844 14.1139 9.69564 13.7447 10.1354ZM14.7723 28.964C13.9941 29.3319 12.696 29.829 12.2203 29.959C11.8307 30.0668 11.9159 30.364 11.9388 30.4777C11.9824 30.694 12.8906 31.1484 13.561 30.9318C13.7559 30.824 14.1236 30.7156 14.5345 30.7375C14.5993 31.17 14.5777 31.9708 14.4266 32.5117C13.4748 32.3814 10.9221 31.4512 10.9657 30.1969C11.0086 28.9414 12.6744 27.0813 13.3021 26.7792C13.929 26.4761 14.9243 26.2812 15.3352 26.9948C15.7461 27.7094 15.5515 28.596 14.7723 28.964ZM16.9834 28.2647C17.0267 27.5727 17.0267 25.366 14.647 24.8038C15.296 24.4142 18.9303 22.4247 18.9303 19.0502C19.6223 19.8287 21.2668 20.8241 22.0023 21.1701C21.18 21.7324 18.9736 24.4142 22.1753 28.1782C21.699 28.3074 20.6613 28.4374 20.1849 28.6104C19.7956 28.7405 19.5797 28.5678 19.5797 28.0921C19.5797 27.789 19.6267 27.5536 19.1472 27.6154C18.6489 27.6802 17.373 28.0482 16.9834 28.2647ZM20.2209 35.3609H19.1823C20.5882 32.7433 20.7829 31.0776 20.7829 30.4724C21.5184 30.0393 22.9244 30.018 23.3788 30.0393C22.7949 30.5153 20.6534 34.4959 20.2209 35.3609ZM25.9124 31.4145C25.2853 31.2631 25.112 30.6144 25.112 30.1812C25.4153 30.2251 26.6696 30.5492 26.9727 30.7222C27.2751 30.8952 27.0259 31.6834 25.9124 31.4145ZM29.0086 26.6886C29.9604 28.6352 30.6524 29.5218 31.042 29.8685C31.4312 30.2141 31.3447 30.4956 31.1068 30.9065C30.7608 31.5562 29.5708 34.3677 29.2248 35.3415H27.6672C28.3595 34.2599 29.0083 32.7023 29.2245 32.0532C29.4411 31.4048 29.4843 30.9716 29.3546 30.5391C29.2245 30.1063 28.4065 29.534 26.4991 28.8085C24.509 28.0513 23.7085 27.4891 22.8 26.4511C21.8917 25.4124 21.3508 23.2277 23.146 22.2329C26.3477 21.2375 28.0567 24.7408 29.0086 26.6886Z" fill="#E6E3DA"/>
<path fill-rule="evenodd" clip-rule="evenodd" d="M8.92333 9.56861C8.55351 9.12889 8.13449 8.95464 7.95334 9.10664C7.77219 9.25865 7.84897 9.69522 8.21848 10.1356C8.58767 10.5759 8.99228 10.7144 9.1609 10.5489C9.30914 10.4029 9.2919 10.0089 8.92333 9.56861Z" fill="#E6E3DA"/>
<path fill-rule="evenodd" clip-rule="evenodd" d="M10.8564 14.5354C11.1482 14.5354 11.6781 14.6871 11.9593 14.7732C12.5115 14.9356 12.4463 14.2969 12.2517 14.1781C11.8405 13.9079 11.2673 13.7998 10.8457 13.7998C10.4236 13.7998 9.85066 13.9076 9.43947 14.1781C9.24453 14.2972 9.17996 14.9356 9.73156 14.7732C10.0127 14.6871 10.5643 14.5354 10.8564 14.5354Z" fill="#E6E3DA"/>
</svg>
