                            <svg xmlns="http://www.w3.org/2000/svg" width="141" height="34" viewBox="0 0 141 34" fill="none">
                            <g clip-path="url(#clip0_144_263)">
                                <mask id="mask0_144_263" style="mask-type:luminance" maskUnits="userSpaceOnUse" x="-42" y="-87" width="214" height="209">
                                <path d="M-41.6421 121.112H171.419V-86.6357H-41.6421V121.112Z" fill="white"/>
                                </mask>
                                <g mask="url(#mask0_144_263)">
                                <path d="M72.6322 19.1561L67.2828 5.77135L61.9642 19.0672C63.348 19.0239 64.7478 18.9988 66.1785 18.9988C68.387 18.9988 70.536 19.0524 72.6322 19.1561ZM117.029 32.7267C105.565 27.7658 92.6726 24.0919 77.5235 22.8517L82.1364 34H78.5659L74.0125 22.6112C71.4684 22.471 68.859 22.3923 66.1842 22.3923C64.2873 22.3923 62.4247 22.4311 60.592 22.5052L55.9951 34H52.4223L57.0993 22.6898C41.0304 23.7386 27.3452 27.5276 15.3244 32.7233V32.0211C23.3474 27.5652 31.2811 24.239 39.8459 22.0663V15.2235L30.1998 0.487877H33.784L41.4382 12.7316L49.0958 0.487877H52.6755L43.0316 15.2235L43.0293 21.3163C47.9308 20.2573 53.0546 19.5574 58.5335 19.2257L66.4832 0H68.0766L76.0893 19.3784C81.4674 19.8059 86.5087 20.5936 91.3415 21.746V3.05153H83.4606V0.487877H102.483V3.05153H94.605V22.5884C102.376 24.7485 109.667 27.8901 117.029 32.028V32.7267ZM129.774 0.487877H110.754V3.05153H118.634V26.1574H121.895V3.05153H129.774V0.487877ZM20.5868 26.1574L17.3256 26.1609V13.4942H3.26122V26.1574H0V0.487877H3.26122V10.9328H17.3256V0.487877H20.5868V26.1574Z" fill="#1D1D1B"/>
                                <path d="M138.378 2.48657C138.222 2.39538 137.97 2.35092 137.624 2.35092H137.093V3.6356H137.655C137.922 3.6356 138.117 3.6071 138.251 3.55581C138.492 3.45436 138.618 3.27197 138.618 3.00295C138.618 2.74647 138.536 2.57549 138.378 2.48657ZM137.707 1.93144C138.143 1.93144 138.466 1.97362 138.673 2.05569C139.039 2.20844 139.221 2.50937 139.221 2.95166C139.221 3.26513 139.106 3.49881 138.877 3.64928C138.754 3.72793 138.586 3.78151 138.363 3.81685C138.646 3.86016 138.845 3.97529 138.976 4.16224C139.1 4.34918 139.165 4.53271 139.165 4.71167V4.96815C139.165 5.05136 139.168 5.13914 139.174 5.22919C139.18 5.32266 139.189 5.38308 139.205 5.41614L139.227 5.45945H138.646C138.642 5.44691 138.639 5.43665 138.636 5.42525C138.632 5.41272 138.632 5.39676 138.629 5.38308L138.614 5.26909V4.98867C138.614 4.58286 138.498 4.31385 138.278 4.18276C138.143 4.10866 137.916 4.06877 137.583 4.06877H137.093V5.45945H136.465V1.93144H137.707ZM135.807 1.74905C135.266 2.29051 134.998 2.94482 134.998 3.70855C134.998 4.47799 135.264 5.13458 135.803 5.67717C136.342 6.22205 136.996 6.49107 137.767 6.49107C138.537 6.49107 139.192 6.22205 139.735 5.67717C140.273 5.13458 140.543 4.47799 140.543 3.70855C140.543 2.94482 140.273 2.29051 139.735 1.74905C139.189 1.20988 138.534 0.938581 137.767 0.938581C137.001 0.938581 136.35 1.20988 135.807 1.74905ZM140.051 5.98267C139.424 6.61532 138.663 6.92993 137.767 6.92993C136.873 6.92993 136.112 6.61532 135.482 5.98267C134.859 5.3523 134.547 4.5954 134.547 3.70513C134.547 2.82171 134.862 2.06481 135.494 1.43786C136.121 0.812051 136.88 0.498576 137.767 0.498576C138.663 0.498576 139.424 0.812051 140.051 1.43786C140.685 2.05911 141 2.81829 141 3.70513C141 4.59198 140.685 5.35116 140.051 5.98267Z" fill="#1D1D1B"/>
                                </g>
                            </g>
                            <defs>
                                <clipPath id="clip0_144_263">
                                <rect width="141" height="34" fill="white"/>
                                </clipPath>
                            </defs>
                            </svg>                        
