                            <svg xmlns="http://www.w3.org/2000/svg" width="165" height="46" viewBox="0 0 165 46" fill="none">
                            <path d="M57.0426 44.8514C57.4657 44.7985 57.7037 44.7191 57.8095 44.6134C57.9153 44.5076 57.9682 44.2167 57.9682 43.7671V39.2185C57.9682 38.8483 57.9153 38.6103 57.7831 38.478C57.6773 38.3722 57.4128 38.2929 57.0426 38.2665V38.1078H59.9516V38.2929C59.5549 38.3194 59.3169 38.3987 59.1847 38.5045C59.0789 38.6103 58.9996 38.8747 58.9996 39.2449V41.2812H62.173V39.2449C62.173 38.8747 62.1201 38.6367 62.0143 38.5045C61.9086 38.3987 61.6441 38.3194 61.2739 38.2929V38.1078H64.1829V38.2929C63.7862 38.3194 63.5482 38.3987 63.4424 38.5045C63.3366 38.6103 63.2837 38.8747 63.2837 39.2449V43.9258C63.2837 44.296 63.3366 44.5605 63.4424 44.6662C63.5482 44.772 63.8126 44.8514 64.1829 44.8778V45.0629H61.2739V44.8778C61.697 44.8249 61.935 44.772 62.0408 44.6398C62.1466 44.534 62.1995 44.2431 62.1995 43.7936V41.7573H59.026V43.9258C59.026 44.296 59.0789 44.5605 59.2111 44.6662C59.3169 44.772 59.5814 44.8514 59.978 44.8778V45.0629H57.069V44.8514H57.0426Z" fill="#1D1D1B"/>
                            <path d="M57.0426 44.8514C57.4657 44.7985 57.7037 44.7191 57.8095 44.6134C57.9153 44.5076 57.9682 44.2167 57.9682 43.7671V39.2185C57.9682 38.8483 57.9153 38.6103 57.7831 38.478C57.6773 38.3722 57.4128 38.2929 57.0426 38.2665V38.1078H59.9516V38.2929C59.5549 38.3194 59.3169 38.3987 59.1847 38.5045C59.0789 38.6103 58.9996 38.8747 58.9996 39.2449V41.2812H62.173V39.2449C62.173 38.8747 62.1201 38.6367 62.0143 38.5045C61.9086 38.3987 61.6441 38.3194 61.2739 38.2929V38.1078H64.1829V38.2929C63.7862 38.3194 63.5482 38.3987 63.4424 38.5045C63.3366 38.6103 63.2837 38.8747 63.2837 39.2449V43.9258C63.2837 44.296 63.3366 44.5605 63.4424 44.6662C63.5482 44.772 63.8126 44.8514 64.1829 44.8778V45.0629H61.2739V44.8778C61.697 44.8249 61.935 44.772 62.0408 44.6398C62.1466 44.534 62.1995 44.2431 62.1995 43.7936V41.7573H59.026V43.9258C59.026 44.296 59.0789 44.5605 59.2111 44.6662C59.3169 44.772 59.5814 44.8514 59.978 44.8778V45.0629H57.069V44.8514H57.0426Z" fill="#1D1D1B"/>
                            <path d="M69.1281 44.0316C69.5513 44.5605 70.1066 44.8249 70.7413 44.8249C71.3496 44.8249 71.8785 44.5605 72.328 44.058C72.7776 43.5291 72.9892 42.7093 72.9892 41.5721C72.9892 40.435 72.7776 39.5887 72.328 39.0863C71.8785 38.5838 71.3496 38.3194 70.7413 38.3194C70.1066 38.3194 69.5777 38.5838 69.1281 39.1127C68.705 39.6416 68.467 40.4614 68.467 41.5721C68.4935 42.6828 68.705 43.5026 69.1281 44.0316ZM68.3612 38.8747C68.9959 38.2665 69.7893 37.9491 70.7413 37.9491C71.6934 37.9491 72.4867 38.2665 73.1214 38.8747C73.8354 39.5358 74.1792 40.435 74.1792 41.5721C74.1792 42.7093 73.809 43.6084 73.095 44.296C72.4338 44.9043 71.6669 45.1952 70.7413 45.1952C69.7628 45.1952 68.943 44.8514 68.2819 44.1902C67.6208 43.5027 67.3034 42.63 67.3034 41.5721C67.3034 40.4614 67.6472 39.5623 68.3612 38.8747Z" fill="#1D1D1B"/>
                            <path d="M69.1281 44.0316C69.5513 44.5605 70.1066 44.8249 70.7413 44.8249C71.3496 44.8249 71.8785 44.5605 72.328 44.058C72.7776 43.5291 72.9892 42.7093 72.9892 41.5721C72.9892 40.435 72.7776 39.5887 72.328 39.0863C71.8785 38.5838 71.3496 38.3194 70.7413 38.3194C70.1066 38.3194 69.5777 38.5838 69.1281 39.1127C68.705 39.6416 68.467 40.4614 68.467 41.5721C68.4935 42.6828 68.705 43.5026 69.1281 44.0316ZM68.3612 38.8747C68.9959 38.2665 69.7893 37.9491 70.7413 37.9491C71.6934 37.9491 72.4867 38.2665 73.1214 38.8747C73.8354 39.5358 74.1792 40.435 74.1792 41.5721C74.1792 42.7093 73.809 43.6084 73.095 44.296C72.4338 44.9043 71.6669 45.1952 70.7413 45.1952C69.7628 45.1952 68.943 44.8514 68.2819 44.1902C67.6208 43.5027 67.3034 42.63 67.3034 41.5721C67.3034 40.4614 67.6472 39.5623 68.3612 38.8747Z" fill="#1D1D1B"/>
                            <path d="M76.5593 38.1078H82.4831L82.536 39.8796H82.298C82.1657 39.3243 82.007 38.954 81.8219 38.7954C81.6368 38.6367 81.2401 38.5309 80.6319 38.5309H80.0501V43.8993C80.0501 44.296 80.103 44.5605 80.2352 44.6662C80.3674 44.772 80.6319 44.8249 81.055 44.8514V45.0365H77.9874V44.8514C78.4369 44.8249 78.7014 44.7456 78.8072 44.6398C78.9129 44.534 78.9658 44.2431 78.9658 43.7936V38.5309H78.384C77.8022 38.5309 77.4056 38.6103 77.194 38.7954C76.9824 38.954 76.8238 39.3243 76.718 39.8796H76.4535L76.5593 38.1078Z" fill="#1D1D1B"/>
                            <path d="M76.5593 38.1078H82.4831L82.536 39.8796H82.298C82.1657 39.3243 82.007 38.954 81.8219 38.7954C81.6368 38.6367 81.2401 38.5309 80.6319 38.5309H80.0501V43.8993C80.0501 44.296 80.103 44.5605 80.2352 44.6662C80.3674 44.772 80.6319 44.8249 81.055 44.8514V45.0365H77.9874V44.8514C78.4369 44.8249 78.7014 44.7456 78.8072 44.6398C78.9129 44.534 78.9658 44.2431 78.9658 43.7936V38.5309H78.384C77.8022 38.5309 77.4056 38.6103 77.194 38.7954C76.9824 38.954 76.8238 39.3243 76.718 39.8796H76.4535L76.5593 38.1078Z" fill="#1D1D1B"/>
                            <path d="M85.7094 44.8514C86.1061 44.7985 86.3441 44.7456 86.4499 44.6398C86.5557 44.534 86.635 44.296 86.635 43.8993V39.2185C86.635 38.8483 86.5821 38.6103 86.4763 38.478C86.3705 38.3722 86.1061 38.2929 85.7359 38.2665V38.1078H91.3158L91.3423 39.6152H91.0778C90.9985 39.1392 90.8663 38.8483 90.6811 38.716C90.496 38.5838 90.0993 38.5045 89.4911 38.5045H88.063C87.9044 38.5045 87.825 38.5309 87.7721 38.5838C87.7457 38.6367 87.7193 38.716 87.7193 38.8483V41.2019H89.3324C89.782 41.2019 90.0729 41.1226 90.1787 40.9903C90.3109 40.8581 90.3903 40.5937 90.4696 40.1705H90.7076V42.6035H90.4696C90.3903 42.2068 90.2845 41.9159 90.1787 41.8102C90.0465 41.6779 89.782 41.5986 89.3324 41.5986H87.7193V44.1902C87.7193 44.4018 87.7986 44.534 87.9044 44.5605C88.0366 44.5869 88.4333 44.6134 89.0944 44.6134C89.8084 44.6134 90.3374 44.534 90.6547 44.3754C90.9985 44.2167 91.2894 43.8464 91.5803 43.2382H91.8712L91.3952 45.01H85.7094V44.8514Z" fill="#1D1D1B"/>
                            <path d="M85.7094 44.8514C86.1061 44.7985 86.3441 44.7456 86.4499 44.6398C86.5557 44.534 86.635 44.296 86.635 43.8993V39.2185C86.635 38.8483 86.5821 38.6103 86.4763 38.478C86.3705 38.3722 86.1061 38.2929 85.7359 38.2665V38.1078H91.3158L91.3423 39.6152H91.0778C90.9985 39.1392 90.8663 38.8483 90.6811 38.716C90.496 38.5838 90.0993 38.5045 89.4911 38.5045H88.063C87.9044 38.5045 87.825 38.5309 87.7721 38.5838C87.7457 38.6367 87.7193 38.716 87.7193 38.8483V41.2019H89.3324C89.782 41.2019 90.0729 41.1226 90.1787 40.9903C90.3109 40.8581 90.3903 40.5937 90.4696 40.1705H90.7076V42.6035H90.4696C90.3903 42.2068 90.2845 41.9159 90.1787 41.8102C90.0465 41.6779 89.782 41.5986 89.3324 41.5986H87.7193V44.1902C87.7193 44.4018 87.7986 44.534 87.9044 44.5605C88.0366 44.5869 88.4333 44.6134 89.0944 44.6134C89.8084 44.6134 90.3374 44.534 90.6547 44.3754C90.9985 44.2167 91.2894 43.8464 91.5803 43.2382H91.8712L91.3952 45.01H85.7094V44.8514Z" fill="#1D1D1B"/>
                            <path d="M94.9653 44.8514C95.362 44.7985 95.6 44.7456 95.7058 44.6398C95.8115 44.534 95.8909 44.296 95.8909 43.8993V39.2185C95.8909 38.8483 95.838 38.6103 95.7322 38.478C95.6264 38.3722 95.362 38.2929 94.9653 38.2665V38.1078H97.9272V38.2929C97.5305 38.3194 97.2925 38.3722 97.1603 38.478C97.028 38.5838 96.9751 38.8218 96.9751 39.1656V44.2167C96.9751 44.3225 97.0016 44.4282 97.028 44.4811C97.0809 44.534 97.1603 44.5869 97.2925 44.6134C97.3718 44.6134 97.4512 44.6398 97.5305 44.6398C97.6098 44.6398 97.795 44.6398 98.033 44.6398C98.9585 44.6398 99.5932 44.5605 99.937 44.4018C100.254 44.2431 100.572 43.8464 100.889 43.2118H101.154L100.651 45.0365H94.9917V44.8514H94.9653Z" fill="#1D1D1B"/>
                            <path d="M94.9653 44.8514C95.362 44.7985 95.6 44.7456 95.7058 44.6398C95.8115 44.534 95.8909 44.296 95.8909 43.8993V39.2185C95.8909 38.8483 95.838 38.6103 95.7322 38.478C95.6264 38.3722 95.362 38.2929 94.9653 38.2665V38.1078H97.9272V38.2929C97.5305 38.3194 97.2925 38.3722 97.1603 38.478C97.028 38.5838 96.9751 38.8218 96.9751 39.1656V44.2167C96.9751 44.3225 97.0016 44.4282 97.028 44.4811C97.0809 44.534 97.1603 44.5869 97.2925 44.6134C97.3718 44.6134 97.4512 44.6398 97.5305 44.6398C97.6098 44.6398 97.795 44.6398 98.033 44.6398C98.9585 44.6398 99.5932 44.5605 99.937 44.4018C100.254 44.2431 100.572 43.8464 100.889 43.2118H101.154L100.651 45.0365H94.9917V44.8514H94.9653Z" fill="#1D1D1B"/>
                            <path d="M103.401 42.9473C103.586 43.4233 103.798 43.7936 104.036 44.0845C104.459 44.5869 104.962 44.8249 105.596 44.8249C105.94 44.8249 106.231 44.7191 106.469 44.5076C106.707 44.296 106.839 44.0051 106.839 43.6084C106.839 43.2646 106.707 42.9737 106.469 42.7093C106.31 42.5506 105.967 42.3126 105.464 41.9953L104.565 41.4399C104.301 41.2812 104.089 41.0961 103.904 40.911C103.613 40.5672 103.454 40.2234 103.454 39.8267C103.454 39.2978 103.639 38.8483 103.983 38.5045C104.327 38.1607 104.803 37.9756 105.385 37.9756C105.623 37.9756 105.914 38.0285 106.257 38.1607C106.601 38.2665 106.786 38.3458 106.839 38.3458C106.972 38.3458 107.051 38.3194 107.104 38.2665C107.157 38.2136 107.183 38.1078 107.21 38.002H107.421L107.659 40.2499H107.421C107.262 39.5887 106.972 39.1127 106.601 38.8483C106.231 38.5838 105.861 38.4516 105.491 38.4516C105.2 38.4516 104.962 38.5309 104.75 38.716C104.539 38.8747 104.433 39.1127 104.433 39.4301C104.433 39.6945 104.512 39.9325 104.671 40.1176C104.829 40.3028 105.094 40.5143 105.438 40.7259L106.363 41.3077C106.945 41.6515 107.342 41.9953 107.58 42.2862C107.818 42.5771 107.924 42.9473 107.924 43.344C107.924 43.8993 107.712 44.3489 107.289 44.7191C106.866 45.0894 106.337 45.2745 105.702 45.2745C105.385 45.2745 105.041 45.2216 104.671 45.0894C104.327 44.9571 104.115 44.9043 104.063 44.9043C103.93 44.9043 103.851 44.9307 103.825 45.01C103.772 45.0894 103.745 45.1687 103.745 45.248H103.507L103.19 43.0002H103.401V42.9473Z" fill="#1D1D1B"/>
                            <path d="M103.401 42.9473C103.586 43.4233 103.798 43.7936 104.036 44.0845C104.459 44.5869 104.962 44.8249 105.596 44.8249C105.94 44.8249 106.231 44.7191 106.469 44.5076C106.707 44.296 106.839 44.0051 106.839 43.6084C106.839 43.2646 106.707 42.9737 106.469 42.7093C106.31 42.5506 105.967 42.3126 105.464 41.9953L104.565 41.4399C104.301 41.2812 104.089 41.0961 103.904 40.911C103.613 40.5672 103.454 40.2234 103.454 39.8267C103.454 39.2978 103.639 38.8483 103.983 38.5045C104.327 38.1607 104.803 37.9756 105.385 37.9756C105.623 37.9756 105.914 38.0285 106.257 38.1607C106.601 38.2665 106.786 38.3458 106.839 38.3458C106.972 38.3458 107.051 38.3194 107.104 38.2665C107.157 38.2136 107.183 38.1078 107.21 38.002H107.421L107.659 40.2499H107.421C107.262 39.5887 106.972 39.1127 106.601 38.8483C106.231 38.5838 105.861 38.4516 105.491 38.4516C105.2 38.4516 104.962 38.5309 104.75 38.716C104.539 38.8747 104.433 39.1127 104.433 39.4301C104.433 39.6945 104.512 39.9325 104.671 40.1176C104.829 40.3028 105.094 40.5143 105.438 40.7259L106.363 41.3077C106.945 41.6515 107.342 41.9953 107.58 42.2862C107.818 42.5771 107.924 42.9473 107.924 43.344C107.924 43.8993 107.712 44.3489 107.289 44.7191C106.866 45.0894 106.337 45.2745 105.702 45.2745C105.385 45.2745 105.041 45.2216 104.671 45.0894C104.327 44.9571 104.115 44.9043 104.063 44.9043C103.93 44.9043 103.851 44.9307 103.825 45.01C103.772 45.0894 103.745 45.1687 103.745 45.248H103.507L103.19 43.0002H103.401V42.9473Z" fill="#1D1D1B"/>
                            <path d="M129.291 22.0554C129.715 23.1397 130.191 24.0124 130.746 24.6735C131.724 25.8107 132.914 26.366 134.342 26.366C135.109 26.366 135.797 26.128 136.352 25.6256C136.934 25.1231 137.199 24.4355 137.199 23.5628C137.199 22.7695 136.908 22.0819 136.352 21.5001C135.982 21.1299 135.189 20.5745 133.999 19.834L131.91 18.5382C131.275 18.1415 130.772 17.7448 130.402 17.3482C129.715 16.5812 129.371 15.735 129.371 14.8094C129.371 13.5929 129.767 12.5615 130.587 11.7417C131.407 10.9219 132.491 10.5253 133.84 10.5253C134.395 10.5253 135.057 10.6575 135.823 10.9484C136.617 11.2128 137.066 11.3451 137.172 11.3451C137.463 11.3451 137.675 11.2657 137.78 11.1335C137.886 11.0013 137.992 10.7897 138.045 10.5253H138.547L139.076 15.7085H138.494C138.098 14.1483 137.463 13.064 136.59 12.4293C135.718 11.8211 134.845 11.5037 133.999 11.5037C133.338 11.5037 132.756 11.6888 132.253 12.0855C131.751 12.4822 131.513 13.0111 131.513 13.7251C131.513 14.3598 131.698 14.8887 132.095 15.3383C132.465 15.7879 133.073 16.2639 133.866 16.7399L136.009 18.0622C137.357 18.882 138.283 19.6489 138.838 20.3365C139.367 21.0241 139.632 21.8703 139.658 22.7959C139.658 24.0653 139.182 25.1496 138.204 25.9958C137.251 26.8421 136.009 27.2916 134.528 27.2916C133.787 27.2916 132.994 27.1594 132.174 26.8685C131.354 26.5776 130.878 26.4454 130.772 26.4454C130.481 26.4454 130.296 26.5247 130.191 26.7098C130.085 26.8949 130.032 27.0801 130.005 27.2652H129.477L128.762 22.0819H129.291V22.0554Z" fill="#1D1D1B"/>
                            <path d="M52.9965 26.4983C53.9749 26.4189 54.6361 26.2867 54.927 26.0487C55.2179 25.8107 55.3765 25.2289 55.3765 24.3033V13.4871C55.3765 12.588 55.2179 12.0062 54.927 11.7682C54.6361 11.5037 54.0014 11.3451 52.9965 11.2922V10.8426H60.1896V11.2922C59.2111 11.3451 58.55 11.5037 58.2591 11.7682C57.9682 12.0326 57.8095 12.588 57.8095 13.4871V24.3033C57.8095 25.2553 57.9682 25.8371 58.2591 26.0487C58.55 26.2603 59.1847 26.4189 60.1896 26.4983V26.9478H52.9965V26.4983Z" fill="#1D1D1B"/>
                            <path d="M104.248 24.5942C105.253 25.8107 106.495 26.4189 107.95 26.4189C109.378 26.4189 110.621 25.8371 111.626 24.6471C112.657 23.457 113.16 21.553 113.16 18.9084C113.16 16.2639 112.657 14.3334 111.626 13.1698C110.595 11.9797 109.378 11.3979 107.976 11.3979C106.522 11.3979 105.279 12.0062 104.274 13.2491C103.269 14.4656 102.767 16.3697 102.767 18.9349C102.74 21.4736 103.243 23.3513 104.248 24.5942ZM102.423 12.6673C103.93 11.2393 105.755 10.5253 107.95 10.5253C110.145 10.5253 111.996 11.2393 113.477 12.6938C115.09 14.254 115.91 16.3432 115.91 18.9349C115.91 21.5794 115.064 23.6686 113.398 25.2289C111.89 26.6305 110.066 27.3181 107.95 27.3181C105.676 27.3181 103.772 26.5512 102.264 24.9909C100.73 23.4042 99.9635 21.3943 99.9635 18.9084C99.9899 16.3168 100.783 14.2276 102.423 12.6673Z" fill="#1D1D1B"/>
                            <path d="M25.2817 26.4983C26.2073 26.4189 26.7891 26.2338 27.0271 25.9429C27.2651 25.6785 27.3709 25.0173 27.3709 24.0124V13.4607C27.3709 12.6144 27.2386 12.0591 26.9742 11.7946C26.7097 11.5302 26.1544 11.3451 25.2817 11.2922V10.8426H32.0253C33.4269 10.8426 34.5905 11.0277 35.5425 11.3715C37.3143 12.0326 38.2135 13.2756 38.2135 15.1003C38.2135 16.3168 37.8168 17.2424 37.0234 17.9035C36.2301 18.5646 35.1723 18.9878 33.8236 19.1729L38.8482 25.3347C39.1655 25.7049 39.4564 25.9958 39.7738 26.1545C40.0911 26.3396 40.4878 26.4454 40.9638 26.4983V26.9478H37.0499L31.2583 19.4638L29.9096 19.5167V24.3033C29.9096 25.2024 30.0419 25.7842 30.3063 26.0222C30.5708 26.2603 31.179 26.4189 32.1046 26.4983V26.9478H25.2817V26.4983ZM33.612 18.0622C34.9078 17.5333 35.5425 16.5284 35.5425 15.0739C35.5425 13.6722 34.9607 12.6938 33.7971 12.1913C33.1889 11.9269 32.3691 11.7682 31.3377 11.7682C30.6501 11.7682 30.227 11.8211 30.0683 11.9269C29.9096 12.0326 29.8303 12.2442 29.8303 12.6144V18.6175C31.6021 18.5646 32.8451 18.3795 33.612 18.0622Z" fill="#1D1D1B"/>
                            <path d="M82.4568 0L84.4137 2.56521L83.3294 8.77987L85.6038 2.56521H88.4863L82.4568 11.6624L76.4272 2.56521H79.3362L81.6105 8.77987L80.4998 2.56521L82.4568 0Z" fill="#1D1D1B"/>
                            <path d="M89.7028 5.36853L82.4567 15.9996L75.2371 5.36853H71.6935L80.2618 18.6706L72.3546 30.8354L0 30.9412L14.2805 33.2155L74.338 33.4271L82.4567 21.0242L90.6019 33.4271L150.659 33.2155L164.913 30.9412L92.5589 30.8354L84.6781 18.6706L93.2465 5.36853H89.7028Z" fill="#1D1D1B"/>
                            </svg>
