                            <svg xmlns="http://www.w3.org/2000/svg" width="125" height="46" viewBox="0 0 125 46" fill="none">
                            <path d="M75.3632 14.2836C74.2089 11.8206 73.3948 13.9032 73.3948 13.9032C72.6237 16.0412 67.7608 21.4761 66.7959 22.4382C62.7384 25.9318 64.1426 23.7509 63.8153 22.1897C63.8153 22.1897 63.9875 19.346 64.793 18.7003C64.793 18.7003 65.2195 18.8882 65.5511 17.161C65.5511 17.161 66.5288 14.9203 63.9143 14.4971C63.9143 14.4971 62.1225 13.2827 61.3127 16.7163C61.3127 16.7163 59.7836 23.2074 61.8727 26.1706C61.8727 26.1706 62.9494 28.1205 68.4327 22.8096L68.4241 22.7976C70.3366 20.929 73.2311 17.5508 73.2311 17.5508C76.2979 23.1354 71.6244 24.6362 71.6244 24.6362C69.8713 25.7696 71.6501 26.0345 71.6501 26.0345C78.8477 26.1848 79.4249 21.8654 79.4249 21.8654C79.5971 18.7611 75.3632 14.2836 75.3632 14.2836Z" fill="#1D1D1B"/>
                            <path d="M57.3687 1.1794C57.3687 1.1794 55.0299 -1.7497 55.4261 1.62421C55.4261 1.62421 55.745 8.66694 54.5776 17.4329C54.4397 17.0911 54.2632 16.7444 54.0134 16.3978C54.0134 16.3978 51.9759 13.6994 49.6844 14.452C49.6844 14.452 46.7728 15.3624 45.08 19.733C45.08 19.733 43.8868 22.7562 44.2271 25.0268C44.2271 25.0268 44.1148 31.0046 51.4419 26.7799C51.4419 26.7799 52.2172 26.3132 53.1261 25.3987C52.9538 26.1429 52.6651 26.6346 52.635 27.3999C52.635 27.3999 52.3722 28.9779 53.1002 29.3756C53.3759 29.5295 53.6773 29.315 54.3235 27.7848C54.3235 27.7848 59.531 14.5162 59.811 9.03863C59.811 9.03863 61.6416 6.31924 57.3687 1.1794ZM48.2845 25.0567C48.2845 25.0567 47.7461 24.7015 47.7806 23.0982C47.7806 23.0982 47.9314 20.3146 49.8352 18.0825C49.8352 18.0825 50.3649 17.4158 50.8042 17.3345C50.9464 17.3103 51.179 17.5188 51.2867 18.3697C51.3123 18.5746 50.7095 18.6219 50.9292 19.2849C50.9292 19.2849 51.9457 21.8334 54.0821 20.6831C53.9918 21.2092 53.8969 21.7353 53.7935 22.261C52.6822 23.7961 50.3434 26.4464 48.2845 25.0567Z" fill="#1D1D1B"/>
                            <path d="M69.0851 7.65719C69.2011 6.59295 68.5381 5.64739 67.612 5.54908C66.7118 5.45212 65.8934 6.19019 65.7426 7.20812C65.6437 7.64448 65.6437 7.98633 65.6218 8.46099C65.5912 8.88038 65.0531 10.3724 65.5265 10.4922C65.9959 10.6134 67.4519 9.71392 68.1583 9.18786C68.6494 8.88847 69.0119 8.32857 69.0851 7.65719Z" fill="#1D1D1B"/>
                            <path d="M98.9642 13.4485C98.9642 13.4485 93.9677 20.8205 93.9849 23.2749C93.9849 23.2749 93.7825 25.5412 96.3712 25.4514C96.3712 25.4514 98.9858 25.2975 100.864 23.7624C100.864 23.7624 102.066 22.5733 102.768 22.4326C102.768 22.4326 104.469 22.6082 103.922 20.3628C103.922 20.3628 103.358 17.8229 102.72 16.8609C102.72 16.8609 102.143 15.7323 101.432 16.1638C101.432 16.1638 100.76 16.4669 100.984 17.6649C100.984 17.6649 100.928 17.7133 101.273 18.683C101.273 18.683 102.079 21.1417 101.605 21.21C101.605 21.21 101.381 21.2343 101.114 21.484C100.963 21.6246 100.661 21.9544 100.338 22.181C100.338 22.181 98.0554 23.7032 98.5679 21.5518C98.5679 21.5518 98.8694 20.2604 99.1968 19.4609C99.1968 19.4609 100.468 15.9205 101.872 14.0261C101.872 14.0261 103.237 12.3969 101.57 12.5252C101.466 12.5294 101.217 12.61 101.096 12.5494C101.096 12.5494 100.218 11.8024 98.9642 13.4485Z" fill="#1D1D1B"/>
                            <path d="M88.5296 16.6811C87.6466 16.1296 86.6473 14.0855 87.427 13.1148C87.7672 12.6954 88.4607 12.3198 88.3573 11.721C88.1333 10.3955 85.8031 11.7252 85.3724 13.3031C84.5066 15.6934 81.9006 17.2201 81.9006 17.2201C81.4786 17.5958 81.3751 18.5712 81.3751 18.5712C81.2933 20.3328 82.4261 19.0925 82.4261 19.0925C84.0543 17.8396 85.2087 16.9545 85.2087 16.9545C88.2755 22.5347 83.5934 24.0356 83.5934 24.0356C82.9774 24.2708 82.8267 24.5531 82.8267 24.9119C82.8438 25.3907 83.6279 25.4331 83.6279 25.4331C90.8211 25.5822 91.3983 21.2639 91.3983 21.2639C91.7299 19.3482 89.727 17.5107 88.5296 16.6811Z" fill="#1D1D1B"/>
                            <path d="M42.1463 25.3018C42.1463 25.3018 42.1329 25.217 42.0597 25.1528C41.8658 25.0206 40.9139 25.4471 39.9706 26.0084C39.8198 26.0932 39.6863 26.1757 39.557 26.2436C39.2125 26.4618 38.8765 26.6715 38.743 26.7866C38.743 26.7866 38.1356 27.2702 38.2002 26.1878C38.2045 26.1756 38.2045 26.1635 38.2045 26.1393C38.2132 25.8993 38.2607 25.5964 38.2778 25.2667C38.2778 25.2667 39.1091 21.9656 39.4666 21.042C39.4666 21.042 39.6648 20.1693 39.9749 19.1777C39.9749 19.1777 41.3964 17.7151 38.7905 17.2404C38.7905 17.2404 37.5456 14.2002 36.2017 18.9894C36.1114 18.4973 35.6548 17.7364 34.9569 17.4328C34.8148 17.3601 34.6166 17.2959 34.3409 17.2741C34.2371 17.262 34.1687 17.2861 33.9404 17.2619C33.9404 17.2619 32.6912 16.839 31.3516 18.4978C29.9302 20.05 25.7779 24.993 26.7256 29.128C26.7256 29.128 27.2424 31.2704 29.1549 31.2575C29.1549 31.2575 31.6919 31.2817 33.6044 29.4871C33.6044 29.4871 34.1816 28.978 34.7933 28.2343C34.8189 28.4912 34.8579 28.769 34.9353 29.0429C34.9439 29.1035 34.9574 29.1519 34.9744 29.2053C34.9744 29.2053 35.0428 29.6841 35.4397 30.0477C35.7326 30.3132 36.1977 30.5143 36.9472 30.4149C37.0204 30.4028 37.1022 30.3786 37.1798 30.3544C37.1798 30.3544 39.8633 29.7084 39.7987 28.5755C39.7645 28.0155 39.9709 27.9039 39.9709 27.9039C39.9709 27.9039 40.139 27.807 40.0784 27.613C40.0784 27.613 42.2195 26.1998 42.1463 25.3018ZM34.4099 26.8689C34.1903 27.2192 33.9834 27.6168 33.4062 27.9853C33.4062 27.9853 30.4729 29.7685 30.5763 27.2496C30.5763 27.2496 30.6752 25.8512 31.1578 24.5555C31.1578 24.5555 32.5102 21.1433 34.6036 19.1592C34.7931 18.9664 34.9611 18.9459 35.0688 19.0865C35.3617 19.4804 35.4134 19.9337 35.633 20.3051C35.6929 20.4021 35.7579 20.5014 35.8269 20.6044C35.5771 21.8786 34.9352 24.3075 34.8233 26.1376C34.7463 26.3898 34.565 26.6338 34.4099 26.8689Z" fill="#1D1D1B"/>
                            <path d="M13.9478 13.0502C13.754 12.6951 13.3189 12.8926 12.2809 14.5596C12.2809 14.5596 3.39914 29.4532 1.6073 36.5129C1.6073 36.5129 -0.361164 41.3919 2.27492 43.1451C2.27492 43.1451 2.86077 44.0687 3.58438 44.236C3.78254 45.2917 4.16147 46.2671 4.89374 45.9335C5.14782 45.8123 5.18668 44.9505 5.15652 44.1076L5.16994 44.1121C5.15284 43.4066 5.22124 42.7907 5.3078 42.3032C5.36763 42.102 5.42376 41.8972 5.48004 41.6572C5.48004 41.6572 5.51913 41.5031 5.59239 41.2207C5.62291 41.1237 5.64371 41.0801 5.64371 41.0801L5.62657 41.0844C6.43633 37.9029 10.5068 22.2997 13.7588 15.6932C13.7588 15.6932 14.5121 14.0721 13.9478 13.0502Z" fill="#1D1D1B"/>
                            <path d="M121.486 23.7552C120.284 23.0195 116.972 16.4046 116.972 16.4046C116.205 15.2592 114.883 16.6482 114.883 16.6482C113.995 17.3282 112.764 19.462 112.13 20.7405C111.286 22.173 111.501 20.3042 111.501 20.3042C111.544 19.7951 111.695 18.987 112.268 18.6107C112.268 18.6107 112.712 18.978 113.203 17.2937C113.203 17.2937 114.137 15.0831 111.829 14.4844C111.829 14.4844 110.162 13.1032 109.033 16.4514C109.033 16.4514 107.465 21.2962 108.09 24.3151C108.09 24.3151 108.379 27.8556 111.398 25.0847C111.695 24.8071 112.018 24.3792 112.354 23.9004C112.974 22.9513 113.147 22.6049 113.577 21.6172C114.318 19.8981 115.619 18.346 115.852 18.0851C115.684 20.0992 118.023 25.4143 118.023 25.4143C118.841 28.1253 120.163 28.0269 120.163 28.0269C126.986 28.2584 121.486 23.7552 121.486 23.7552Z" fill="#1D1D1B"/>
                            <path d="M17.4756 39.6996C17.6781 39.456 17.872 39.0754 18.91 38.8233C18.91 38.8233 54.2302 26.9144 101.219 29.2962C101.219 29.2962 103.885 29.1991 103.161 30.3567C102.735 31.0367 101.942 31.0792 100.435 31.1568C100.435 31.1568 99.9267 31.2415 97.9281 31.2173C97.9281 31.2173 102.731 33.073 83.7655 32.6882C83.7655 32.6882 85.4368 34.3816 78.4632 33.8943C78.4632 33.8943 59.0113 33.0131 19.6983 40.0902C19.6983 40.0902 16.6055 40.7469 17.4756 39.6996Z" fill="#1D1D1B"/>
                            <path d="M106.353 29.5718C107.792 29.6566 109.407 29.6809 111.647 29.893C112.81 30.0143 114.601 30.0143 114.856 30.7573C115.088 31.4458 114.214 32.1512 112.646 32.4506C111.853 32.6045 111.354 32.7329 110.643 32.7075C109.799 32.6832 107.985 32.744 107.934 31.7755C107.899 31.1731 106.71 31.1766 105.927 31.1463C104.341 31.0857 104.505 30.6373 104.85 30.1028C105.056 29.7779 105.487 29.5633 106.353 29.5718Z" fill="#1D1D1B"/>
                            <path d="M122.606 16.5824C123.321 16.5824 123.919 17.1472 123.919 17.878C123.919 18.6053 123.321 19.1738 122.606 19.1738C121.886 19.1738 121.292 18.6052 121.292 17.878C121.292 17.1471 121.886 16.5824 122.606 16.5824ZM122.606 19.4303C123.476 19.4303 124.169 18.7418 124.169 17.878C124.169 17.0186 123.476 16.3303 122.606 16.3303C121.735 16.3303 121.042 17.0186 121.042 17.878C121.042 18.7422 121.736 19.4303 122.606 19.4303ZM122.877 17.9551C123.109 17.9467 123.342 17.823 123.342 17.48C123.342 17.1127 123.058 17.0182 122.735 17.0182H121.998V18.7584H122.257V17.9548H122.58L123.032 18.7584H123.321L122.877 17.9551ZM122.696 17.2751C122.903 17.2751 123.088 17.2871 123.088 17.5101C123.088 17.7453 122.765 17.7066 122.524 17.7066H122.257V17.2751H122.696Z" fill="#1D1D1B"/>
                            <path d="M27.4397 38.0203C27.4397 38.0203 19.7942 26.6118 19.0146 24.1873C19.0146 24.1873 18.6742 23.2684 18.2048 22.7376C18.6959 22.7376 19.2471 22.7255 19.8803 22.6891C19.8803 22.6891 23.9379 22.6164 25.6522 19.4992C26.1217 18.6483 27.0262 15.7191 23.5287 12.0417C23.5287 12.0417 19.1093 6.82927 9.0646 6.16648C9.0646 6.16648 6.35535 4.89643 1.18655 9.14682C1.18655 9.14682 -0.760421 10.682 0.333635 11.0411C0.833259 11.2035 1.18226 11.2036 1.6388 11.0776C1.6388 11.0776 10.0295 8.25538 20.4532 14.2035C20.4532 14.2035 24.5667 16.7819 22.0081 19.3561C22.0081 19.3561 20.9916 20.476 18.4029 20.8825C18.4029 20.8825 17.7869 21.0037 16.5723 21.1261C16.5723 21.1261 15.965 21.1746 15.138 21.211C15.138 21.211 14.0912 21.2025 13.9793 21.5104C13.9316 21.6983 14.1085 21.771 14.6771 22.0449C14.6771 22.0407 14.6814 22.0449 14.6771 22.0449C13.5916 22.1661 13.1824 22.3189 12.9239 22.605C12.9239 22.605 12.7129 22.8534 12.8251 23.131C13.5488 25.0424 16.8654 32.9103 24.3602 39.0849C24.3602 39.0849 28.6717 42.4288 29.6322 41.6036C29.9294 41.3466 28.8482 39.9702 27.4397 38.0203Z" fill="#1D1D1B"/>
                            </svg>
