                            <svg xmlns="http://www.w3.org/2000/svg" width="171" height="38" viewBox="0 0 171 38" fill="none">
                            <path fill-rule="evenodd" clip-rule="evenodd" d="M0 27.4543C0 27.4543 23.2138 20.2091 85.2583 20.2091C147.752 20.2091 170.853 27.4102 170.853 27.4102C170.853 27.4102 142.593 22.4692 85.2583 22.4692C27.9242 22.4692 0 27.4543 0 27.4543ZM36.0586 31.2108H37.2272V37.8648H36.0586V35.0604H32.8831V37.8648H31.7131V31.2108H32.8831V33.9769H36.0586V31.2108ZM45.1369 34.557V34.5394C45.1369 33.2467 44.1965 32.1724 42.8748 32.1724C41.553 32.1724 40.6308 33.2276 40.6308 34.5202V34.5379C40.6308 35.8309 41.5725 36.8956 42.8943 36.8956C44.2149 36.8956 45.1369 35.8497 45.1369 34.557ZM39.4044 34.557V34.5394C39.4044 32.6665 40.8495 31.0981 42.8943 31.0981C44.938 31.0981 46.3636 32.6474 46.3636 34.5202V34.5379C46.3636 36.4108 44.9185 37.9795 42.8748 37.9795C40.8307 37.9795 39.4044 36.4296 39.4044 34.557ZM49.8153 32.2942H47.7049V31.2107H53.1052V32.2942H50.9938V37.865H49.8153V32.2942ZM55.1022 31.2107H60.0361V32.256H56.2719V33.9864H59.6089V35.0323H56.2719V36.8191H60.0843V37.8651H55.1022V31.2107ZM62.2328 31.2107H63.4028V36.8006H66.9015V37.8651H62.2328V31.2107ZM68.4318 36.8955L69.1355 36.0591C69.7721 36.6099 70.4185 36.9239 71.2369 36.9239C71.9589 36.9239 72.4155 36.5816 72.4155 36.0874V36.0698C72.4155 35.5945 72.1491 35.3382 70.9137 35.0529C69.497 34.7106 68.6984 34.2919 68.6984 33.0659V33.0482C68.6984 31.9072 69.6487 31.1186 70.9704 31.1186C71.9405 31.1186 72.7104 31.4129 73.3856 31.9548L72.7575 32.839C72.1589 32.3921 71.5602 32.1545 70.952 32.1545C70.2668 32.1545 69.867 32.506 69.867 32.9439V32.9615C69.867 33.4748 70.1719 33.703 71.4553 34.0075C72.8624 34.3498 73.5844 34.8535 73.5844 35.9562V35.9739C73.5844 37.219 72.6055 37.9605 71.2086 37.9605C70.1903 37.9605 69.2301 37.6085 68.4318 36.8955ZM82.3601 32.7886V32.7709C82.3601 32.324 82.0467 32.0199 81.6087 32.0199C81.1333 32.0199 80.8101 32.3526 80.8101 32.8184V32.8361C80.8101 33.1685 80.9435 33.416 81.3148 33.8246C81.9985 33.578 82.3601 33.2636 82.3601 32.7886ZM82.3985 36.4107L80.9152 34.899C80.2967 35.1654 80.0315 35.5739 80.0315 36.0017V36.0193C80.0315 36.5804 80.4966 36.9894 81.1434 36.9894C81.6 36.9894 82.0185 36.7718 82.3985 36.4107ZM83.0638 37.0951C82.4935 37.6275 81.8272 37.9599 81.029 37.9599C79.7835 37.9599 78.8516 37.2092 78.8516 36.0591V36.0414C78.8516 35.1854 79.3563 34.5677 80.2683 34.1777C79.8884 33.6935 79.7168 33.2749 79.7168 32.79V32.7723C79.7168 31.8788 80.4399 31.0994 81.6283 31.0994C82.6835 31.0994 83.3969 31.8122 83.3969 32.7057V32.7234C83.3969 33.5982 82.8167 34.121 81.9321 34.4534L83.0734 35.6135C83.3303 35.2329 83.5675 34.7962 83.7858 34.3301L84.6705 34.7962C84.4041 35.3286 84.1091 35.851 83.7674 36.3072L84.8226 37.3723L83.9475 38L83.0638 37.0951ZM93.2081 34.5095C94.0449 34.5095 94.5779 34.0721 94.5779 33.3969V33.3792C94.5779 32.6668 94.0647 32.2766 93.1995 32.2766H91.4975V34.5109L93.2081 34.5095ZM90.3275 31.2106H93.2945C94.131 31.2106 94.7867 31.4573 95.2149 31.8759C95.5664 32.2367 95.765 32.7315 95.765 33.3111V33.3288C95.765 34.4222 95.1096 35.0779 94.1881 35.3441L95.9848 37.8635H94.5964L92.9613 35.544H91.4975V37.8635H90.3275V31.2106ZM97.9619 31.2107H102.896V32.256H99.1319V33.9864H102.469V35.0323H99.1319V36.8191H102.944V37.8651H97.9619L97.9619 31.2107ZM104.646 36.8955L105.349 36.0591C105.986 36.6099 106.633 36.9239 107.451 36.9239C108.173 36.9239 108.63 36.5816 108.63 36.0874V36.0698C108.63 35.5945 108.363 35.3382 107.128 35.0529C105.711 34.7106 104.912 34.2919 104.912 33.0659V33.0482C104.912 31.9072 105.863 31.1186 107.185 31.1186C108.155 31.1186 108.924 31.4129 109.6 31.9548L108.971 32.839C108.373 32.3921 107.774 32.1545 107.166 32.1545C106.481 32.1545 106.081 32.506 106.081 32.9439V32.9615C106.081 33.4748 106.386 33.703 107.67 34.0075C109.076 34.3498 109.798 34.8535 109.798 35.9562V35.9739C109.798 37.219 108.82 37.9605 107.423 37.9605C106.405 37.9605 105.444 37.6085 104.646 36.8955ZM117.376 34.557V34.5394C117.376 33.2467 116.435 32.1724 115.114 32.1724C113.792 32.1724 112.87 33.2276 112.87 34.5202V34.5379C112.87 35.8309 113.812 36.8956 115.133 36.8956C116.454 36.8956 117.376 35.8497 117.376 34.557ZM111.644 34.557V34.5394C111.644 32.6665 113.089 31.0981 115.133 31.0981C117.177 31.0981 118.603 32.6474 118.603 34.5202V34.5379C118.603 36.4108 117.157 37.9795 115.114 37.9795C113.07 37.9795 111.644 36.4296 111.644 34.557ZM123.66 34.5094C124.497 34.5094 125.03 34.072 125.03 33.3968V33.3791C125.03 32.6667 124.517 32.2764 123.652 32.2764H121.95V34.5109L123.66 34.5094ZM120.78 31.2106H123.746C124.583 31.2106 125.239 31.4572 125.667 31.8759C126.018 32.2367 126.217 32.7315 126.217 33.311V33.3287C126.217 34.4222 125.562 35.0779 124.64 35.3441L126.437 37.8635H125.048L123.413 35.544H121.95V37.8635H120.78V31.2106ZM130.022 32.2942H127.911V31.2106H133.311V32.2942H131.2V37.865H130.022V32.2942ZM134.718 36.8955L135.421 36.059C136.058 36.6098 136.705 36.9238 137.523 36.9238C138.245 36.9238 138.702 36.5816 138.702 36.0873V36.0697C138.702 35.5944 138.435 35.3381 137.2 35.0528C135.783 34.7105 134.984 34.2918 134.984 33.0658V33.0482C134.984 31.9072 135.935 31.1185 137.256 31.1185C138.227 31.1185 138.996 31.4128 139.671 31.9547L139.043 32.8389C138.445 32.3919 137.846 32.1545 137.238 32.1545C136.553 32.1545 136.153 32.506 136.153 32.9438V32.9614C136.153 33.4747 136.458 33.7029 137.741 34.0074C139.148 34.3497 139.87 34.8535 139.87 35.9562V35.9738C139.87 37.219 138.892 37.9605 137.494 37.9605C136.476 37.9605 135.516 37.6084 134.718 36.8955ZM17.2114 0.122708H20.4867L24.5995 12.9045L28.8356 0.0738186H31.3967L35.6325 12.9045L39.7452 0.122708H42.9224L36.9132 17.4851H34.3026L30.0668 5.09758L25.831 17.4851H23.2205L17.2114 0.122708ZM50.6091 10.5651L43.7627 0.122546H47.3336L52.1608 7.75725L57.037 0.122546H60.509L53.6626 10.4909V17.3623H50.6091V10.5651ZM62.1857 0.122708H64.9935L74.2285 12.0424V0.122708H77.2085V17.3621H74.6717L65.1657 5.09758V17.3621H62.1857V0.122708ZM87.5789 14.6036C91.1996 14.6036 93.5632 12.1659 93.5632 8.79158V8.74252C93.5632 5.36818 91.1996 2.88124 87.5789 2.88124H84.1806V14.6034L87.5789 14.6036ZM81.1517 0.122816H87.5789C92.997 0.122816 96.7407 3.84158 96.7407 8.69347V8.74252C96.7407 13.5937 92.997 17.3621 87.5789 17.3621H81.1517V0.122816ZM99.9207 0.122708H102.949V7.28963H111.175V0.122708H114.204V17.3621H111.175V10.0967H102.949V17.3621H99.9207V0.122708ZM128.589 10.5157L125.609 3.62002L122.652 10.5157H128.589ZM124.254 0H127.062L134.646 17.3621H131.445L129.696 13.2001H121.545L119.771 17.3621H116.668L124.254 0ZM136.62 0.122816H139.845L145.091 8.27452L150.337 0.122816H153.562V17.3622H150.534V4.99926L145.091 13.1264H144.993L139.599 5.04885V17.3622H136.62V0.122816Z" fill="#1D1D1B"/>
                            </svg>
