                            <svg xmlns="http://www.w3.org/2000/svg" width="81" height="44" viewBox="0 0 81 44" fill="none">
                            <path fillRule="evenodd" clipRule="evenodd" d="M45.7193 27.5144H45.7566L47.4327 20.9773H53.5413V23.8083C52.9449 24.1806 53.001 24.7761 53.001 25.3722V32.542C53.001 33.1388 52.9449 33.7342 53.5413 34.1063V36.937H47.7119V34.1063C48.3077 33.7339 48.2516 33.1388 48.2516 32.542V28.2587H48.2143L46.0543 36.937H43.7943L41.8008 28.2587H41.7635V32.542C41.7635 33.1388 41.7074 33.7342 42.3035 34.1063V36.937H37.3867V34.1063C37.9825 33.7339 37.9267 33.1388 37.9267 32.542V25.3722C37.9267 24.7761 37.9828 24.1803 37.3867 23.8083V20.9773H44.0799L45.7193 27.5144Z" fill="#1D1D1B"/>
                            <path fill-rule="evenodd" clip-rule="evenodd" d="M59.8207 24.9738C55.7051 24.9923 54.625 26.2773 54.6993 29.4803V32.6648C54.6993 34.0805 54.7554 35.3846 55.9843 36.2966C56.9527 37.0231 58.7592 37.3211 60.5469 37.1911C62.3534 37.0601 64.1595 36.5198 65.1286 35.6826V32.7397H60.7331V33.1682C60.7331 33.764 60.6776 34.4528 59.9141 34.4528C59.1503 34.4528 59.0758 33.6897 59.0946 33.1118V32.0474L65.1286 32.0321V29.2572C65.2029 26.3892 64.1414 24.955 59.8207 24.9738ZM60.8076 29.3499H59.0946V28.903C59.0946 28.4376 59.1691 27.7111 59.9514 27.7111C60.7334 27.7111 60.8076 28.4373 60.8076 28.903V29.3499Z" fill="#1D1D1B"/>
                            <path fillRule="evenodd" clipRule="evenodd" d="M70.8427 26.1462C71.3085 25.3452 71.7924 24.9543 72.7429 24.9543C72.9103 24.9543 73.0961 24.9732 73.2641 25.0098V29.0142H72.9103C71.3834 29.0142 71.048 29.8708 71.048 31.2488V32.3849C71.048 32.7573 71.048 33.2794 71.1226 33.6517C71.1969 34.0425 71.3091 34.1359 71.6811 34.3215V36.9478H66.1128V34.2848C66.7086 33.894 66.6525 33.354 66.6525 32.7385V29.4235C66.6525 28.8093 66.7086 28.2689 66.1128 27.8781V25.2151H70.8431V26.1462H70.8427Z" fill="#1D1D1B"/>
                            <path fillRule="evenodd" clipRule="evenodd" d="M79.3578 26.1462C79.8233 25.3452 80.3078 24.9543 81.2571 24.9543C81.4248 24.9543 81.6106 24.9732 81.7786 25.0098V29.0142H81.4248C79.8978 29.0142 79.5628 29.8708 79.5628 31.2488V32.3849C79.5628 32.7573 79.5628 33.2794 79.6374 33.6517C79.7114 34.0425 79.8233 34.1359 80.1959 34.3215V36.9478H74.627V34.2848C75.2237 33.894 75.1673 33.354 75.1673 32.7385V29.4235C75.1673 28.8093 75.2237 28.2689 74.627 27.8781V25.2151H79.3578V26.1462Z" fill="#1D1D1B"/>
                            <path fillRule="evenodd" clipRule="evenodd" d="M30.35 14.2707C28.4896 13.3621 25.3314 12.7563 23.774 12.1508C22.2164 11.545 21.0054 10.3337 22.0218 8.71085C22.9112 7.29142 24.6826 7.88941 25.5044 8.29997C26.7856 8.94089 28.0138 9.72786 29.0954 9.72786C30.177 9.72786 32.8591 8.64629 33.9407 5.35832H26.0234C23.4277 5.35832 21.1561 6.41827 20.4425 8.17053C19.7405 9.89365 20.1398 12.0643 23.0817 13.3621C24.0335 13.7946 26.889 14.4437 28.8791 15.3087C30.8696 16.1743 32.8162 17.3853 32.2539 19.2457C31.6913 21.1061 29.081 21.2381 27.6029 21.1497C25.8074 21.0413 20.6807 20.0675 19.1666 16.6933C18.8639 15.8713 17.1329 11.9994 16.6572 11.2639C17.1762 11.3071 18.2794 11.3291 18.3665 10.8962C18.4527 10.4634 18.0199 9.68461 17.6306 9.07879C19.0582 8.34322 19.2315 1.29123 13.8236 3.06512L14.5592 3.88719C15.381 4.92551 13.9966 5.87764 13.4344 5.53133C13.1746 5.31507 13.0019 5.31507 12.612 5.31507H9.58418C9.1943 5.31507 9.1078 5.40126 8.84861 5.48839C7.55048 6.00739 7.37716 4.49301 7.89648 3.93044L8.6753 3.15193C6.20909 1.46455 1.44999 4.88257 4.21926 8.64629C3.3972 9.4251 2.96438 11.372 4.0892 11.0692C4.39195 10.9389 5.08427 10.8094 5.47352 10.68L2.92082 17.753C2.44506 18.8781 1.36349 21.8198 3.24519 24.589C2.50963 25.6697 2.96438 28.0281 3.22388 29.1532C3.4837 30.2774 4.17601 32.0083 2.96438 36.6806H6.85816C6.81491 35.3399 6.94466 34.4313 7.11766 33.7816C7.29097 33.1332 7.72348 31.6185 7.72348 31.0562C8.13467 31.2292 9.32436 31.2292 9.67068 31.0562C10.1897 31.9218 11.5743 33.9985 15.6408 34.085C15.9006 33.5227 16.203 31.662 16.1165 30.3642C16.4196 30.1047 16.7656 30.0611 17.0251 29.9749C17.2846 29.8888 17.5874 29.9749 17.6306 30.3213C17.6739 30.6669 18.0199 30.9264 18.4097 30.7534C18.7984 30.5804 19.2099 30.7321 19.1231 31.2079C19.0369 31.6836 18.8849 33.9552 16.5055 36.6806H21.0919C21.5676 35.642 22.8222 32.9163 24.12 31.7485C24.466 32.2243 25.5479 33.5653 27.4512 32.6138C27.1052 33.2197 25.7206 35.772 25.1584 36.6809H30.4258C30.6317 35.945 31.9073 31.8566 33.1189 30.2777C33.3784 29.932 33.4649 29.4127 32.9027 29.1535C32.3407 28.8934 31.3018 28.3747 30.2205 25.8649C29.7874 24.6968 28.5764 22.8368 28.2307 22.5343C29.442 22.707 32.3837 22.4046 33.3784 20.3709C34.3732 18.3375 33.5082 15.7415 30.35 14.2707ZM27.1388 6.68122H30.9677C31.4002 6.68122 31.4434 6.98397 31.1836 7.24379C30.9244 7.50329 30.2108 8.19216 29.1719 8.21692C28.2636 8.23823 27.4199 7.58979 27.009 7.32997C26.664 7.11247 26.8793 6.68122 27.1388 6.68122ZM6.27491 30.8092C6.10222 31.9334 5.71234 34.2263 5.34471 35.3518H4.56589C5.3234 32.4098 4.80377 30.1169 4.54396 29.0353C4.28445 27.9538 4.13308 26.7644 4.34933 26.1583C4.47939 26.3739 5.12815 27.2398 5.3444 27.5429C6.25328 28.9266 6.44759 29.6838 6.27491 30.8092ZM9.91326 28.7492C9.09119 30.0477 8.03156 29.2685 7.6423 28.6198C7.25274 27.9707 6.56073 26.7597 5.47916 25.3315C4.26157 23.7246 3.83534 23.0822 3.48871 21.7408C3.14302 20.4 3.83534 19.8371 4.6571 20.0537C5.47916 20.2703 6.3448 21.8708 6.51748 22.4331C6.64724 22.9515 7.59905 22.9515 7.59905 22.3895C7.42574 20.1399 4.6571 18.2795 4.13778 17.8473C4.87335 16.0302 6.88543 10.4061 7.07974 8.76162C3.92153 7.89661 4.52734 4.7384 6.25767 4.47827C5.54435 5.86291 7.36118 7.91824 8.63737 7.09586C9.05201 6.82883 9.22094 6.77148 9.58888 6.77148H12.4443C12.8988 6.77148 13.288 7.07454 13.4827 7.13911C15.905 7.57161 16.3381 5.64666 16.1216 4.9324C17.1169 5.23547 17.0517 6.79279 16.6409 7.57161C16.2297 8.35012 14.7589 8.63156 13.5475 8.52343C12.2278 8.54474 11.8169 10.1243 11.7304 10.6866C11.6436 11.2491 11.9031 11.5303 11.9463 12.0493C11.9896 12.5686 11.2756 12.7196 10.757 12.7196C10.2376 12.7196 9.95651 12.5037 9.56726 12.5037C9.17769 12.5037 8.87494 12.6983 8.87494 13.0443C8.87494 13.3907 9.06988 13.6066 9.48044 13.5853C9.89163 13.5637 10.2376 13.3255 10.8002 13.3474C11.3625 13.3687 11.8598 13.758 12.5092 13.7796C13.158 13.8012 13.3742 13.1738 13.3742 12.9362C13.3742 12.698 13.4175 12.3953 13.0498 12.0493C13.4717 11.833 13.8287 10.8812 14.5642 10.7511C15.0832 11.5735 17.8303 15.294 17.6356 18.539C17.4777 21.1766 15.4292 22.6923 14.521 23.1677C12.1845 24.51 10.7356 27.452 9.91326 28.7492ZM13.7447 10.1356C13.3755 10.5759 12.9712 10.7148 12.8019 10.549C12.6534 10.4036 12.6706 10.009 13.0401 9.56927C13.4093 9.12893 13.828 8.95531 14.0095 9.107C14.191 9.25869 14.1139 9.69589 13.7447 10.1356ZM14.7723 28.9642C13.9941 29.3321 12.696 29.8292 12.2203 29.9593C11.8307 30.0671 11.9159 30.3642 11.9388 30.478C11.9824 30.6942 12.8906 31.1487 13.561 30.9321C13.7559 30.8243 14.1236 30.7158 14.5345 30.7378C14.5993 31.1703 14.5777 31.971 14.4266 32.512C13.4748 32.3816 10.9221 31.4514 10.9657 30.1971C11.0086 28.9416 12.6744 27.0816 13.3021 26.7794C13.929 26.4764 14.9243 26.2814 15.3352 26.9951C15.7461 27.7096 15.5515 28.5963 14.7723 28.9642ZM16.9834 28.265C17.0267 27.573 17.0267 25.3663 14.647 24.804C15.296 24.4145 18.9303 22.4249 18.9303 19.0505C19.6223 19.829 21.2668 20.8244 22.0023 21.1704C21.18 21.7326 18.9736 24.4145 22.1753 28.1785C21.699 28.3076 20.6613 28.4377 20.1849 28.6107C19.7956 28.7407 19.5797 28.5681 19.5797 28.0923C19.5797 27.7892 19.6267 27.5539 19.1472 27.6156C18.6489 27.6805 17.373 28.0484 16.9834 28.265ZM20.2209 35.3612H19.1823C20.5882 32.7436 20.7829 31.0778 20.7829 30.4726C21.5184 30.0395 22.9244 30.0182 23.3788 30.0395C22.7949 30.5156 20.6534 34.4962 20.2209 35.3612ZM25.9124 31.4147C25.2853 31.2634 25.112 30.6146 25.112 30.1815C25.4153 30.2254 26.6696 30.5494 26.9727 30.7224C27.2751 30.8954 27.0259 31.6836 25.9124 31.4147ZM29.0086 26.6889C29.9604 28.6354 30.6524 29.5221 31.042 29.8687C31.4312 30.2144 31.3447 30.4958 31.1068 30.9067C30.7608 31.5564 29.5708 34.368 29.2248 35.3417H27.6672C28.3595 34.2602 29.0083 32.7025 29.2245 32.0535C29.4411 31.405 29.4843 30.9719 29.3546 30.5394C29.2245 30.1066 28.4065 29.5343 26.4991 28.8088C24.509 28.0516 23.7085 27.4893 22.8 26.4513C21.8917 25.4127 21.3508 23.2279 23.146 22.2331C26.3477 21.2378 28.0567 24.741 29.0086 26.6889Z" fill="#1D1D1B"/>
                            <path fillRule="evenodd" clipRule="evenodd" d="M8.92285 9.56861C8.55302 9.12889 8.134 8.95464 7.95285 9.10664C7.7717 9.25865 7.84848 9.69522 8.21799 10.1356C8.58719 10.5759 8.9918 10.7144 9.16041 10.5489C9.30865 10.4029 9.29141 10.0089 8.92285 9.56861Z" fill="#1D1D1B"/>
                            <path fillRule="evenodd" clipRule="evenodd" d="M10.8564 14.5356C11.1482 14.5356 11.6781 14.6873 11.9593 14.7735C12.5115 14.9358 12.4463 14.2971 12.2517 14.1783C11.8405 13.9082 11.2673 13.8 10.8457 13.8C10.4236 13.8 9.85066 13.9079 9.43947 14.1783C9.24453 14.2974 9.17996 14.9358 9.73156 14.7735C10.0127 14.6873 10.5643 14.5356 10.8564 14.5356Z" fill="#1D1D1B"/>
                            </svg>
